<?xml version="1.0" encoding="UTF-8" standalone="no"?><svg xmlns="http://www.w3.org/2000/svg" xmlns:xlink="http://www.w3.org/1999/xlink" clip-rule="evenodd" stroke-miterlimit="4.00" viewBox="0 0 1024 768"><desc>SVG generated by Keynote</desc><defs></defs><g transform="matrix(1.00, 0.00, -0.00, -1.00, 0.0, 768.0)"><path d="M 0.0 768.0 L 1024.0 768.0 L 1024.0 0.0 L 0.0 0.0 Z M 0.0 768.0 " fill="#FEFFFF"></path><image xlink:href="../../4199ABF7-1C7E-4789-9BA1-74E6DE75D96B/assets/92AE104018F406905E6D3D2E6C3A3B86.png" width="222.00" height="58.00" transform="matrix(1.00, 0.00, -0.00, -1.00, 381.9, 647.8)" opacity="0.50"></image><g><clipPath id="clip-376"><path d="M 384.9 646.8 L 600.6 646.8 L 600.6 595.1 L 384.9 595.1 Z M 384.9 646.8 "></path></clipPath><g clip-path="url(#clip-376)"><image xlink:href="../../1C04A9DF-18C7-4A3E-8791-F72F3247F06B/assets/D5BAA0E7A80E113D25EB92D00157B4C8.jpeg" width="300.00" height="300.00" transform="matrix(1.00, 0.00, -0.00, -1.00, 384.9, 646.8)"></image><path d="M 384.9 646.8 L 600.6 646.8 L 600.6 595.1 L 384.9 595.1 Z M 384.9 646.8 " fill="#009BFC" fill-opacity="0.50"></path></g></g><g><clipPath id="clip-377"><path d="M 382.9 595.1 L 602.6 595.1 L 602.6 646.8 L 382.9 646.8 Z M 382.9 595.1 "></path></clipPath><g clip-path="url(#clip-377)"><text xml:space="preserve" font-family="Helvetica-Bold" font-weight="bold" font-size="24.0" fill="#FEFFFE" transform="matrix(1.00, 0.00, -0.00, -1.00, 424.0, 611.0)">a</text><text xml:space="preserve" font-family="Helvetica-Bold" font-weight="bold" font-size="24.0" fill="#FEFFFE" transform="matrix(1.00, 0.00, -0.00, -1.00, 437.4, 611.0)">l</text><text xml:space="preserve" font-family="Helvetica-Bold" font-weight="bold" font-size="24.0" fill="#FEFFFE" transform="matrix(1.00, 0.00, -0.00, -1.00, 444.0, 611.0)">l</text><text xml:space="preserve" font-family="Helvetica-Bold" font-weight="bold" font-size="24.0" fill="#FEFFFE" transform="matrix(1.00, 0.00, -0.00, -1.00, 450.7, 611.0)"> </text><text xml:space="preserve" font-family="Helvetica-Bold" font-weight="bold" font-size="24.0" fill="#FEFFFE" transform="matrix(1.00, 0.00, -0.00, -1.00, 457.4, 611.0)">v</text><text xml:space="preserve" font-family="Helvetica-Bold" font-weight="bold" font-size="24.0" fill="#FEFFFE" transform="matrix(1.00, 0.00, -0.00, -1.00, 470.7, 611.0)">a</text><text xml:space="preserve" font-family="Helvetica-Bold" font-weight="bold" font-size="24.0" fill="#FEFFFE" transform="matrix(1.00, 0.00, -0.00, -1.00, 484.1, 611.0)">r</text><text xml:space="preserve" font-family="Helvetica-Bold" font-weight="bold" font-size="24.0" fill="#FEFFFE" transform="matrix(1.00, 0.00, -0.00, -1.00, 493.4, 611.0)">i</text><text xml:space="preserve" font-family="Helvetica-Bold" font-weight="bold" font-size="24.0" fill="#FEFFFE" transform="matrix(1.00, 0.00, -0.00, -1.00, 500.1, 611.0)">a</text><text xml:space="preserve" font-family="Helvetica-Bold" font-weight="bold" font-size="24.0" fill="#FEFFFE" transform="matrix(1.00, 0.00, -0.00, -1.00, 513.4, 611.0)">b</text><text xml:space="preserve" font-family="Helvetica-Bold" font-weight="bold" font-size="24.0" fill="#FEFFFE" transform="matrix(1.00, 0.00, -0.00, -1.00, 528.1, 611.0)">l</text><text xml:space="preserve" font-family="Helvetica-Bold" font-weight="bold" font-size="24.0" fill="#FEFFFE" transform="matrix(1.00, 0.00, -0.00, -1.00, 534.8, 611.0)">e</text><text xml:space="preserve" font-family="Helvetica-Bold" font-weight="bold" font-size="24.0" fill="#FEFFFE" transform="matrix(1.00, 0.00, -0.00, -1.00, 548.1, 611.0)">s</text></g></g><g><clipPath id="clip-378"><path d="M 162.4 469.1 L 382.1 469.1 L 382.1 524.8 L 162.4 524.8 Z M 162.4 469.1 "></path></clipPath><g clip-path="url(#clip-378)"><path d="M 0.0 0.0 L 215.7 0.0 L 215.7 51.7 L 0.0 51.7 Z M 0.0 0.0 " fill="none" stroke="#85878C" stroke-width="2.00" transform="matrix(1.00, 0.00, 0.00, -1.00, 164.4, 522.8)"></path></g></g><g><clipPath id="clip-379"><path d="M 163.4 472.1 L 381.1 472.1 L 381.1 521.8 L 163.4 521.8 Z M 163.4 472.1 "></path></clipPath><g clip-path="url(#clip-379)"><text xml:space="preserve" font-family="Helvetica-Light" font-size="24.0" fill="#000000" transform="matrix(1.00, 0.00, -0.00, -1.00, 220.0, 487.0)">n</text><text xml:space="preserve" font-family="Helvetica-Light" font-size="24.0" fill="#000000" transform="matrix(1.00, 0.00, -0.00, -1.00, 233.3, 487.0)">u</text><text xml:space="preserve" font-family="Helvetica-Light" font-size="24.0" fill="#000000" transform="matrix(1.00, 0.00, -0.00, -1.00, 246.7, 487.0)">m</text><text xml:space="preserve" font-family="Helvetica-Light" font-size="24.0" fill="#000000" transform="matrix(1.00, 0.00, -0.00, -1.00, 266.7, 487.0)">e</text><text xml:space="preserve" font-family="Helvetica-Light" font-size="24.0" fill="#000000" transform="matrix(1.00, 0.00, -0.00, -1.00, 280.0, 487.0)">r</text><text xml:space="preserve" font-family="Helvetica-Light" font-size="24.0" fill="#000000" transform="matrix(1.00, 0.00, -0.00, -1.00, 288.0, 487.0)">i</text><text xml:space="preserve" font-family="Helvetica-Light" font-size="24.0" fill="#000000" transform="matrix(1.00, 0.00, -0.00, -1.00, 293.3, 487.0)">c</text><text xml:space="preserve" font-family="Helvetica-Light" font-size="24.0" fill="#000000" transform="matrix(1.00, 0.00, -0.00, -1.00, 306.7, 487.0)">a</text><text xml:space="preserve" font-family="Helvetica-Light" font-size="24.0" fill="#000000" transform="matrix(1.00, 0.00, -0.00, -1.00, 320.0, 487.0)">l</text><text xml:space="preserve" font-family="Helvetica-Light" font-size="24.0" fill="#000000" transform="matrix(1.00, 0.00, -0.00, -1.00, 325.4, 487.0)"> </text></g></g><g><clipPath id="clip-380"><path d="M 598.8 474.1 L 822.5 474.1 L 822.5 533.8 L 598.8 533.8 Z M 598.8 474.1 "></path></clipPath><g clip-path="url(#clip-380)"><image xlink:href="../../4199ABF7-1C7E-4789-9BA1-74E6DE75D96B/assets/92AE104018F406905E6D3D2E6C3A3B86.png" width="222.00" height="58.00" transform="matrix(1.00, 0.00, -0.00, -1.00, 599.8, 532.8)" opacity="0.50"></image></g></g><g><clipPath id="clip-381"><path d="M 602.8 531.8 L 818.5 531.8 L 818.5 480.1 L 602.8 480.1 Z M 602.8 531.8 "></path></clipPath><g clip-path="url(#clip-381)"><g><clipPath id="clip-382"><path d="M 598.8 474.1 L 822.5 474.1 L 822.5 533.8 L 598.8 533.8 Z M 598.8 474.1 "></path></clipPath><g clip-path="url(#clip-382)"><image xlink:href="../../1C04A9DF-18C7-4A3E-8791-F72F3247F06B/assets/D5BAA0E7A80E113D25EB92D00157B4C8.jpeg" width="300.00" height="300.00" transform="matrix(1.00, 0.00, -0.00, -1.00, 602.8, 531.8)"></image><path d="M 602.8 531.8 L 818.5 531.8 L 818.5 480.1 L 602.8 480.1 Z M 602.8 531.8 " fill="#009BFC" fill-opacity="0.50"></path></g></g></g></g><g><clipPath id="clip-383"><path d="M 600.8 480.1 L 820.5 480.1 L 820.5 531.8 L 600.8 531.8 Z M 600.8 480.1 "></path></clipPath><g clip-path="url(#clip-383)"><text xml:space="preserve" font-family="Helvetica-Light" font-size="24.0" fill="#FEFFFE" transform="matrix(1.00, 0.00, -0.00, -1.00, 651.0, 496.0)">c</text><text xml:space="preserve" font-family="Helvetica-Light" font-size="24.0" fill="#FEFFFE" transform="matrix(1.00, 0.00, -0.00, -1.00, 664.3, 496.0)">a</text><text xml:space="preserve" font-family="Helvetica-Light" font-size="24.0" fill="#FEFFFE" transform="matrix(1.00, 0.00, -0.00, -1.00, 677.7, 496.0)">t</text><text xml:space="preserve" font-family="Helvetica-Light" font-size="24.0" fill="#FEFFFE" transform="matrix(1.00, 0.00, -0.00, -1.00, 684.4, 496.0)">e</text><text xml:space="preserve" font-family="Helvetica-Light" font-size="24.0" fill="#FEFFFE" transform="matrix(1.00, 0.00, -0.00, -1.00, 697.7, 496.0)">g</text><text xml:space="preserve" font-family="Helvetica-Light" font-size="24.0" fill="#FEFFFE" transform="matrix(1.00, 0.00, -0.00, -1.00, 712.4, 496.0)">o</text><text xml:space="preserve" font-family="Helvetica-Light" font-size="24.0" fill="#FEFFFE" transform="matrix(1.00, 0.00, -0.00, -1.00, 725.7, 496.0)">r</text><text xml:space="preserve" font-family="Helvetica-Light" font-size="24.0" fill="#FEFFFE" transform="matrix(1.00, 0.00, -0.00, -1.00, 733.7, 496.0)">i</text><text xml:space="preserve" font-family="Helvetica-Light" font-size="24.0" fill="#FEFFFE" transform="matrix(1.00, 0.00, -0.00, -1.00, 739.0, 496.0)">c</text><text xml:space="preserve" font-family="Helvetica-Light" font-size="24.0" fill="#FEFFFE" transform="matrix(1.00, 0.00, -0.00, -1.00, 752.4, 496.0)">a</text><text xml:space="preserve" font-family="Helvetica-Light" font-size="24.0" fill="#FEFFFE" transform="matrix(1.00, 0.00, -0.00, -1.00, 765.7, 496.0)">l</text></g></g><path d="M 0.0 0.0 L 113.4 0.0 L 114.4 0.0 " fill="none" stroke="#000000" stroke-width="2.00" transform="matrix(-0.86, -0.51, -0.51, 0.86, 381.0, 587.5)"></path><path d="M 281.3 533.3 L 275.6 524.3 L 286.3 525.1 Z M 281.3 533.3 " fill="#000000"></path><path d="M 0.0 0.0 L 83.5 0.0 L 84.5 0.0 " fill="none" stroke="#000000" stroke-width="2.00" transform="matrix(0.82, -0.57, -0.57, -0.82, 604.4, 588.5)"></path><path d="M 670.4 537.1 L 681.1 535.6 L 675.9 545.0 Z M 670.4 537.1 " fill="#000000"></path><text xml:space="preserve" font-family="Helvetica-Light" font-size="36.0" fill="#000000" transform="matrix(1.00, 0.00, -0.00, -1.00, 679.0, 642.0)">t</text><text xml:space="preserve" font-family="Helvetica-Light" font-size="36.0" fill="#000000" transform="matrix(1.00, 0.00, -0.00, -1.00, 689.0, 642.0)">y</text><text xml:space="preserve" font-family="Helvetica-Light" font-size="36.0" fill="#000000" transform="matrix(1.00, 0.00, -0.00, -1.00, 707.0, 642.0)">p</text><text xml:space="preserve" font-family="Helvetica-Light" font-size="36.0" fill="#000000" transform="matrix(1.00, 0.00, -0.00, -1.00, 729.0, 642.0)">e</text><text xml:space="preserve" font-family="Helvetica-Light" font-size="36.0" fill="#000000" transform="matrix(1.00, 0.00, -0.00, -1.00, 749.0, 642.0)">s</text><text xml:space="preserve" font-family="Helvetica-Light" font-size="36.0" fill="#000000" transform="matrix(1.00, 0.00, -0.00, -1.00, 767.0, 642.0)"> </text><text xml:space="preserve" font-family="Helvetica-Light" font-size="36.0" fill="#000000" transform="matrix(1.00, 0.00, -0.00, -1.00, 777.0, 642.0)">o</text><text xml:space="preserve" font-family="Helvetica-Light" font-size="36.0" fill="#000000" transform="matrix(1.00, 0.00, -0.00, -1.00, 797.0, 642.0)">f</text><text xml:space="preserve" font-family="Helvetica-Light" font-size="36.0" fill="#000000" transform="matrix(1.00, 0.00, -0.00, -1.00, 807.1, 642.0)"> </text><text xml:space="preserve" font-family="Helvetica-Light" font-size="36.0" fill="#000000" transform="matrix(1.00, 0.00, -0.00, -1.00, 817.1, 642.0)">v</text><text xml:space="preserve" font-family="Helvetica-Light" font-size="36.0" fill="#000000" transform="matrix(1.00, 0.00, -0.00, -1.00, 835.1, 642.0)">a</text><text xml:space="preserve" font-family="Helvetica-Light" font-size="36.0" fill="#000000" transform="matrix(1.00, 0.00, -0.00, -1.00, 855.1, 642.0)">r</text><text xml:space="preserve" font-family="Helvetica-Light" font-size="36.0" fill="#000000" transform="matrix(1.00, 0.00, -0.00, -1.00, 867.1, 642.0)">i</text><text xml:space="preserve" font-family="Helvetica-Light" font-size="36.0" fill="#000000" transform="matrix(1.00, 0.00, -0.00, -1.00, 875.1, 642.0)">a</text><text xml:space="preserve" font-family="Helvetica-Light" font-size="36.0" fill="#000000" transform="matrix(1.00, 0.00, -0.00, -1.00, 895.1, 642.0)">b</text><text xml:space="preserve" font-family="Helvetica-Light" font-size="36.0" fill="#000000" transform="matrix(1.00, 0.00, -0.00, -1.00, 917.1, 642.0)">l</text><text xml:space="preserve" font-family="Helvetica-Light" font-size="36.0" fill="#000000" transform="matrix(1.00, 0.00, -0.00, -1.00, 925.1, 642.0)">e</text><text xml:space="preserve" font-family="Helvetica-Light" font-size="36.0" fill="#000000" transform="matrix(1.00, 0.00, -0.00, -1.00, 945.1, 642.0)">s</text><g><clipPath id="clip-384"><path d="M 15.1 333.1 L 234.8 333.1 L 234.8 388.8 L 15.1 388.8 Z M 15.1 333.1 "></path></clipPath><g clip-path="url(#clip-384)"><path d="M 0.0 0.0 L 215.7 0.0 L 215.7 51.7 L 0.0 51.7 Z M 0.0 0.0 " fill="none" stroke="#85878C" stroke-width="2.00" transform="matrix(1.00, 0.00, 0.00, -1.00, 17.1, 386.8)"></path></g></g><g><clipPath id="clip-385"><path d="M 16.1 336.1 L 233.8 336.1 L 233.8 385.8 L 16.1 385.8 Z M 16.1 336.1 "></path></clipPath><g clip-path="url(#clip-385)"><text xml:space="preserve" font-family="Helvetica-Light" font-size="24.0" fill="#000000" transform="matrix(1.00, 0.00, -0.00, -1.00, 66.0, 351.0)">c</text><text xml:space="preserve" font-family="Helvetica-Light" font-size="24.0" fill="#000000" transform="matrix(1.00, 0.00, -0.00, -1.00, 79.3, 351.0)">o</text><text xml:space="preserve" font-family="Helvetica-Light" font-size="24.0" fill="#000000" transform="matrix(1.00, 0.00, -0.00, -1.00, 92.7, 351.0)">n</text><text xml:space="preserve" font-family="Helvetica-Light" font-size="24.0" fill="#000000" transform="matrix(1.00, 0.00, -0.00, -1.00, 106.0, 351.0)">t</text><text xml:space="preserve" font-family="Helvetica-Light" font-size="24.0" fill="#000000" transform="matrix(1.00, 0.00, -0.00, -1.00, 112.7, 351.0)">i</text><text xml:space="preserve" font-family="Helvetica-Light" font-size="24.0" fill="#000000" transform="matrix(1.00, 0.00, -0.00, -1.00, 118.0, 351.0)">n</text><text xml:space="preserve" font-family="Helvetica-Light" font-size="24.0" fill="#000000" transform="matrix(1.00, 0.00, -0.00, -1.00, 131.4, 351.0)">u</text><text xml:space="preserve" font-family="Helvetica-Light" font-size="24.0" fill="#000000" transform="matrix(1.00, 0.00, -0.00, -1.00, 144.7, 351.0)">o</text><text xml:space="preserve" font-family="Helvetica-Light" font-size="24.0" fill="#000000" transform="matrix(1.00, 0.00, -0.00, -1.00, 158.1, 351.0)">u</text><text xml:space="preserve" font-family="Helvetica-Light" font-size="24.0" fill="#000000" transform="matrix(1.00, 0.00, -0.00, -1.00, 171.4, 351.0)">s</text></g></g><g><clipPath id="clip-386"><path d="M 284.0 333.3 L 503.7 333.3 L 503.7 389.0 L 284.0 389.0 Z M 284.0 333.3 "></path></clipPath><g clip-path="url(#clip-386)"><path d="M 0.0 0.0 L 215.7 0.0 L 215.7 51.7 L 0.0 51.7 Z M 0.0 0.0 " fill="none" stroke="#85878C" stroke-width="2.00" transform="matrix(1.00, 0.00, 0.00, -1.00, 286.0, 387.0)"></path></g></g><g><clipPath id="clip-387"><path d="M 285.0 336.3 L 502.7 336.3 L 502.7 386.0 L 285.0 386.0 Z M 285.0 336.3 "></path></clipPath><g clip-path="url(#clip-387)"><text xml:space="preserve" font-family="Helvetica-Light" font-size="24.0" fill="#000000" transform="matrix(1.00, 0.00, -0.00, -1.00, 351.0, 352.0)">d</text><text xml:space="preserve" font-family="Helvetica-Light" font-size="24.0" fill="#000000" transform="matrix(1.00, 0.00, -0.00, -1.00, 365.7, 352.0)">i</text><text xml:space="preserve" font-family="Helvetica-Light" font-size="24.0" fill="#000000" transform="matrix(1.00, 0.00, -0.00, -1.00, 371.0, 352.0)">s</text><text xml:space="preserve" font-family="Helvetica-Light" font-size="24.0" fill="#000000" transform="matrix(1.00, 0.00, -0.00, -1.00, 383.0, 352.0)">c</text><text xml:space="preserve" font-family="Helvetica-Light" font-size="24.0" fill="#000000" transform="matrix(1.00, 0.00, -0.00, -1.00, 396.3, 352.0)">r</text><text xml:space="preserve" font-family="Helvetica-Light" font-size="24.0" fill="#000000" transform="matrix(1.00, 0.00, -0.00, -1.00, 403.9, 352.0)">e</text><text xml:space="preserve" font-family="Helvetica-Light" font-size="24.0" fill="#000000" transform="matrix(1.00, 0.00, -0.00, -1.00, 417.2, 352.0)">t</text><text xml:space="preserve" font-family="Helvetica-Light" font-size="24.0" fill="#000000" transform="matrix(1.00, 0.00, -0.00, -1.00, 423.9, 352.0)">e</text></g></g><path d="M 0.0 0.0 L 113.4 0.0 L 114.4 0.0 " fill="none" stroke="#000000" stroke-width="2.00" transform="matrix(-0.86, -0.51, -0.51, 0.86, 233.7, 451.4)"></path><path d="M 134.0 397.3 L 128.2 388.2 L 138.9 389.0 Z M 134.0 397.3 " fill="#000000"></path><path d="M 0.0 0.0 L 100.5 0.0 L 101.5 0.0 " fill="none" stroke="#000000" stroke-width="2.00" transform="matrix(0.83, -0.56, -0.56, -0.83, 272.7, 453.0)"></path><path d="M 353.6 393.2 L 364.3 391.8 L 359.0 401.1 Z M 353.6 393.2 " fill="#000000"></path><g><clipPath id="clip-388"><path d="M 513.8 329.1 L 737.5 329.1 L 737.5 388.8 L 513.8 388.8 Z M 513.8 329.1 "></path></clipPath><g clip-path="url(#clip-388)"><image xlink:href="../../4199ABF7-1C7E-4789-9BA1-74E6DE75D96B/assets/92AE104018F406905E6D3D2E6C3A3B86.png" width="222.00" height="58.00" transform="matrix(1.00, 0.00, -0.00, -1.00, 514.8, 387.8)" opacity="0.50"></image></g></g><g><clipPath id="clip-389"><path d="M 517.8 386.8 L 733.5 386.8 L 733.5 335.1 L 517.8 335.1 Z M 517.8 386.8 "></path></clipPath><g clip-path="url(#clip-389)"><g><clipPath id="clip-390"><path d="M 513.8 329.1 L 737.5 329.1 L 737.5 388.8 L 513.8 388.8 Z M 513.8 329.1 "></path></clipPath><g clip-path="url(#clip-390)"><image xlink:href="../../1C04A9DF-18C7-4A3E-8791-F72F3247F06B/assets/D5BAA0E7A80E113D25EB92D00157B4C8.jpeg" width="300.00" height="300.00" transform="matrix(1.00, 0.00, -0.00, -1.00, 517.8, 386.8)"></image><path d="M 517.8 386.8 L 733.5 386.8 L 733.5 335.1 L 517.8 335.1 Z M 517.8 386.8 " fill="#009BFC" fill-opacity="0.50"></path></g></g></g></g><g><clipPath id="clip-391"><path d="M 515.8 335.1 L 735.5 335.1 L 735.5 386.8 L 515.8 386.8 Z M 515.8 335.1 "></path></clipPath><g clip-path="url(#clip-391)"><text xml:space="preserve" font-family="Helvetica-Light" font-size="24.0" fill="#FEFFFE" transform="matrix(1.00, 0.00, -0.00, -1.00, 584.0, 351.0)">n</text><text xml:space="preserve" font-family="Helvetica-Light" font-size="24.0" fill="#FEFFFE" transform="matrix(1.00, 0.00, -0.00, -1.00, 597.3, 351.0)">o</text><text xml:space="preserve" font-family="Helvetica-Light" font-size="24.0" fill="#FEFFFE" transform="matrix(1.00, 0.00, -0.00, -1.00, 610.7, 351.0)">m</text><text xml:space="preserve" font-family="Helvetica-Light" font-size="24.0" fill="#FEFFFE" transform="matrix(1.00, 0.00, -0.00, -1.00, 630.7, 351.0)">i</text><text xml:space="preserve" font-family="Helvetica-Light" font-size="24.0" fill="#FEFFFE" transform="matrix(1.00, 0.00, -0.00, -1.00, 636.0, 351.0)">n</text><text xml:space="preserve" font-family="Helvetica-Light" font-size="24.0" fill="#FEFFFE" transform="matrix(1.00, 0.00, -0.00, -1.00, 649.4, 351.0)">a</text><text xml:space="preserve" font-family="Helvetica-Light" font-size="24.0" fill="#FEFFFE" transform="matrix(1.00, 0.00, -0.00, -1.00, 662.7, 351.0)">l</text></g></g><g><clipPath id="clip-392"><path d="M 782.6 329.4 L 1006.4 329.4 L 1006.4 389.1 L 782.6 389.1 Z M 782.6 329.4 "></path></clipPath><g clip-path="url(#clip-392)"><image xlink:href="../../4199ABF7-1C7E-4789-9BA1-74E6DE75D96B/assets/92AE104018F406905E6D3D2E6C3A3B86.png" width="222.00" height="58.00" transform="matrix(1.00, 0.00, -0.00, -1.00, 783.6, 388.1)" opacity="0.50"></image></g></g><g><clipPath id="clip-393"><path d="M 786.6 387.1 L 1002.4 387.1 L 1002.4 335.4 L 786.6 335.4 Z M 786.6 387.1 "></path></clipPath><g clip-path="url(#clip-393)"><g><clipPath id="clip-394"><path d="M 782.6 329.4 L 1006.4 329.4 L 1006.4 389.1 L 782.6 389.1 Z M 782.6 329.4 "></path></clipPath><g clip-path="url(#clip-394)"><image xlink:href="../../1C04A9DF-18C7-4A3E-8791-F72F3247F06B/assets/D5BAA0E7A80E113D25EB92D00157B4C8.jpeg" width="300.00" height="300.00" transform="matrix(1.00, 0.00, -0.00, -1.00, 786.6, 387.1)"></image><path d="M 786.6 387.1 L 1002.4 387.1 L 1002.4 335.4 L 786.6 335.4 Z M 786.6 387.1 " fill="#009BFC" fill-opacity="0.50"></path></g></g></g></g><g><clipPath id="clip-395"><path d="M 784.6 335.4 L 1004.4 335.4 L 1004.4 387.1 L 784.6 387.1 Z M 784.6 335.4 "></path></clipPath><g clip-path="url(#clip-395)"><text xml:space="preserve" font-family="Helvetica-Light" font-size="24.0" fill="#FEFFFE" transform="matrix(1.00, 0.00, -0.00, -1.00, 858.0, 352.0)">o</text><text xml:space="preserve" font-family="Helvetica-Light" font-size="24.0" fill="#FEFFFE" transform="matrix(1.00, 0.00, -0.00, -1.00, 871.3, 352.0)">r</text><text xml:space="preserve" font-family="Helvetica-Light" font-size="24.0" fill="#FEFFFE" transform="matrix(1.00, 0.00, -0.00, -1.00, 878.9, 352.0)">d</text><text xml:space="preserve" font-family="Helvetica-Light" font-size="24.0" fill="#FEFFFE" transform="matrix(1.00, 0.00, -0.00, -1.00, 893.6, 352.0)">i</text><text xml:space="preserve" font-family="Helvetica-Light" font-size="24.0" fill="#FEFFFE" transform="matrix(1.00, 0.00, -0.00, -1.00, 898.9, 352.0)">n</text><text xml:space="preserve" font-family="Helvetica-Light" font-size="24.0" fill="#FEFFFE" transform="matrix(1.00, 0.00, -0.00, -1.00, 912.2, 352.0)">a</text><text xml:space="preserve" font-family="Helvetica-Light" font-size="24.0" fill="#FEFFFE" transform="matrix(1.00, 0.00, -0.00, -1.00, 925.6, 352.0)">l</text></g></g><path d="M 0.0 0.0 L 113.4 0.0 L 114.4 0.0 " fill="none" stroke="#000000" stroke-width="2.00" transform="matrix(-0.86, -0.51, -0.51, 0.86, 734.4, 451.5)"></path><path d="M 634.7 397.3 L 628.9 388.2 L 639.6 389.1 Z M 634.7 397.3 " fill="#000000"></path><path d="M 0.0 0.0 L 100.5 0.0 L 101.5 0.0 " fill="none" stroke="#000000" stroke-width="2.00" transform="matrix(0.83, -0.56, -0.56, -0.83, 773.4, 453.0)"></path><path d="M 854.3 393.2 L 865.0 391.9 L 859.6 401.2 Z M 854.3 393.2 " fill="#000000"></path><text xml:space="preserve" font-family="Helvetica-Light" font-size="24.0" fill="#525252" transform="matrix(1.00, 0.00, -0.00, -1.00, 785.0, 291.0)">l</text><text xml:space="preserve" font-family="Helvetica-Light" font-size="24.0" fill="#525252" transform="matrix(1.00, 0.00, -0.00, -1.00, 790.3, 291.0)">e</text><text xml:space="preserve" font-family="Helvetica-Light" font-size="24.0" fill="#525252" transform="matrix(1.00, 0.00, -0.00, -1.00, 803.7, 291.0)">v</text><text xml:space="preserve" font-family="Helvetica-Light" font-size="24.0" fill="#525252" transform="matrix(1.00, 0.00, -0.00, -1.00, 815.7, 291.0)">e</text><text xml:space="preserve" font-family="Helvetica-Light" font-size="24.0" fill="#525252" transform="matrix(1.00, 0.00, -0.00, -1.00, 829.0, 291.0)">l</text><text xml:space="preserve" font-family="Helvetica-Light" font-size="24.0" fill="#525252" transform="matrix(1.00, 0.00, -0.00, -1.00, 834.3, 291.0)">s</text><text xml:space="preserve" font-family="Helvetica-Light" font-size="24.0" fill="#525252" transform="matrix(1.00, 0.00, -0.00, -1.00, 846.3, 291.0)"> </text><text xml:space="preserve" font-family="Helvetica-Light" font-size="24.0" fill="#525252" transform="matrix(1.00, 0.00, -0.00, -1.00, 853.0, 291.0)">h</text><text xml:space="preserve" font-family="Helvetica-Light" font-size="24.0" fill="#525252" transform="matrix(1.00, 0.00, -0.00, -1.00, 866.4, 291.0)">a</text><text xml:space="preserve" font-family="Helvetica-Light" font-size="24.0" fill="#525252" transform="matrix(1.00, 0.00, -0.00, -1.00, 879.7, 291.0)">v</text><text xml:space="preserve" font-family="Helvetica-Light" font-size="24.0" fill="#525252" transform="matrix(1.00, 0.00, -0.00, -1.00, 891.7, 291.0)">e</text><text xml:space="preserve" font-family="Helvetica-Light" font-size="24.0" fill="#525252" transform="matrix(1.00, 0.00, -0.00, -1.00, 905.0, 291.0)"> </text><text xml:space="preserve" font-family="Helvetica-Light" font-size="24.0" fill="#525252" transform="matrix(1.00, 0.00, -0.00, -1.00, 911.7, 291.0)">a</text><text xml:space="preserve" font-family="Helvetica-Light" font-size="24.0" fill="#525252" transform="matrix(1.00, 0.00, -0.00, -1.00, 925.1, 291.0)">n</text><text xml:space="preserve" font-family="Helvetica-Light" font-size="24.0" fill="#525252" transform="matrix(1.00, 0.00, -0.00, -1.00, 938.4, 291.0)"> </text><text xml:space="preserve" font-family="Helvetica-Light" font-size="24.0" fill="#525252" transform="matrix(1.00, 0.00, -0.00, -1.00, 785.0, 262.0)">i</text><text xml:space="preserve" font-family="Helvetica-Light" font-size="24.0" fill="#525252" transform="matrix(1.00, 0.00, -0.00, -1.00, 790.3, 262.0)">n</text><text xml:space="preserve" font-family="Helvetica-Light" font-size="24.0" fill="#525252" transform="matrix(1.00, 0.00, -0.00, -1.00, 803.7, 262.0)">h</text><text xml:space="preserve" font-family="Helvetica-Light" font-size="24.0" fill="#525252" transform="matrix(1.00, 0.00, -0.00, -1.00, 817.0, 262.0)">e</text><text xml:space="preserve" font-family="Helvetica-Light" font-size="24.0" fill="#525252" transform="matrix(1.00, 0.00, -0.00, -1.00, 830.4, 262.0)">r</text><text xml:space="preserve" font-family="Helvetica-Light" font-size="24.0" fill="#525252" transform="matrix(1.00, 0.00, -0.00, -1.00, 837.9, 262.0)">e</text><text xml:space="preserve" font-family="Helvetica-Light" font-size="24.0" fill="#525252" transform="matrix(1.00, 0.00, -0.00, -1.00, 851.3, 262.0)">n</text><text xml:space="preserve" font-family="Helvetica-Light" font-size="24.0" fill="#525252" transform="matrix(1.00, 0.00, -0.00, -1.00, 864.6, 262.0)">t</text><text xml:space="preserve" font-family="Helvetica-Light" font-size="24.0" fill="#525252" transform="matrix(1.00, 0.00, -0.00, -1.00, 871.3, 262.0)"> </text><text xml:space="preserve" font-family="Helvetica-Light" font-size="24.0" fill="#525252" transform="matrix(1.00, 0.00, -0.00, -1.00, 878.0, 262.0)">o</text><text xml:space="preserve" font-family="Helvetica-Light" font-size="24.0" fill="#525252" transform="matrix(1.00, 0.00, -0.00, -1.00, 891.3, 262.0)">r</text><text xml:space="preserve" font-family="Helvetica-Light" font-size="24.0" fill="#525252" transform="matrix(1.00, 0.00, -0.00, -1.00, 898.9, 262.0)">d</text><text xml:space="preserve" font-family="Helvetica-Light" font-size="24.0" fill="#525252" transform="matrix(1.00, 0.00, -0.00, -1.00, 913.5, 262.0)">e</text><text xml:space="preserve" font-family="Helvetica-Light" font-size="24.0" fill="#525252" transform="matrix(1.00, 0.00, -0.00, -1.00, 926.9, 262.0)">r</text><text xml:space="preserve" font-family="Helvetica-Light" font-size="24.0" fill="#525252" transform="matrix(1.00, 0.00, -0.00, -1.00, 934.9, 262.0)">i</text><text xml:space="preserve" font-family="Helvetica-Light" font-size="24.0" fill="#525252" transform="matrix(1.00, 0.00, -0.00, -1.00, 940.2, 262.0)">n</text><text xml:space="preserve" font-family="Helvetica-Light" font-size="24.0" fill="#525252" transform="matrix(1.00, 0.00, -0.00, -1.00, 953.5, 262.0)">g</text><text xml:space="preserve" font-family="Helvetica-Light" font-size="15.0" fill="#C5273B" transform="matrix(1.00, 0.00, -0.00, -1.00, 791.4, 201.4)">•</text><text xml:space="preserve" font-family="Helvetica-Light" font-size="20.0" fill="#C5273B" transform="matrix(1.00, 0.00, -0.00, -1.00, 815.0, 200.0)">S</text><text xml:space="preserve" font-family="Helvetica-Light" font-size="20.0" fill="#C5273B" transform="matrix(1.00, 0.00, -0.00, -1.00, 827.2, 200.0)">t</text><text xml:space="preserve" font-family="Helvetica-Light" font-size="20.0" fill="#C5273B" transform="matrix(1.00, 0.00, -0.00, -1.00, 832.8, 200.0)">r</text><text xml:space="preserve" font-family="Helvetica-Light" font-size="20.0" fill="#C5273B" transform="matrix(1.00, 0.00, -0.00, -1.00, 839.1, 200.0)">o</text><text xml:space="preserve" font-family="Helvetica-Light" font-size="20.0" fill="#C5273B" transform="matrix(1.00, 0.00, -0.00, -1.00, 850.2, 200.0)">n</text><text xml:space="preserve" font-family="Helvetica-Light" font-size="20.0" fill="#C5273B" transform="matrix(1.00, 0.00, -0.00, -1.00, 861.3, 200.0)">g</text><text xml:space="preserve" font-family="Helvetica-Light" font-size="20.0" fill="#C5273B" transform="matrix(1.00, 0.00, -0.00, -1.00, 873.5, 200.0)">l</text><text xml:space="preserve" font-family="Helvetica-Light" font-size="20.0" fill="#C5273B" transform="matrix(1.00, 0.00, -0.00, -1.00, 878.0, 200.0)">y</text><text xml:space="preserve" font-family="Helvetica-Light" font-size="20.0" fill="#C5273B" transform="matrix(1.00, 0.00, -0.00, -1.00, 888.0, 200.0)"> </text><text xml:space="preserve" font-family="Helvetica-Light" font-size="20.0" fill="#C5273B" transform="matrix(1.00, 0.00, -0.00, -1.00, 893.5, 200.0)">A</text><text xml:space="preserve" font-family="Helvetica-Light" font-size="20.0" fill="#C5273B" transform="matrix(1.00, 0.00, -0.00, -1.00, 906.9, 200.0)">g</text><text xml:space="preserve" font-family="Helvetica-Light" font-size="20.0" fill="#C5273B" transform="matrix(1.00, 0.00, -0.00, -1.00, 919.1, 200.0)">r</text><text xml:space="preserve" font-family="Helvetica-Light" font-size="20.0" fill="#C5273B" transform="matrix(1.00, 0.00, -0.00, -1.00, 925.4, 200.0)">e</text><text xml:space="preserve" font-family="Helvetica-Light" font-size="20.0" fill="#C5273B" transform="matrix(1.00, 0.00, -0.00, -1.00, 936.5, 200.0)">e</text><text xml:space="preserve" font-family="Helvetica-Light" font-size="20.0" fill="#C5273B" transform="matrix(1.00, 0.00, -0.00, -1.00, 947.6, 200.0)"> </text><text xml:space="preserve" font-family="Helvetica-Light" font-size="15.0" fill="#C5273B" transform="matrix(1.00, 0.00, -0.00, -1.00, 791.4, 177.4)">•</text><text xml:space="preserve" font-family="Helvetica-Light" font-size="20.0" fill="#C5273B" transform="matrix(1.00, 0.00, -0.00, -1.00, 815.0, 176.0)">A</text><text xml:space="preserve" font-family="Helvetica-Light" font-size="20.0" fill="#C5273B" transform="matrix(1.00, 0.00, -0.00, -1.00, 828.3, 176.0)">g</text><text xml:space="preserve" font-family="Helvetica-Light" font-size="20.0" fill="#C5273B" transform="matrix(1.00, 0.00, -0.00, -1.00, 840.6, 176.0)">r</text><text xml:space="preserve" font-family="Helvetica-Light" font-size="20.0" fill="#C5273B" transform="matrix(1.00, 0.00, -0.00, -1.00, 846.9, 176.0)">e</text><text xml:space="preserve" font-family="Helvetica-Light" font-size="20.0" fill="#C5273B" transform="matrix(1.00, 0.00, -0.00, -1.00, 858.0, 176.0)">e</text><text xml:space="preserve" font-family="Helvetica-Light" font-size="20.0" fill="#C5273B" transform="matrix(1.00, 0.00, -0.00, -1.00, 869.1, 176.0)"> </text><text xml:space="preserve" font-family="Helvetica-Light" font-size="20.0" fill="#C5273B" transform="matrix(1.00, 0.00, -0.00, -1.00, 874.7, 176.0)"> </text><text xml:space="preserve" font-family="Helvetica-Light" font-size="15.0" fill="#C5273B" transform="matrix(1.00, 0.00, -0.00, -1.00, 791.4, 153.4)">•</text><text xml:space="preserve" font-family="Helvetica-Light" font-size="20.0" fill="#C5273B" transform="matrix(1.00, 0.00, -0.00, -1.00, 815.0, 152.0)">N</text><text xml:space="preserve" font-family="Helvetica-Light" font-size="20.0" fill="#C5273B" transform="matrix(1.00, 0.00, -0.00, -1.00, 829.4, 152.0)">e</text><text xml:space="preserve" font-family="Helvetica-Light" font-size="20.0" fill="#C5273B" transform="matrix(1.00, 0.00, -0.00, -1.00, 840.6, 152.0)">u</text><text xml:space="preserve" font-family="Helvetica-Light" font-size="20.0" fill="#C5273B" transform="matrix(1.00, 0.00, -0.00, -1.00, 851.7, 152.0)">t</text><text xml:space="preserve" font-family="Helvetica-Light" font-size="20.0" fill="#C5273B" transform="matrix(1.00, 0.00, -0.00, -1.00, 857.2, 152.0)">r</text><text xml:space="preserve" font-family="Helvetica-Light" font-size="20.0" fill="#C5273B" transform="matrix(1.00, 0.00, -0.00, -1.00, 863.9, 152.0)">a</text><text xml:space="preserve" font-family="Helvetica-Light" font-size="20.0" fill="#C5273B" transform="matrix(1.00, 0.00, -0.00, -1.00, 875.0, 152.0)">l</text><text xml:space="preserve" font-family="Helvetica-Light" font-size="20.0" fill="#C5273B" transform="matrix(1.00, 0.00, -0.00, -1.00, 879.5, 152.0)"> </text><text xml:space="preserve" font-family="Helvetica-Light" font-size="15.0" fill="#C5273B" transform="matrix(1.00, 0.00, -0.00, -1.00, 791.4, 129.4)">•</text><text xml:space="preserve" font-family="Helvetica-Light" font-size="20.0" fill="#C5273B" transform="matrix(1.00, 0.00, -0.00, -1.00, 815.0, 128.0)">D</text><text xml:space="preserve" font-family="Helvetica-Light" font-size="20.0" fill="#C5273B" transform="matrix(1.00, 0.00, -0.00, -1.00, 829.4, 128.0)">i</text><text xml:space="preserve" font-family="Helvetica-Light" font-size="20.0" fill="#C5273B" transform="matrix(1.00, 0.00, -0.00, -1.00, 833.9, 128.0)">s</text><text xml:space="preserve" font-family="Helvetica-Light" font-size="20.0" fill="#C5273B" transform="matrix(1.00, 0.00, -0.00, -1.00, 843.9, 128.0)">a</text><text xml:space="preserve" font-family="Helvetica-Light" font-size="20.0" fill="#C5273B" transform="matrix(1.00, 0.00, -0.00, -1.00, 855.0, 128.0)">g</text><text xml:space="preserve" font-family="Helvetica-Light" font-size="20.0" fill="#C5273B" transform="matrix(1.00, 0.00, -0.00, -1.00, 867.2, 128.0)">r</text><text xml:space="preserve" font-family="Helvetica-Light" font-size="20.0" fill="#C5273B" transform="matrix(1.00, 0.00, -0.00, -1.00, 873.5, 128.0)">e</text><text xml:space="preserve" font-family="Helvetica-Light" font-size="20.0" fill="#C5273B" transform="matrix(1.00, 0.00, -0.00, -1.00, 884.6, 128.0)">e</text><text xml:space="preserve" font-family="Helvetica-Light" font-size="20.0" fill="#C5273B" transform="matrix(1.00, 0.00, -0.00, -1.00, 895.8, 128.0)"> </text><text xml:space="preserve" font-family="Helvetica-Light" font-size="15.0" fill="#C5273B" transform="matrix(1.00, 0.00, -0.00, -1.00, 791.4, 105.4)">•</text><text xml:space="preserve" font-family="Helvetica-Light" font-size="20.0" fill="#C5273B" transform="matrix(1.00, 0.00, -0.00, -1.00, 815.0, 104.0)">S</text><text xml:space="preserve" font-family="Helvetica-Light" font-size="20.0" fill="#C5273B" transform="matrix(1.00, 0.00, -0.00, -1.00, 827.2, 104.0)">t</text><text xml:space="preserve" font-family="Helvetica-Light" font-size="20.0" fill="#C5273B" transform="matrix(1.00, 0.00, -0.00, -1.00, 832.8, 104.0)">r</text><text xml:space="preserve" font-family="Helvetica-Light" font-size="20.0" fill="#C5273B" transform="matrix(1.00, 0.00, -0.00, -1.00, 839.1, 104.0)">o</text><text xml:space="preserve" font-family="Helvetica-Light" font-size="20.0" fill="#C5273B" transform="matrix(1.00, 0.00, -0.00, -1.00, 850.2, 104.0)">n</text><text xml:space="preserve" font-family="Helvetica-Light" font-size="20.0" fill="#C5273B" transform="matrix(1.00, 0.00, -0.00, -1.00, 861.3, 104.0)">g</text><text xml:space="preserve" font-family="Helvetica-Light" font-size="20.0" fill="#C5273B" transform="matrix(1.00, 0.00, -0.00, -1.00, 873.5, 104.0)">l</text><text xml:space="preserve" font-family="Helvetica-Light" font-size="20.0" fill="#C5273B" transform="matrix(1.00, 0.00, -0.00, -1.00, 878.0, 104.0)">y</text><text xml:space="preserve" font-family="Helvetica-Light" font-size="20.0" fill="#C5273B" transform="matrix(1.00, 0.00, -0.00, -1.00, 888.0, 104.0)"> </text><text xml:space="preserve" font-family="Helvetica-Light" font-size="20.0" fill="#C5273B" transform="matrix(1.00, 0.00, -0.00, -1.00, 893.5, 104.0)">D</text><text xml:space="preserve" font-family="Helvetica-Light" font-size="20.0" fill="#C5273B" transform="matrix(1.00, 0.00, -0.00, -1.00, 908.0, 104.0)">i</text><text xml:space="preserve" font-family="Helvetica-Light" font-size="20.0" fill="#C5273B" transform="matrix(1.00, 0.00, -0.00, -1.00, 912.4, 104.0)">s</text><text xml:space="preserve" font-family="Helvetica-Light" font-size="20.0" fill="#C5273B" transform="matrix(1.00, 0.00, -0.00, -1.00, 922.4, 104.0)">a</text><text xml:space="preserve" font-family="Helvetica-Light" font-size="20.0" fill="#C5273B" transform="matrix(1.00, 0.00, -0.00, -1.00, 933.5, 104.0)">g</text><text xml:space="preserve" font-family="Helvetica-Light" font-size="20.0" fill="#C5273B" transform="matrix(1.00, 0.00, -0.00, -1.00, 945.8, 104.0)">r</text><text xml:space="preserve" font-family="Helvetica-Light" font-size="20.0" fill="#C5273B" transform="matrix(1.00, 0.00, -0.00, -1.00, 952.1, 104.0)">e</text><text xml:space="preserve" font-family="Helvetica-Light" font-size="20.0" fill="#C5273B" transform="matrix(1.00, 0.00, -0.00, -1.00, 963.2, 104.0)">e</text><text xml:space="preserve" font-family="Helvetica-Light" font-size="24.0" fill="#525252" transform="matrix(1.00, 0.00, -0.00, -1.00, 524.0, 296.0)">o</text><text xml:space="preserve" font-family="Helvetica-Light" font-size="24.0" fill="#525252" transform="matrix(1.00, 0.00, -0.00, -1.00, 537.3, 296.0)">n</text><text xml:space="preserve" font-family="Helvetica-Light" font-size="24.0" fill="#525252" transform="matrix(1.00, 0.00, -0.00, -1.00, 550.7, 296.0)">l</text><text xml:space="preserve" font-family="Helvetica-Light" font-size="24.0" fill="#525252" transform="matrix(1.00, 0.00, -0.00, -1.00, 556.0, 296.0)">y</text><text xml:space="preserve" font-family="Helvetica-Light" font-size="24.0" fill="#525252" transform="matrix(1.00, 0.00, -0.00, -1.00, 568.0, 296.0)"> </text><text xml:space="preserve" font-family="Helvetica-Light" font-size="24.0" fill="#525252" transform="matrix(1.00, 0.00, -0.00, -1.00, 574.7, 296.0)">a</text><text xml:space="preserve" font-family="Helvetica-Light" font-size="24.0" fill="#525252" transform="matrix(1.00, 0.00, -0.00, -1.00, 588.0, 296.0)">s</text><text xml:space="preserve" font-family="Helvetica-Light" font-size="24.0" fill="#525252" transform="matrix(1.00, 0.00, -0.00, -1.00, 600.0, 296.0)">s</text><text xml:space="preserve" font-family="Helvetica-Light" font-size="24.0" fill="#525252" transform="matrix(1.00, 0.00, -0.00, -1.00, 612.0, 296.0)">i</text><text xml:space="preserve" font-family="Helvetica-Light" font-size="24.0" fill="#525252" transform="matrix(1.00, 0.00, -0.00, -1.00, 617.4, 296.0)">g</text><text xml:space="preserve" font-family="Helvetica-Light" font-size="24.0" fill="#525252" transform="matrix(1.00, 0.00, -0.00, -1.00, 632.0, 296.0)">n</text><text xml:space="preserve" font-family="Helvetica-Light" font-size="24.0" fill="#525252" transform="matrix(1.00, 0.00, -0.00, -1.00, 645.4, 296.0)">s</text><text xml:space="preserve" font-family="Helvetica-Light" font-size="24.0" fill="#525252" transform="matrix(1.00, 0.00, -0.00, -1.00, 657.4, 296.0)"> </text><text xml:space="preserve" font-family="Helvetica-Light" font-size="24.0" fill="#525252" transform="matrix(1.00, 0.00, -0.00, -1.00, 664.0, 296.0)">t</text><text xml:space="preserve" font-family="Helvetica-Light" font-size="24.0" fill="#525252" transform="matrix(1.00, 0.00, -0.00, -1.00, 670.7, 296.0)">o</text><text xml:space="preserve" font-family="Helvetica-Light" font-size="24.0" fill="#525252" transform="matrix(1.00, 0.00, -0.00, -1.00, 684.1, 296.0)"> </text><text xml:space="preserve" font-family="Helvetica-Light" font-size="24.0" fill="#525252" transform="matrix(1.00, 0.00, -0.00, -1.00, 690.7, 296.0)">a</text><text xml:space="preserve" font-family="Helvetica-Light" font-size="24.0" fill="#525252" transform="matrix(1.00, 0.00, -0.00, -1.00, 704.1, 296.0)"> </text><text xml:space="preserve" font-family="Helvetica-Light" font-size="24.0" fill="#525252" transform="matrix(1.00, 0.00, -0.00, -1.00, 524.0, 267.0)">c</text><text xml:space="preserve" font-family="Helvetica-Light" font-size="24.0" fill="#525252" transform="matrix(1.00, 0.00, -0.00, -1.00, 537.3, 267.0)">a</text><text xml:space="preserve" font-family="Helvetica-Light" font-size="24.0" fill="#525252" transform="matrix(1.00, 0.00, -0.00, -1.00, 550.7, 267.0)">t</text><text xml:space="preserve" font-family="Helvetica-Light" font-size="24.0" fill="#525252" transform="matrix(1.00, 0.00, -0.00, -1.00, 557.4, 267.0)">e</text><text xml:space="preserve" font-family="Helvetica-Light" font-size="24.0" fill="#525252" transform="matrix(1.00, 0.00, -0.00, -1.00, 570.7, 267.0)">g</text><text xml:space="preserve" font-family="Helvetica-Light" font-size="24.0" fill="#525252" transform="matrix(1.00, 0.00, -0.00, -1.00, 585.4, 267.0)">o</text><text xml:space="preserve" font-family="Helvetica-Light" font-size="24.0" fill="#525252" transform="matrix(1.00, 0.00, -0.00, -1.00, 598.7, 267.0)">r</text><text xml:space="preserve" font-family="Helvetica-Light" font-size="24.0" fill="#525252" transform="matrix(1.00, 0.00, -0.00, -1.00, 607.1, 267.0)">y</text><text xml:space="preserve" font-family="Helvetica-Light" font-size="15.0" fill="#C5273B" transform="matrix(1.00, 0.00, -0.00, -1.00, 537.1, 207.3)">•</text><text xml:space="preserve" font-family="Helvetica-Light" font-size="20.0" fill="#C5273B" transform="matrix(1.00, 0.00, -0.00, -1.00, 560.0, 205.0)">M</text><text xml:space="preserve" font-family="Helvetica-Light" font-size="20.0" fill="#C5273B" transform="matrix(1.00, 0.00, -0.00, -1.00, 576.7, 205.0)">a</text><text xml:space="preserve" font-family="Helvetica-Light" font-size="20.0" fill="#C5273B" transform="matrix(1.00, 0.00, -0.00, -1.00, 587.8, 205.0)">l</text><text xml:space="preserve" font-family="Helvetica-Light" font-size="20.0" fill="#C5273B" transform="matrix(1.00, 0.00, -0.00, -1.00, 592.2, 205.0)">e</text><text xml:space="preserve" font-family="Helvetica-Light" font-size="20.0" fill="#C5273B" transform="matrix(1.00, 0.00, -0.00, -1.00, 603.3, 205.0)"> </text><text xml:space="preserve" font-family="Helvetica-Light" font-size="15.0" fill="#C5273B" transform="matrix(1.00, 0.00, -0.00, -1.00, 537.1, 183.3)">•</text><text xml:space="preserve" font-family="Helvetica-Light" font-size="20.0" fill="#C5273B" transform="matrix(1.00, 0.00, -0.00, -1.00, 560.0, 181.0)">F</text><text xml:space="preserve" font-family="Helvetica-Light" font-size="20.0" fill="#C5273B" transform="matrix(1.00, 0.00, -0.00, -1.00, 571.1, 181.0)">e</text><text xml:space="preserve" font-family="Helvetica-Light" font-size="20.0" fill="#C5273B" transform="matrix(1.00, 0.00, -0.00, -1.00, 582.2, 181.0)">m</text><text xml:space="preserve" font-family="Helvetica-Light" font-size="20.0" fill="#C5273B" transform="matrix(1.00, 0.00, -0.00, -1.00, 598.9, 181.0)">a</text><text xml:space="preserve" font-family="Helvetica-Light" font-size="20.0" fill="#C5273B" transform="matrix(1.00, 0.00, -0.00, -1.00, 610.0, 181.0)">l</text><text xml:space="preserve" font-family="Helvetica-Light" font-size="20.0" fill="#C5273B" transform="matrix(1.00, 0.00, -0.00, -1.00, 614.5, 181.0)">e</text></g></svg>