<?xml version="1.0" encoding="UTF-8" standalone="no"?><svg xmlns="http://www.w3.org/2000/svg" xmlns:xlink="http://www.w3.org/1999/xlink" clip-rule="evenodd" stroke-miterlimit="4.00" viewBox="0 0 456 47"><desc>SVG generated by Keynote</desc><defs></defs><g transform="matrix(1.00, 0.00, -0.00, -1.00, 0.0, 47.0)"><text xml:space="preserve" font-family="Handwriting-Dakota" font-size="36.0" fill="#0264C0" transform="matrix(1.00, 0.00, -0.00, -1.00, -1.0, 17.0)">G</text><text xml:space="preserve" font-family="Handwriting-Dakota" font-size="36.0" fill="#0264C0" transform="matrix(1.00, 0.00, -0.00, -1.00, 28.5, 17.0)">P</text><text xml:space="preserve" font-family="Handwriting-Dakota" font-size="36.0" fill="#0264C0" transform="matrix(1.00, 0.00, -0.00, -1.00, 51.9, 17.0)">A</text><text xml:space="preserve" font-family="Handwriting-Dakota" font-size="36.0" fill="#0264C0" transform="matrix(1.00, 0.00, -0.00, -1.00, 78.0, 17.0)">,</text><text xml:space="preserve" font-family="Handwriting-Dakota" font-size="36.0" fill="#0264C0" transform="matrix(1.00, 0.00, -0.00, -1.00, 87.1, 17.0)"> </text><text xml:space="preserve" font-family="Handwriting-Dakota" font-size="36.0" fill="#0264C0" transform="matrix(1.00, 0.00, -0.00, -1.00, 102.4, 17.0)">b</text><text xml:space="preserve" font-family="Handwriting-Dakota" font-size="36.0" fill="#0264C0" transform="matrix(1.00, 0.00, -0.00, -1.00, 122.7, 17.0)">e</text><text xml:space="preserve" font-family="Handwriting-Dakota" font-size="36.0" fill="#0264C0" transform="matrix(1.00, 0.00, -0.00, -1.00, 140.3, 17.0)">t</text><text xml:space="preserve" font-family="Handwriting-Dakota" font-size="36.0" fill="#0264C0" transform="matrix(1.00, 0.00, -0.00, -1.00, 157.2, 17.0)">t</text><text xml:space="preserve" font-family="Handwriting-Dakota" font-size="36.0" fill="#0264C0" transform="matrix(1.00, 0.00, -0.00, -1.00, 174.1, 17.0)">i</text><text xml:space="preserve" font-family="Handwriting-Dakota" font-size="36.0" fill="#0264C0" transform="matrix(1.00, 0.00, -0.00, -1.00, 183.6, 17.0)">n</text><text xml:space="preserve" font-family="Handwriting-Dakota" font-size="36.0" fill="#0264C0" transform="matrix(1.00, 0.00, -0.00, -1.00, 202.3, 17.0)">g</text><text xml:space="preserve" font-family="Handwriting-Dakota" font-size="36.0" fill="#0264C0" transform="matrix(1.00, 0.00, -0.00, -1.00, 218.5, 17.0)"> </text><text xml:space="preserve" font-family="Handwriting-Dakota" font-size="36.0" fill="#0264C0" transform="matrix(1.00, 0.00, -0.00, -1.00, 233.8, 17.0)">a</text><text xml:space="preserve" font-family="Handwriting-Dakota" font-size="36.0" fill="#0264C0" transform="matrix(1.00, 0.00, -0.00, -1.00, 250.9, 17.0)">v</text><text xml:space="preserve" font-family="Handwriting-Dakota" font-size="36.0" fill="#0264C0" transform="matrix(1.00, 0.00, -0.00, -1.00, 264.8, 17.0)">e</text><text xml:space="preserve" font-family="Handwriting-Dakota" font-size="36.0" fill="#0264C0" transform="matrix(1.00, 0.00, -0.00, -1.00, 282.4, 17.0)">r</text><text xml:space="preserve" font-family="Handwriting-Dakota" font-size="36.0" fill="#0264C0" transform="matrix(1.00, 0.00, -0.00, -1.00, 298.3, 17.0)">a</text><text xml:space="preserve" font-family="Handwriting-Dakota" font-size="36.0" fill="#0264C0" transform="matrix(1.00, 0.00, -0.00, -1.00, 315.5, 17.0)">g</text><text xml:space="preserve" font-family="Handwriting-Dakota" font-size="36.0" fill="#0264C0" transform="matrix(1.00, 0.00, -0.00, -1.00, 331.8, 17.0)">e</text><text xml:space="preserve" font-family="Handwriting-Dakota" font-size="36.0" fill="#0264C0" transform="matrix(1.00, 0.00, -0.00, -1.00, 349.4, 17.0)">,</text><text xml:space="preserve" font-family="Handwriting-Dakota" font-size="36.0" fill="#0264C0" transform="matrix(1.00, 0.00, -0.00, -1.00, 358.5, 17.0)"> </text><text xml:space="preserve" font-family="Handwriting-Dakota" font-size="36.0" fill="#0264C0" transform="matrix(1.00, 0.00, -0.00, -1.00, 373.8, 17.0)">G</text><text xml:space="preserve" font-family="Handwriting-Dakota" font-size="36.0" fill="#0264C0" transform="matrix(1.00, 0.00, -0.00, -1.00, 403.2, 17.0)">D</text><text xml:space="preserve" font-family="Handwriting-Dakota" font-size="36.0" fill="#0264C0" transform="matrix(1.00, 0.00, -0.00, -1.00, 427.7, 17.0)">P</text></g></svg>