<?xml version="1.0" encoding="UTF-8" standalone="no"?><svg xmlns="http://www.w3.org/2000/svg" xmlns:xlink="http://www.w3.org/1999/xlink" clip-rule="evenodd" stroke-miterlimit="4.00" viewBox="0 0 1024 768"><desc>SVG generated by Keynote</desc><defs></defs><g transform="matrix(1.00, 0.00, -0.00, -1.00, 0.0, 768.0)"><path d="M 0.0 768.0 L 1024.0 768.0 L 1024.0 0.0 L 0.0 0.0 Z M 0.0 768.0 " fill="#FEFFFF"></path><text xml:space="preserve" font-family="Helvetica-Light" font-size="80.0" fill="#000000" transform="matrix(1.00, 0.00, -0.00, -1.00, 281.0, 618.0)">C</text><text xml:space="preserve" font-family="Helvetica-Light" font-size="80.0" fill="#000000" transform="matrix(1.00, 0.00, -0.00, -1.00, 338.8, 618.0)">o</text><text xml:space="preserve" font-family="Helvetica-Light" font-size="80.0" fill="#000000" transform="matrix(1.00, 0.00, -0.00, -1.00, 383.2, 618.0)">u</text><text xml:space="preserve" font-family="Helvetica-Light" font-size="80.0" fill="#000000" transform="matrix(1.00, 0.00, -0.00, -1.00, 427.7, 618.0)">r</text><text xml:space="preserve" font-family="Helvetica-Light" font-size="80.0" fill="#000000" transform="matrix(1.00, 0.00, -0.00, -1.00, 454.4, 618.0)">s</text><text xml:space="preserve" font-family="Helvetica-Light" font-size="80.0" fill="#000000" transform="matrix(1.00, 0.00, -0.00, -1.00, 494.4, 618.0)">e</text><text xml:space="preserve" font-family="Helvetica-Light" font-size="80.0" fill="#000000" transform="matrix(1.00, 0.00, -0.00, -1.00, 538.8, 618.0)"> </text><text xml:space="preserve" font-family="Helvetica-Light" font-size="80.0" fill="#000000" transform="matrix(1.00, 0.00, -0.00, -1.00, 561.1, 618.0)">B</text><text xml:space="preserve" font-family="Helvetica-Light" font-size="80.0" fill="#000000" transform="matrix(1.00, 0.00, -0.00, -1.00, 614.4, 618.0)">o</text><text xml:space="preserve" font-family="Helvetica-Light" font-size="80.0" fill="#000000" transform="matrix(1.00, 0.00, -0.00, -1.00, 658.9, 618.0)">o</text><text xml:space="preserve" font-family="Helvetica-Light" font-size="80.0" fill="#000000" transform="matrix(1.00, 0.00, -0.00, -1.00, 703.4, 618.0)">k</text><text xml:space="preserve" font-family="Helvetica-Light" font-size="21.6" fill="#000000" transform="matrix(1.00, 0.00, -0.00, -1.00, 506.2, 561.8)">•</text><text xml:space="preserve" font-family="Helvetica-Light" font-size="28.8" fill="#000000" transform="matrix(1.00, 0.00, -0.00, -1.00, 534.0, 559.0)">T</text><text xml:space="preserve" font-family="Helvetica-Light" font-size="28.8" fill="#000000" transform="matrix(1.00, 0.00, -0.00, -1.00, 546.8, 559.0)">e</text><text xml:space="preserve" font-family="Helvetica-Light" font-size="28.8" fill="#000000" transform="matrix(1.00, 0.00, -0.00, -1.00, 562.8, 559.0)">x</text><text xml:space="preserve" font-family="Helvetica-Light" font-size="28.8" fill="#000000" transform="matrix(1.00, 0.00, -0.00, -1.00, 577.2, 559.0)">t</text><text xml:space="preserve" font-family="Helvetica-Light" font-size="28.8" fill="#000000" transform="matrix(1.00, 0.00, -0.00, -1.00, 585.2, 559.0)">:</text><text xml:space="preserve" font-family="Helvetica-Light" font-size="28.8" fill="#000000" transform="matrix(1.00, 0.00, -0.00, -1.00, 593.2, 559.0)"> </text><text xml:space="preserve" font-family="LucidaGrande" font-size="28.8" fill="#000000" transform="matrix(1.00, 0.00, -0.00, -1.00, 601.2, 559.0)"> </text><text xml:space="preserve" font-family="Helvetica-Light" font-size="28.8" fill="#3B5274" transform="matrix(1.00, 0.00, -0.00, -1.00, 534.0, 524.0)">B</text><text xml:space="preserve" font-family="Helvetica-Light" font-size="28.8" fill="#3B5274" transform="matrix(1.00, 0.00, -0.00, -1.00, 553.2, 524.0)">u</text><text xml:space="preserve" font-family="Helvetica-Light" font-size="28.8" fill="#3B5274" transform="matrix(1.00, 0.00, -0.00, -1.00, 569.2, 524.0)">s</text><text xml:space="preserve" font-family="Helvetica-Light" font-size="28.8" fill="#3B5274" transform="matrix(1.00, 0.00, -0.00, -1.00, 583.6, 524.0)">i</text><text xml:space="preserve" font-family="Helvetica-Light" font-size="28.8" fill="#3B5274" transform="matrix(1.00, 0.00, -0.00, -1.00, 590.0, 524.0)">n</text><text xml:space="preserve" font-family="Helvetica-Light" font-size="28.8" fill="#3B5274" transform="matrix(1.00, 0.00, -0.00, -1.00, 606.0, 524.0)">e</text><text xml:space="preserve" font-family="Helvetica-Light" font-size="28.8" fill="#3B5274" transform="matrix(1.00, 0.00, -0.00, -1.00, 622.0, 524.0)">s</text><text xml:space="preserve" font-family="Helvetica-Light" font-size="28.8" fill="#3B5274" transform="matrix(1.00, 0.00, -0.00, -1.00, 636.4, 524.0)">s</text><text xml:space="preserve" font-family="Helvetica-Light" font-size="28.8" fill="#3B5274" transform="matrix(1.00, 0.00, -0.00, -1.00, 650.8, 524.0)"> </text><text xml:space="preserve" font-family="Helvetica-Light" font-size="28.8" fill="#3B5274" transform="matrix(1.00, 0.00, -0.00, -1.00, 658.8, 524.0)">S</text><text xml:space="preserve" font-family="Helvetica-Light" font-size="28.8" fill="#3B5274" transform="matrix(1.00, 0.00, -0.00, -1.00, 676.4, 524.0)">t</text><text xml:space="preserve" font-family="Helvetica-Light" font-size="28.8" fill="#3B5274" transform="matrix(1.00, 0.00, -0.00, -1.00, 684.5, 524.0)">a</text><text xml:space="preserve" font-family="Helvetica-Light" font-size="28.8" fill="#3B5274" transform="matrix(1.00, 0.00, -0.00, -1.00, 700.5, 524.0)">t</text><text xml:space="preserve" font-family="Helvetica-Light" font-size="28.8" fill="#3B5274" transform="matrix(1.00, 0.00, -0.00, -1.00, 708.5, 524.0)">i</text><text xml:space="preserve" font-family="Helvetica-Light" font-size="28.8" fill="#3B5274" transform="matrix(1.00, 0.00, -0.00, -1.00, 714.9, 524.0)">s</text><text xml:space="preserve" font-family="Helvetica-Light" font-size="28.8" fill="#3B5274" transform="matrix(1.00, 0.00, -0.00, -1.00, 729.3, 524.0)">t</text><text xml:space="preserve" font-family="Helvetica-Light" font-size="28.8" fill="#3B5274" transform="matrix(1.00, 0.00, -0.00, -1.00, 737.3, 524.0)">i</text><text xml:space="preserve" font-family="Helvetica-Light" font-size="28.8" fill="#3B5274" transform="matrix(1.00, 0.00, -0.00, -1.00, 743.7, 524.0)">c</text><text xml:space="preserve" font-family="Helvetica-Light" font-size="28.8" fill="#3B5274" transform="matrix(1.00, 0.00, -0.00, -1.00, 759.7, 524.0)">s</text><text xml:space="preserve" font-family="Helvetica-Light" font-size="28.8" fill="#3B5274" transform="matrix(1.00, 0.00, -0.00, -1.00, 774.1, 524.0)">,</text><text xml:space="preserve" font-family="Helvetica-Light" font-size="28.8" fill="#3B5274" transform="matrix(1.00, 0.00, -0.00, -1.00, 782.1, 524.0)"> </text><text xml:space="preserve" font-family="Helvetica-Light" font-size="28.8" fill="#3B5274" transform="matrix(1.00, 0.00, -0.00, -1.00, 790.1, 524.0)">8</text><text xml:space="preserve" font-family="Helvetica-Light" font-size="19.2" fill="#3B5274" transform="matrix(1.00, 0.00, -0.00, -1.00, 806.1, 536.4)">t</text><text xml:space="preserve" font-family="Helvetica-Light" font-size="19.2" fill="#3B5274" transform="matrix(1.00, 0.00, -0.00, -1.00, 811.4, 536.4)">h</text><text xml:space="preserve" font-family="Helvetica-Light" font-size="28.8" fill="#3B5274" transform="matrix(1.00, 0.00, -0.00, -1.00, 822.1, 524.0)"> </text><text xml:space="preserve" font-family="Helvetica-Light" font-size="28.8" fill="#3B5274" transform="matrix(1.00, 0.00, -0.00, -1.00, 830.1, 524.0)">e</text><text xml:space="preserve" font-family="Helvetica-Light" font-size="28.8" fill="#3B5274" transform="matrix(1.00, 0.00, -0.00, -1.00, 846.1, 524.0)">d</text><text xml:space="preserve" font-family="Helvetica-Light" font-size="28.8" fill="#3B5274" transform="matrix(1.00, 0.00, -0.00, -1.00, 863.7, 524.0)">.</text><text xml:space="preserve" font-family="LucidaGrande" font-size="28.8" fill="#3B5274" transform="matrix(1.00, 0.00, -0.00, -1.00, 871.7, 524.0)"> </text><text xml:space="preserve" font-family="Helvetica-Light" font-size="28.8" fill="#3B5274" transform="matrix(1.00, 0.00, -0.00, -1.00, 534.0, 489.0)">b</text><text xml:space="preserve" font-family="Helvetica-Light" font-size="28.8" fill="#3B5274" transform="matrix(1.00, 0.00, -0.00, -1.00, 551.6, 489.0)">y</text><text xml:space="preserve" font-family="Helvetica-Light" font-size="28.8" fill="#3B5274" transform="matrix(1.00, 0.00, -0.00, -1.00, 566.0, 489.0)"> </text><text xml:space="preserve" font-family="Helvetica-Light" font-size="28.8" fill="#3B5274" transform="matrix(1.00, 0.00, -0.00, -1.00, 574.0, 489.0)">K</text><text xml:space="preserve" font-family="Helvetica-Light" font-size="28.8" fill="#3B5274" transform="matrix(1.00, 0.00, -0.00, -1.00, 593.2, 489.0)">e</text><text xml:space="preserve" font-family="Helvetica-Light" font-size="28.8" fill="#3B5274" transform="matrix(1.00, 0.00, -0.00, -1.00, 609.2, 489.0)">n</text><text xml:space="preserve" font-family="Helvetica-Light" font-size="28.8" fill="#3B5274" transform="matrix(1.00, 0.00, -0.00, -1.00, 625.2, 489.0)"> </text><text xml:space="preserve" font-family="Helvetica-Light" font-size="28.8" fill="#3B5274" transform="matrix(1.00, 0.00, -0.00, -1.00, 633.2, 489.0)">B</text><text xml:space="preserve" font-family="Helvetica-Light" font-size="28.8" fill="#3B5274" transform="matrix(1.00, 0.00, -0.00, -1.00, 652.5, 489.0)">l</text><text xml:space="preserve" font-family="Helvetica-Light" font-size="28.8" fill="#3B5274" transform="matrix(1.00, 0.00, -0.00, -1.00, 658.8, 489.0)">a</text><text xml:space="preserve" font-family="Helvetica-Light" font-size="28.8" fill="#3B5274" transform="matrix(1.00, 0.00, -0.00, -1.00, 674.9, 489.0)">c</text><text xml:space="preserve" font-family="Helvetica-Light" font-size="28.8" fill="#3B5274" transform="matrix(1.00, 0.00, -0.00, -1.00, 690.9, 489.0)">k</text><text xml:space="preserve" font-family="Helvetica-Light" font-size="28.8" fill="#3B5274" transform="matrix(1.00, 0.00, -0.00, -1.00, 705.3, 489.0)"> </text><text xml:space="preserve" font-family="Helvetica-Light" font-size="21.6" fill="#000000" transform="matrix(1.00, 0.00, -0.00, -1.00, 506.2, 423.2)">•</text><text xml:space="preserve" font-family="Helvetica-Light" font-size="28.8" fill="#3B5274" transform="matrix(1.00, 0.00, -0.00, -1.00, 534.0, 420.0)">O</text><text xml:space="preserve" font-family="Helvetica-Light" font-size="28.8" fill="#3B5274" transform="matrix(1.00, 0.00, -0.00, -1.00, 556.4, 420.0)">n</text><text xml:space="preserve" font-family="Helvetica-Light" font-size="28.8" fill="#3B5274" transform="matrix(1.00, 0.00, -0.00, -1.00, 572.4, 420.0)">l</text><text xml:space="preserve" font-family="Helvetica-Light" font-size="28.8" fill="#3B5274" transform="matrix(1.00, 0.00, -0.00, -1.00, 578.8, 420.0)">i</text><text xml:space="preserve" font-family="Helvetica-Light" font-size="28.8" fill="#3B5274" transform="matrix(1.00, 0.00, -0.00, -1.00, 585.2, 420.0)">n</text><text xml:space="preserve" font-family="Helvetica-Light" font-size="28.8" fill="#3B5274" transform="matrix(1.00, 0.00, -0.00, -1.00, 601.2, 420.0)">e</text><text xml:space="preserve" font-family="Helvetica-Light" font-size="28.8" fill="#3B5274" transform="matrix(1.00, 0.00, -0.00, -1.00, 617.2, 420.0)"> </text><text xml:space="preserve" font-family="Helvetica-Light" font-size="28.8" fill="#3B5274" transform="matrix(1.00, 0.00, -0.00, -1.00, 625.2, 420.0)">M</text><text xml:space="preserve" font-family="Helvetica-Light" font-size="28.8" fill="#3B5274" transform="matrix(1.00, 0.00, -0.00, -1.00, 649.2, 420.0)">a</text><text xml:space="preserve" font-family="Helvetica-Light" font-size="28.8" fill="#3B5274" transform="matrix(1.00, 0.00, -0.00, -1.00, 665.2, 420.0)">t</text><text xml:space="preserve" font-family="Helvetica-Light" font-size="28.8" fill="#3B5274" transform="matrix(1.00, 0.00, -0.00, -1.00, 673.2, 420.0)">e</text><text xml:space="preserve" font-family="Helvetica-Light" font-size="28.8" fill="#3B5274" transform="matrix(1.00, 0.00, -0.00, -1.00, 689.3, 420.0)">r</text><text xml:space="preserve" font-family="Helvetica-Light" font-size="28.8" fill="#3B5274" transform="matrix(1.00, 0.00, -0.00, -1.00, 698.9, 420.0)">i</text><text xml:space="preserve" font-family="Helvetica-Light" font-size="28.8" fill="#3B5274" transform="matrix(1.00, 0.00, -0.00, -1.00, 705.2, 420.0)">a</text><text xml:space="preserve" font-family="Helvetica-Light" font-size="28.8" fill="#3B5274" transform="matrix(1.00, 0.00, -0.00, -1.00, 721.3, 420.0)">l</text><text xml:space="preserve" font-family="Helvetica-Light" font-size="28.8" fill="#3B5274" transform="matrix(1.00, 0.00, -0.00, -1.00, 727.7, 420.0)">s</text><text xml:space="preserve" font-family="Helvetica-Light" font-size="28.8" fill="#3B5274" transform="matrix(1.00, 0.00, -0.00, -1.00, 742.1, 420.0)">:</text><text xml:space="preserve" font-family="LucidaGrande" font-size="28.8" fill="#3B5274" transform="matrix(1.00, 0.00, -0.00, -1.00, 750.1, 420.0)"> </text><text xml:space="preserve" font-family="Helvetica-Light" font-size="28.8" fill="#000000" transform="matrix(1.00, 0.00, -0.00, -1.00, 534.0, 385.0)">w</text><text xml:space="preserve" font-family="Helvetica-Light" font-size="28.8" fill="#000000" transform="matrix(1.00, 0.00, -0.00, -1.00, 554.8, 385.0)">w</text><text xml:space="preserve" font-family="Helvetica-Light" font-size="28.8" fill="#000000" transform="matrix(1.00, 0.00, -0.00, -1.00, 575.6, 385.0)">w</text><text xml:space="preserve" font-family="Helvetica-Light" font-size="28.8" fill="#000000" transform="matrix(1.00, 0.00, -0.00, -1.00, 594.8, 385.0)">.</text><text xml:space="preserve" font-family="Helvetica-Light" font-size="28.8" fill="#000000" transform="matrix(1.00, 0.00, -0.00, -1.00, 602.8, 385.0)">W</text><text xml:space="preserve" font-family="Helvetica-Light" font-size="28.8" fill="#000000" transform="matrix(1.00, 0.00, -0.00, -1.00, 628.4, 385.0)">i</text><text xml:space="preserve" font-family="Helvetica-Light" font-size="28.8" fill="#000000" transform="matrix(1.00, 0.00, -0.00, -1.00, 634.8, 385.0)">l</text><text xml:space="preserve" font-family="Helvetica-Light" font-size="28.8" fill="#000000" transform="matrix(1.00, 0.00, -0.00, -1.00, 641.2, 385.0)">e</text><text xml:space="preserve" font-family="Helvetica-Light" font-size="28.8" fill="#000000" transform="matrix(1.00, 0.00, -0.00, -1.00, 657.2, 385.0)">y</text><text xml:space="preserve" font-family="Helvetica-Light" font-size="28.8" fill="#000000" transform="matrix(1.00, 0.00, -0.00, -1.00, 671.6, 385.0)">P</text><text xml:space="preserve" font-family="Helvetica-Light" font-size="28.8" fill="#000000" transform="matrix(1.00, 0.00, -0.00, -1.00, 689.2, 385.0)">L</text><text xml:space="preserve" font-family="Helvetica-Light" font-size="28.8" fill="#000000" transform="matrix(1.00, 0.00, -0.00, -1.00, 705.2, 385.0)">U</text><text xml:space="preserve" font-family="Helvetica-Light" font-size="28.8" fill="#000000" transform="matrix(1.00, 0.00, -0.00, -1.00, 726.0, 385.0)">S</text><text xml:space="preserve" font-family="Helvetica-Light" font-size="28.8" fill="#000000" transform="matrix(1.00, 0.00, -0.00, -1.00, 743.6, 385.0)">.</text><text xml:space="preserve" font-family="Helvetica-Light" font-size="28.8" fill="#000000" transform="matrix(1.00, 0.00, -0.00, -1.00, 751.6, 385.0)">c</text><text xml:space="preserve" font-family="Helvetica-Light" font-size="28.8" fill="#000000" transform="matrix(1.00, 0.00, -0.00, -1.00, 767.6, 385.0)">o</text><text xml:space="preserve" font-family="Helvetica-Light" font-size="28.8" fill="#000000" transform="matrix(1.00, 0.00, -0.00, -1.00, 783.6, 385.0)">m</text><text xml:space="preserve" font-family="Helvetica-Light" font-size="28.8" fill="#000000" transform="matrix(1.00, 0.00, -0.00, -1.00, 807.6, 385.0)"> </text><g><clipPath id="clip-53"><path d="M 533.2 381.5 L 807.8 381.5 L 807.8 384.9 L 533.2 384.9 Z M 533.2 381.5 "></path></clipPath><g clip-path="url(#clip-53)"><path d="M 32.0 209.1 L 305.6 209.1 " fill="none" stroke="#000000" stroke-width="1.44" stroke-miterlimit="0.00" transform="matrix(1.00, 0.00, 0.00, -1.00, 502.2, 592.3)"></path></g></g><text xml:space="preserve" font-family="Helvetica-Light" font-size="28.8" fill="#000000" transform="matrix(1.00, 0.00, -0.00, -1.00, 506.0, 317.0)">O</text><text xml:space="preserve" font-family="Helvetica-Light" font-size="28.8" fill="#000000" transform="matrix(1.00, 0.00, -0.00, -1.00, 528.4, 317.0)">n</text><text xml:space="preserve" font-family="Helvetica-Light" font-size="28.8" fill="#000000" transform="matrix(1.00, 0.00, -0.00, -1.00, 544.4, 317.0)">l</text><text xml:space="preserve" font-family="Helvetica-Light" font-size="28.8" fill="#000000" transform="matrix(1.00, 0.00, -0.00, -1.00, 550.8, 317.0)">i</text><text xml:space="preserve" font-family="Helvetica-Light" font-size="28.8" fill="#000000" transform="matrix(1.00, 0.00, -0.00, -1.00, 557.2, 317.0)">n</text><text xml:space="preserve" font-family="Helvetica-Light" font-size="28.8" fill="#000000" transform="matrix(1.00, 0.00, -0.00, -1.00, 573.2, 317.0)">e</text><text xml:space="preserve" font-family="Helvetica-Light" font-size="28.8" fill="#000000" transform="matrix(1.00, 0.00, -0.00, -1.00, 589.2, 317.0)"> </text><text xml:space="preserve" font-family="Helvetica-Light" font-size="28.8" fill="#000000" transform="matrix(1.00, 0.00, -0.00, -1.00, 597.2, 317.0)">M</text><text xml:space="preserve" font-family="Helvetica-Light" font-size="28.8" fill="#000000" transform="matrix(1.00, 0.00, -0.00, -1.00, 621.2, 317.0)">a</text><text xml:space="preserve" font-family="Helvetica-Light" font-size="28.8" fill="#000000" transform="matrix(1.00, 0.00, -0.00, -1.00, 637.2, 317.0)">t</text><text xml:space="preserve" font-family="Helvetica-Light" font-size="28.8" fill="#000000" transform="matrix(1.00, 0.00, -0.00, -1.00, 645.2, 317.0)">e</text><text xml:space="preserve" font-family="Helvetica-Light" font-size="28.8" fill="#000000" transform="matrix(1.00, 0.00, -0.00, -1.00, 661.3, 317.0)">r</text><text xml:space="preserve" font-family="Helvetica-Light" font-size="28.8" fill="#000000" transform="matrix(1.00, 0.00, -0.00, -1.00, 670.9, 317.0)">i</text><text xml:space="preserve" font-family="Helvetica-Light" font-size="28.8" fill="#000000" transform="matrix(1.00, 0.00, -0.00, -1.00, 677.2, 317.0)">a</text><text xml:space="preserve" font-family="Helvetica-Light" font-size="28.8" fill="#000000" transform="matrix(1.00, 0.00, -0.00, -1.00, 693.3, 317.0)">l</text><text xml:space="preserve" font-family="Helvetica-Light" font-size="28.8" fill="#000000" transform="matrix(1.00, 0.00, -0.00, -1.00, 699.7, 317.0)"> </text><text xml:space="preserve" font-family="Helvetica-Light" font-size="28.8" fill="#000000" transform="matrix(1.00, 0.00, -0.00, -1.00, 707.7, 317.0)">h</text><text xml:space="preserve" font-family="Helvetica-Light" font-size="28.8" fill="#000000" transform="matrix(1.00, 0.00, -0.00, -1.00, 723.7, 317.0)">a</text><text xml:space="preserve" font-family="Helvetica-Light" font-size="28.8" fill="#000000" transform="matrix(1.00, 0.00, -0.00, -1.00, 739.7, 317.0)">s</text><text xml:space="preserve" font-family="Helvetica-Light" font-size="28.8" fill="#000000" transform="matrix(1.00, 0.00, -0.00, -1.00, 754.1, 317.0)"> </text><text xml:space="preserve" font-family="Helvetica-Light" font-size="28.8" fill="#000000" transform="matrix(1.00, 0.00, -0.00, -1.00, 762.1, 317.0)">t</text><text xml:space="preserve" font-family="Helvetica-Light" font-size="28.8" fill="#000000" transform="matrix(1.00, 0.00, -0.00, -1.00, 770.1, 317.0)">h</text><text xml:space="preserve" font-family="Helvetica-Light" font-size="28.8" fill="#000000" transform="matrix(1.00, 0.00, -0.00, -1.00, 786.1, 317.0)">e</text><text xml:space="preserve" font-family="Helvetica-Light" font-size="28.8" fill="#000000" transform="matrix(1.00, 0.00, -0.00, -1.00, 802.1, 317.0)"> </text><text xml:space="preserve" font-family="Helvetica-Light" font-size="28.8" fill="#000000" transform="matrix(1.00, 0.00, -0.00, -1.00, 810.1, 317.0)">b</text><text xml:space="preserve" font-family="Helvetica-Light" font-size="28.8" fill="#000000" transform="matrix(1.00, 0.00, -0.00, -1.00, 827.7, 317.0)">o</text><text xml:space="preserve" font-family="Helvetica-Light" font-size="28.8" fill="#000000" transform="matrix(1.00, 0.00, -0.00, -1.00, 843.7, 317.0)">o</text><text xml:space="preserve" font-family="Helvetica-Light" font-size="28.8" fill="#000000" transform="matrix(1.00, 0.00, -0.00, -1.00, 859.8, 317.0)">k</text><text xml:space="preserve" font-family="Helvetica-Light" font-size="28.8" fill="#000000" transform="matrix(1.00, 0.00, -0.00, -1.00, 874.2, 317.0)"> </text><text xml:space="preserve" font-family="Helvetica-Light" font-size="28.8" fill="#000000" transform="matrix(1.00, 0.00, -0.00, -1.00, 506.0, 282.0)">c</text><text xml:space="preserve" font-family="Helvetica-Light" font-size="28.8" fill="#000000" transform="matrix(1.00, 0.00, -0.00, -1.00, 522.0, 282.0)">o</text><text xml:space="preserve" font-family="Helvetica-Light" font-size="28.8" fill="#000000" transform="matrix(1.00, 0.00, -0.00, -1.00, 538.0, 282.0)">n</text><text xml:space="preserve" font-family="Helvetica-Light" font-size="28.8" fill="#000000" transform="matrix(1.00, 0.00, -0.00, -1.00, 554.0, 282.0)">t</text><text xml:space="preserve" font-family="Helvetica-Light" font-size="28.8" fill="#000000" transform="matrix(1.00, 0.00, -0.00, -1.00, 562.0, 282.0)">e</text><text xml:space="preserve" font-family="Helvetica-Light" font-size="28.8" fill="#000000" transform="matrix(1.00, 0.00, -0.00, -1.00, 578.1, 282.0)">n</text><text xml:space="preserve" font-family="Helvetica-Light" font-size="28.8" fill="#000000" transform="matrix(1.00, 0.00, -0.00, -1.00, 594.1, 282.0)">t</text><text xml:space="preserve" font-family="Helvetica-Light" font-size="28.8" fill="#000000" transform="matrix(1.00, 0.00, -0.00, -1.00, 602.1, 282.0)">.</text><text xml:space="preserve" font-family="Helvetica-Light" font-size="28.8" fill="#000000" transform="matrix(1.00, 0.00, -0.00, -1.00, 610.1, 282.0)"> </text><text xml:space="preserve" font-family="Helvetica-Light" font-size="28.8" fill="#000000" transform="matrix(1.00, 0.00, -0.00, -1.00, 618.1, 282.0)">Y</text><text xml:space="preserve" font-family="Helvetica-Light" font-size="28.8" fill="#000000" transform="matrix(1.00, 0.00, -0.00, -1.00, 633.0, 282.0)">o</text><text xml:space="preserve" font-family="Helvetica-Light" font-size="28.8" fill="#000000" transform="matrix(1.00, 0.00, -0.00, -1.00, 649.0, 282.0)">u</text><text xml:space="preserve" font-family="Helvetica-Light" font-size="28.8" fill="#000000" transform="matrix(1.00, 0.00, -0.00, -1.00, 665.1, 282.0)"> </text><text xml:space="preserve" font-family="Helvetica-Light" font-size="28.8" fill="#000000" transform="matrix(1.00, 0.00, -0.00, -1.00, 673.1, 282.0)">c</text><text xml:space="preserve" font-family="Helvetica-Light" font-size="28.8" fill="#000000" transform="matrix(1.00, 0.00, -0.00, -1.00, 689.1, 282.0)">a</text><text xml:space="preserve" font-family="Helvetica-Light" font-size="28.8" fill="#000000" transform="matrix(1.00, 0.00, -0.00, -1.00, 705.1, 282.0)">n</text><text xml:space="preserve" font-family="Helvetica-Light" font-size="28.8" fill="#000000" transform="matrix(1.00, 0.00, -0.00, -1.00, 721.1, 282.0)"> </text><text xml:space="preserve" font-family="Helvetica-Light" font-size="28.8" fill="#000000" transform="matrix(1.00, 0.00, -0.00, -1.00, 729.1, 282.0)">o</text><text xml:space="preserve" font-family="Helvetica-Light" font-size="28.8" fill="#000000" transform="matrix(1.00, 0.00, -0.00, -1.00, 745.1, 282.0)">n</text><text xml:space="preserve" font-family="Helvetica-Light" font-size="28.8" fill="#000000" transform="matrix(1.00, 0.00, -0.00, -1.00, 761.1, 282.0)">l</text><text xml:space="preserve" font-family="Helvetica-Light" font-size="28.8" fill="#000000" transform="matrix(1.00, 0.00, -0.00, -1.00, 767.5, 282.0)">y</text><text xml:space="preserve" font-family="Helvetica-Light" font-size="28.8" fill="#000000" transform="matrix(1.00, 0.00, -0.00, -1.00, 781.9, 282.0)"> </text><text xml:space="preserve" font-family="Helvetica-Light" font-size="28.8" fill="#000000" transform="matrix(1.00, 0.00, -0.00, -1.00, 789.9, 282.0)">s</text><text xml:space="preserve" font-family="Helvetica-Light" font-size="28.8" fill="#000000" transform="matrix(1.00, 0.00, -0.00, -1.00, 804.3, 282.0)">u</text><text xml:space="preserve" font-family="Helvetica-Light" font-size="28.8" fill="#000000" transform="matrix(1.00, 0.00, -0.00, -1.00, 820.4, 282.0)">b</text><text xml:space="preserve" font-family="Helvetica-Light" font-size="28.8" fill="#000000" transform="matrix(1.00, 0.00, -0.00, -1.00, 837.9, 282.0)">s</text><text xml:space="preserve" font-family="Helvetica-Light" font-size="28.8" fill="#000000" transform="matrix(1.00, 0.00, -0.00, -1.00, 852.3, 282.0)">c</text><text xml:space="preserve" font-family="Helvetica-Light" font-size="28.8" fill="#000000" transform="matrix(1.00, 0.00, -0.00, -1.00, 868.4, 282.0)">r</text><text xml:space="preserve" font-family="Helvetica-Light" font-size="28.8" fill="#000000" transform="matrix(1.00, 0.00, -0.00, -1.00, 878.0, 282.0)">i</text><text xml:space="preserve" font-family="Helvetica-Light" font-size="28.8" fill="#000000" transform="matrix(1.00, 0.00, -0.00, -1.00, 884.3, 282.0)">b</text><text xml:space="preserve" font-family="Helvetica-Light" font-size="28.8" fill="#000000" transform="matrix(1.00, 0.00, -0.00, -1.00, 901.9, 282.0)">e</text><text xml:space="preserve" font-family="Helvetica-Light" font-size="28.8" fill="#000000" transform="matrix(1.00, 0.00, -0.00, -1.00, 918.0, 282.0)"> </text><text xml:space="preserve" font-family="Helvetica-Light" font-size="28.8" fill="#000000" transform="matrix(1.00, 0.00, -0.00, -1.00, 926.0, 282.0)">t</text><text xml:space="preserve" font-family="Helvetica-Light" font-size="28.8" fill="#000000" transform="matrix(1.00, 0.00, -0.00, -1.00, 934.0, 282.0)">o</text><text xml:space="preserve" font-family="Helvetica-Light" font-size="28.8" fill="#000000" transform="matrix(1.00, 0.00, -0.00, -1.00, 950.0, 282.0)"> </text><text xml:space="preserve" font-family="Helvetica-Light" font-size="28.8" fill="#000000" transform="matrix(1.00, 0.00, -0.00, -1.00, 506.0, 247.0)">W</text><text xml:space="preserve" font-family="Helvetica-Light" font-size="28.8" fill="#000000" transform="matrix(1.00, 0.00, -0.00, -1.00, 531.6, 247.0)">i</text><text xml:space="preserve" font-family="Helvetica-Light" font-size="28.8" fill="#000000" transform="matrix(1.00, 0.00, -0.00, -1.00, 538.0, 247.0)">l</text><text xml:space="preserve" font-family="Helvetica-Light" font-size="28.8" fill="#000000" transform="matrix(1.00, 0.00, -0.00, -1.00, 544.4, 247.0)">e</text><text xml:space="preserve" font-family="Helvetica-Light" font-size="28.8" fill="#000000" transform="matrix(1.00, 0.00, -0.00, -1.00, 560.4, 247.0)">y</text><text xml:space="preserve" font-family="Helvetica-Light" font-size="28.8" fill="#000000" transform="matrix(1.00, 0.00, -0.00, -1.00, 574.8, 247.0)">P</text><text xml:space="preserve" font-family="Helvetica-Light" font-size="28.8" fill="#000000" transform="matrix(1.00, 0.00, -0.00, -1.00, 592.4, 247.0)">L</text><text xml:space="preserve" font-family="Helvetica-Light" font-size="28.8" fill="#000000" transform="matrix(1.00, 0.00, -0.00, -1.00, 608.4, 247.0)">U</text><text xml:space="preserve" font-family="Helvetica-Light" font-size="28.8" fill="#000000" transform="matrix(1.00, 0.00, -0.00, -1.00, 629.2, 247.0)">S</text><text xml:space="preserve" font-family="Helvetica-Light" font-size="28.8" fill="#000000" transform="matrix(1.00, 0.00, -0.00, -1.00, 646.8, 247.0)"> </text><text xml:space="preserve" font-family="Helvetica-Light" font-size="28.8" fill="#000000" transform="matrix(1.00, 0.00, -0.00, -1.00, 506.0, 178.0)">Y</text><text xml:space="preserve" font-family="Helvetica-Light" font-size="28.8" fill="#000000" transform="matrix(1.00, 0.00, -0.00, -1.00, 520.9, 178.0)">o</text><text xml:space="preserve" font-family="Helvetica-Light" font-size="28.8" fill="#000000" transform="matrix(1.00, 0.00, -0.00, -1.00, 537.0, 178.0)">u</text><text xml:space="preserve" font-family="Helvetica-Light" font-size="28.8" fill="#000000" transform="matrix(1.00, 0.00, -0.00, -1.00, 553.0, 178.0)"> </text><text xml:space="preserve" font-family="Helvetica-Light" font-size="28.8" fill="#000000" transform="matrix(1.00, 0.00, -0.00, -1.00, 561.0, 178.0)">a</text><text xml:space="preserve" font-family="Helvetica-Light" font-size="28.8" fill="#000000" transform="matrix(1.00, 0.00, -0.00, -1.00, 577.0, 178.0)">r</text><text xml:space="preserve" font-family="Helvetica-Light" font-size="28.8" fill="#000000" transform="matrix(1.00, 0.00, -0.00, -1.00, 586.1, 178.0)">e</text><text xml:space="preserve" font-family="Helvetica-Light" font-size="28.8" fill="#000000" transform="matrix(1.00, 0.00, -0.00, -1.00, 602.1, 178.0)"> </text><text xml:space="preserve" font-family="Helvetica-Light" font-size="28.8" fill="#000000" transform="matrix(1.00, 0.00, -0.00, -1.00, 610.1, 178.0)">R</text><text xml:space="preserve" font-family="Helvetica-Light" font-size="28.8" fill="#000000" transform="matrix(1.00, 0.00, -0.00, -1.00, 629.3, 178.0)">E</text><text xml:space="preserve" font-family="Helvetica-Light" font-size="28.8" fill="#000000" transform="matrix(1.00, 0.00, -0.00, -1.00, 646.9, 178.0)">Q</text><text xml:space="preserve" font-family="Helvetica-Light" font-size="28.8" fill="#000000" transform="matrix(1.00, 0.00, -0.00, -1.00, 669.3, 178.0)">U</text><text xml:space="preserve" font-family="Helvetica-Light" font-size="28.8" fill="#000000" transform="matrix(1.00, 0.00, -0.00, -1.00, 690.1, 178.0)">I</text><text xml:space="preserve" font-family="Helvetica-Light" font-size="28.8" fill="#000000" transform="matrix(1.00, 0.00, -0.00, -1.00, 698.1, 178.0)">R</text><text xml:space="preserve" font-family="Helvetica-Light" font-size="28.8" fill="#000000" transform="matrix(1.00, 0.00, -0.00, -1.00, 717.3, 178.0)">E</text><text xml:space="preserve" font-family="Helvetica-Light" font-size="28.8" fill="#000000" transform="matrix(1.00, 0.00, -0.00, -1.00, 734.9, 178.0)">D</text><text xml:space="preserve" font-family="Helvetica-Light" font-size="28.8" fill="#000000" transform="matrix(1.00, 0.00, -0.00, -1.00, 755.7, 178.0)"> </text><text xml:space="preserve" font-family="Helvetica-Light" font-size="28.8" fill="#000000" transform="matrix(1.00, 0.00, -0.00, -1.00, 763.7, 178.0)">t</text><text xml:space="preserve" font-family="Helvetica-Light" font-size="28.8" fill="#000000" transform="matrix(1.00, 0.00, -0.00, -1.00, 771.7, 178.0)">o</text><text xml:space="preserve" font-family="Helvetica-Light" font-size="28.8" fill="#000000" transform="matrix(1.00, 0.00, -0.00, -1.00, 787.7, 178.0)"> </text><text xml:space="preserve" font-family="Helvetica-Light" font-size="28.8" fill="#000000" transform="matrix(1.00, 0.00, -0.00, -1.00, 795.7, 178.0)">s</text><text xml:space="preserve" font-family="Helvetica-Light" font-size="28.8" fill="#000000" transform="matrix(1.00, 0.00, -0.00, -1.00, 810.1, 178.0)">u</text><text xml:space="preserve" font-family="Helvetica-Light" font-size="28.8" fill="#000000" transform="matrix(1.00, 0.00, -0.00, -1.00, 826.1, 178.0)">b</text><text xml:space="preserve" font-family="Helvetica-Light" font-size="28.8" fill="#000000" transform="matrix(1.00, 0.00, -0.00, -1.00, 843.7, 178.0)">s</text><text xml:space="preserve" font-family="Helvetica-Light" font-size="28.8" fill="#000000" transform="matrix(1.00, 0.00, -0.00, -1.00, 858.1, 178.0)">c</text><text xml:space="preserve" font-family="Helvetica-Light" font-size="28.8" fill="#000000" transform="matrix(1.00, 0.00, -0.00, -1.00, 874.2, 178.0)">r</text><text xml:space="preserve" font-family="Helvetica-Light" font-size="28.8" fill="#000000" transform="matrix(1.00, 0.00, -0.00, -1.00, 883.7, 178.0)">i</text><text xml:space="preserve" font-family="Helvetica-Light" font-size="28.8" fill="#000000" transform="matrix(1.00, 0.00, -0.00, -1.00, 890.1, 178.0)">b</text><text xml:space="preserve" font-family="Helvetica-Light" font-size="28.8" fill="#000000" transform="matrix(1.00, 0.00, -0.00, -1.00, 907.7, 178.0)">e</text><text xml:space="preserve" font-family="Helvetica-Light" font-size="28.8" fill="#000000" transform="matrix(1.00, 0.00, -0.00, -1.00, 923.7, 178.0)"> </text><text xml:space="preserve" font-family="Helvetica-Light" font-size="28.8" fill="#000000" transform="matrix(1.00, 0.00, -0.00, -1.00, 931.8, 178.0)">t</text><text xml:space="preserve" font-family="Helvetica-Light" font-size="28.8" fill="#000000" transform="matrix(1.00, 0.00, -0.00, -1.00, 939.8, 178.0)">o</text><text xml:space="preserve" font-family="Helvetica-Light" font-size="28.8" fill="#000000" transform="matrix(1.00, 0.00, -0.00, -1.00, 955.8, 178.0)"> </text><text xml:space="preserve" font-family="Helvetica-Light" font-size="28.8" fill="#000000" transform="matrix(1.00, 0.00, -0.00, -1.00, 506.0, 143.0)">W</text><text xml:space="preserve" font-family="Helvetica-Light" font-size="28.8" fill="#000000" transform="matrix(1.00, 0.00, -0.00, -1.00, 531.6, 143.0)">i</text><text xml:space="preserve" font-family="Helvetica-Light" font-size="28.8" fill="#000000" transform="matrix(1.00, 0.00, -0.00, -1.00, 538.0, 143.0)">l</text><text xml:space="preserve" font-family="Helvetica-Light" font-size="28.8" fill="#000000" transform="matrix(1.00, 0.00, -0.00, -1.00, 544.4, 143.0)">e</text><text xml:space="preserve" font-family="Helvetica-Light" font-size="28.8" fill="#000000" transform="matrix(1.00, 0.00, -0.00, -1.00, 560.4, 143.0)">y</text><text xml:space="preserve" font-family="Helvetica-Light" font-size="28.8" fill="#000000" transform="matrix(1.00, 0.00, -0.00, -1.00, 574.8, 143.0)">P</text><text xml:space="preserve" font-family="Helvetica-Light" font-size="28.8" fill="#000000" transform="matrix(1.00, 0.00, -0.00, -1.00, 592.4, 143.0)">L</text><text xml:space="preserve" font-family="Helvetica-Light" font-size="28.8" fill="#000000" transform="matrix(1.00, 0.00, -0.00, -1.00, 608.4, 143.0)">U</text><text xml:space="preserve" font-family="Helvetica-Light" font-size="28.8" fill="#000000" transform="matrix(1.00, 0.00, -0.00, -1.00, 629.2, 143.0)">S</text><text xml:space="preserve" font-family="Helvetica-Light" font-size="28.8" fill="#000000" transform="matrix(1.00, 0.00, -0.00, -1.00, 646.8, 143.0)"> </text><text xml:space="preserve" font-family="Helvetica-Light" font-size="28.8" fill="#000000" transform="matrix(1.00, 0.00, -0.00, -1.00, 654.8, 143.0)">(</text><text xml:space="preserve" font-family="Helvetica-Light" font-size="28.8" fill="#000000" transform="matrix(1.00, 0.00, -0.00, -1.00, 664.4, 143.0)">i</text><text xml:space="preserve" font-family="Helvetica-Light" font-size="28.8" fill="#000000" transform="matrix(1.00, 0.00, -0.00, -1.00, 670.8, 143.0)">t</text><text xml:space="preserve" font-family="Helvetica-Light" font-size="28.8" fill="#000000" transform="matrix(1.00, 0.00, -0.00, -1.00, 678.8, 143.0)"> </text><text xml:space="preserve" font-family="Helvetica-Light" font-size="28.8" fill="#000000" transform="matrix(1.00, 0.00, -0.00, -1.00, 686.8, 143.0)">h</text><text xml:space="preserve" font-family="Helvetica-Light" font-size="28.8" fill="#000000" transform="matrix(1.00, 0.00, -0.00, -1.00, 702.8, 143.0)">a</text><text xml:space="preserve" font-family="Helvetica-Light" font-size="28.8" fill="#000000" transform="matrix(1.00, 0.00, -0.00, -1.00, 718.8, 143.0)">s</text><text xml:space="preserve" font-family="Helvetica-Light" font-size="28.8" fill="#000000" transform="matrix(1.00, 0.00, -0.00, -1.00, 733.2, 143.0)"> </text><text xml:space="preserve" font-family="Helvetica-Light" font-size="28.8" fill="#000000" transform="matrix(1.00, 0.00, -0.00, -1.00, 741.2, 143.0)">1</text><text xml:space="preserve" font-family="Helvetica-Light" font-size="28.8" fill="#000000" transform="matrix(1.00, 0.00, -0.00, -1.00, 757.3, 143.0)">4</text><text xml:space="preserve" font-family="Helvetica-Light" font-size="28.8" fill="#000000" transform="matrix(1.00, 0.00, -0.00, -1.00, 773.3, 143.0)"> </text><text xml:space="preserve" font-family="Helvetica-Light" font-size="28.8" fill="#000000" transform="matrix(1.00, 0.00, -0.00, -1.00, 781.3, 143.0)">d</text><text xml:space="preserve" font-family="Helvetica-Light" font-size="28.8" fill="#000000" transform="matrix(1.00, 0.00, -0.00, -1.00, 798.9, 143.0)">a</text><text xml:space="preserve" font-family="Helvetica-Light" font-size="28.8" fill="#000000" transform="matrix(1.00, 0.00, -0.00, -1.00, 814.9, 143.0)">y</text><text xml:space="preserve" font-family="Helvetica-Light" font-size="28.8" fill="#000000" transform="matrix(1.00, 0.00, -0.00, -1.00, 829.3, 143.0)">s</text><text xml:space="preserve" font-family="Helvetica-Light" font-size="28.8" fill="#000000" transform="matrix(1.00, 0.00, -0.00, -1.00, 843.7, 143.0)"> </text><text xml:space="preserve" font-family="Helvetica-Light" font-size="28.8" fill="#000000" transform="matrix(1.00, 0.00, -0.00, -1.00, 851.7, 143.0)">o</text><text xml:space="preserve" font-family="Helvetica-Light" font-size="28.8" fill="#000000" transform="matrix(1.00, 0.00, -0.00, -1.00, 867.7, 143.0)">f</text><text xml:space="preserve" font-family="Helvetica-Light" font-size="28.8" fill="#000000" transform="matrix(1.00, 0.00, -0.00, -1.00, 875.7, 143.0)"> </text><text xml:space="preserve" font-family="Helvetica-Light" font-size="28.8" fill="#000000" transform="matrix(1.00, 0.00, -0.00, -1.00, 883.7, 143.0)">g</text><text xml:space="preserve" font-family="Helvetica-Light" font-size="28.8" fill="#000000" transform="matrix(1.00, 0.00, -0.00, -1.00, 901.3, 143.0)">r</text><text xml:space="preserve" font-family="Helvetica-Light" font-size="28.8" fill="#000000" transform="matrix(1.00, 0.00, -0.00, -1.00, 910.9, 143.0)">a</text><text xml:space="preserve" font-family="Helvetica-Light" font-size="28.8" fill="#000000" transform="matrix(1.00, 0.00, -0.00, -1.00, 926.9, 143.0)">c</text><text xml:space="preserve" font-family="Helvetica-Light" font-size="28.8" fill="#000000" transform="matrix(1.00, 0.00, -0.00, -1.00, 942.9, 143.0)">e</text><text xml:space="preserve" font-family="Helvetica-Light" font-size="28.8" fill="#000000" transform="matrix(1.00, 0.00, -0.00, -1.00, 958.9, 143.0)"> </text><text xml:space="preserve" font-family="Helvetica-Light" font-size="28.8" fill="#000000" transform="matrix(1.00, 0.00, -0.00, -1.00, 506.0, 108.0)">p</text><text xml:space="preserve" font-family="Helvetica-Light" font-size="28.8" fill="#000000" transform="matrix(1.00, 0.00, -0.00, -1.00, 523.6, 108.0)">e</text><text xml:space="preserve" font-family="Helvetica-Light" font-size="28.8" fill="#000000" transform="matrix(1.00, 0.00, -0.00, -1.00, 539.6, 108.0)">r</text><text xml:space="preserve" font-family="Helvetica-Light" font-size="28.8" fill="#000000" transform="matrix(1.00, 0.00, -0.00, -1.00, 549.2, 108.0)">i</text><text xml:space="preserve" font-family="Helvetica-Light" font-size="28.8" fill="#000000" transform="matrix(1.00, 0.00, -0.00, -1.00, 555.6, 108.0)">o</text><text xml:space="preserve" font-family="Helvetica-Light" font-size="28.8" fill="#000000" transform="matrix(1.00, 0.00, -0.00, -1.00, 571.6, 108.0)">d</text><text xml:space="preserve" font-family="Helvetica-Light" font-size="28.8" fill="#000000" transform="matrix(1.00, 0.00, -0.00, -1.00, 589.2, 108.0)">)</text><image xlink:href="90AE127281F852DB7D6C8F25C5641876.jpeg" width="407.00" height="528.00" transform="matrix(1.00, 0.00, -0.00, -1.00, 60.0, 597.0)"></image></g></svg>