<?xml version="1.0" encoding="UTF-8" standalone="no"?><svg xmlns="http://www.w3.org/2000/svg" xmlns:xlink="http://www.w3.org/1999/xlink" clip-rule="evenodd" stroke-miterlimit="4.00" viewBox="0 0 1024 768"><desc>SVG generated by Keynote</desc><defs></defs><g transform="matrix(1.00, 0.00, -0.00, -1.00, 0.0, 768.0)"><path d="M 0.0 768.0 L 1024.0 768.0 L 1024.0 0.0 L 0.0 0.0 Z M 0.0 768.0 " fill="#FEFFFF"></path><text xml:space="preserve" font-family="Helvetica-Light" font-size="80.0" fill="#000000" transform="matrix(1.00, 0.00, -0.00, -1.00, 178.0, 605.0)">I</text><text xml:space="preserve" font-family="Helvetica-Light" font-size="80.0" fill="#000000" transform="matrix(1.00, 0.00, -0.00, -1.00, 200.2, 605.0)">n</text><text xml:space="preserve" font-family="Helvetica-Light" font-size="80.0" fill="#000000" transform="matrix(1.00, 0.00, -0.00, -1.00, 244.7, 605.0)">f</text><text xml:space="preserve" font-family="Helvetica-Light" font-size="80.0" fill="#000000" transform="matrix(1.00, 0.00, -0.00, -1.00, 267.0, 605.0)">e</text><text xml:space="preserve" font-family="Helvetica-Light" font-size="80.0" fill="#000000" transform="matrix(1.00, 0.00, -0.00, -1.00, 311.4, 605.0)">r</text><text xml:space="preserve" font-family="Helvetica-Light" font-size="80.0" fill="#000000" transform="matrix(1.00, 0.00, -0.00, -1.00, 336.6, 605.0)">e</text><text xml:space="preserve" font-family="Helvetica-Light" font-size="80.0" fill="#000000" transform="matrix(1.00, 0.00, -0.00, -1.00, 381.1, 605.0)">n</text><text xml:space="preserve" font-family="Helvetica-Light" font-size="80.0" fill="#000000" transform="matrix(1.00, 0.00, -0.00, -1.00, 425.6, 605.0)">t</text><text xml:space="preserve" font-family="Helvetica-Light" font-size="80.0" fill="#000000" transform="matrix(1.00, 0.00, -0.00, -1.00, 447.8, 605.0)">i</text><text xml:space="preserve" font-family="Helvetica-Light" font-size="80.0" fill="#000000" transform="matrix(1.00, 0.00, -0.00, -1.00, 465.6, 605.0)">a</text><text xml:space="preserve" font-family="Helvetica-Light" font-size="80.0" fill="#000000" transform="matrix(1.00, 0.00, -0.00, -1.00, 510.1, 605.0)">l</text><text xml:space="preserve" font-family="Helvetica-Light" font-size="80.0" fill="#000000" transform="matrix(1.00, 0.00, -0.00, -1.00, 527.8, 605.0)"> </text><text xml:space="preserve" font-family="Helvetica-Light" font-size="80.0" fill="#000000" transform="matrix(1.00, 0.00, -0.00, -1.00, 550.1, 605.0)">P</text><text xml:space="preserve" font-family="Helvetica-Light" font-size="80.0" fill="#000000" transform="matrix(1.00, 0.00, -0.00, -1.00, 599.0, 605.0)">r</text><text xml:space="preserve" font-family="Helvetica-Light" font-size="80.0" fill="#000000" transform="matrix(1.00, 0.00, -0.00, -1.00, 624.2, 605.0)">o</text><text xml:space="preserve" font-family="Helvetica-Light" font-size="80.0" fill="#000000" transform="matrix(1.00, 0.00, -0.00, -1.00, 668.6, 605.0)">c</text><text xml:space="preserve" font-family="Helvetica-Light" font-size="80.0" fill="#000000" transform="matrix(1.00, 0.00, -0.00, -1.00, 713.1, 605.0)">e</text><text xml:space="preserve" font-family="Helvetica-Light" font-size="80.0" fill="#000000" transform="matrix(1.00, 0.00, -0.00, -1.00, 757.6, 605.0)">s</text><text xml:space="preserve" font-family="Helvetica-Light" font-size="80.0" fill="#000000" transform="matrix(1.00, 0.00, -0.00, -1.00, 797.6, 605.0)">s</text><path d="M 20.0 3.3 C 24.6 7.7 24.6 14.8 20.0 19.2 C 15.5 23.6 8.0 23.6 3.4 19.2 C -1.1 14.8 -1.1 7.7 3.4 3.3 C 8.0 -1.1 15.5 -1.1 20.0 3.3 Z M 20.0 3.3 " fill="none" stroke="#85878C" stroke-width="2.00" transform="matrix(1.00, 0.00, 0.00, -1.00, 159.7, 515.1)"></path><path d="M 20.0 3.3 C 24.6 7.7 24.6 14.8 20.0 19.2 C 15.5 23.6 8.0 23.6 3.4 19.2 C -1.1 14.8 -1.1 7.7 3.4 3.3 C 8.0 -1.1 15.5 -1.1 20.0 3.3 Z M 20.0 3.3 " fill="none" stroke="#85878C" stroke-width="2.00" transform="matrix(1.00, 0.00, 0.00, -1.00, 153.1, 472.3)"></path><path d="M 20.0 3.3 C 24.6 7.7 24.6 14.8 20.0 19.2 C 15.5 23.6 8.0 23.6 3.4 19.2 C -1.1 14.8 -1.1 7.7 3.4 3.3 C 8.0 -1.1 15.5 -1.1 20.0 3.3 Z M 20.0 3.3 " fill="none" stroke="#85878C" stroke-width="2.00" transform="matrix(1.00, 0.00, 0.00, -1.00, 200.1, 525.9)"></path><path d="M 20.0 3.3 C 24.6 7.7 24.6 14.8 20.0 19.2 C 15.5 23.6 8.0 23.6 3.4 19.2 C -1.1 14.8 -1.1 7.7 3.4 3.3 C 8.0 -1.1 15.5 -1.1 20.0 3.3 Z M 20.0 3.3 " fill="none" stroke="#85878C" stroke-width="2.00" transform="matrix(1.00, 0.00, 0.00, -1.00, 199.2, 494.6)"></path><path d="M 20.0 3.3 C 24.6 7.7 24.6 14.8 20.0 19.2 C 15.5 23.6 8.0 23.6 3.4 19.2 C -1.1 14.8 -1.1 7.7 3.4 3.3 C 8.0 -1.1 15.5 -1.1 20.0 3.3 Z M 20.0 3.3 " fill="none" stroke="#85878C" stroke-width="2.00" transform="matrix(1.00, 0.00, 0.00, -1.00, 180.2, 488.7)"></path><path d="M 20.0 3.3 C 24.6 7.7 24.6 14.8 20.0 19.2 C 15.5 23.6 8.0 23.6 3.4 19.2 C -1.1 14.8 -1.1 7.7 3.4 3.3 C 8.0 -1.1 15.5 -1.1 20.0 3.3 Z M 20.0 3.3 " fill="none" stroke="#85878C" stroke-width="2.00" transform="matrix(1.00, 0.00, 0.00, -1.00, 193.7, 463.3)"></path><path d="M 20.0 3.3 C 24.6 7.7 24.6 14.8 20.0 19.2 C 15.5 23.6 8.0 23.6 3.4 19.2 C -1.1 14.8 -1.1 7.7 3.4 3.3 C 8.0 -1.1 15.5 -1.1 20.0 3.3 Z M 20.0 3.3 " fill="none" stroke="#85878C" stroke-width="2.00" transform="matrix(1.00, 0.00, 0.00, -1.00, 245.3, 478.2)"></path><path d="M 20.0 3.3 C 24.6 7.7 24.6 14.8 20.0 19.2 C 15.5 23.6 8.0 23.6 3.4 19.2 C -1.1 14.8 -1.1 7.7 3.4 3.3 C 8.0 -1.1 15.5 -1.1 20.0 3.3 Z M 20.0 3.3 " fill="none" stroke="#85878C" stroke-width="2.00" transform="matrix(1.00, 0.00, 0.00, -1.00, 169.2, 524.6)"></path><path d="M 20.0 3.3 C 24.6 7.7 24.6 14.8 20.0 19.2 C 15.5 23.6 8.0 23.6 3.4 19.2 C -1.1 14.8 -1.1 7.7 3.4 3.3 C 8.0 -1.1 15.5 -1.1 20.0 3.3 Z M 20.0 3.3 " fill="none" stroke="#85878C" stroke-width="2.00" transform="matrix(1.00, 0.00, 0.00, -1.00, 140.5, 488.7)"></path><path d="M 20.0 3.3 C 24.6 7.7 24.6 14.8 20.0 19.2 C 15.5 23.6 8.0 23.6 3.4 19.2 C -1.1 14.8 -1.1 7.7 3.4 3.3 C 8.0 -1.1 15.5 -1.1 20.0 3.3 Z M 20.0 3.3 " fill="none" stroke="#85878C" stroke-width="2.00" transform="matrix(1.00, 0.00, 0.00, -1.00, 225.0, 537.3)"></path><path d="M 20.0 3.3 C 24.6 7.7 24.6 14.8 20.0 19.2 C 15.5 23.6 8.0 23.6 3.4 19.2 C -1.1 14.8 -1.1 7.7 3.4 3.3 C 8.0 -1.1 15.5 -1.1 20.0 3.3 Z M 20.0 3.3 " fill="none" stroke="#85878C" stroke-width="2.00" transform="matrix(1.00, 0.00, 0.00, -1.00, 176.9, 451.3)"></path><path d="M 20.0 3.3 C 24.6 7.7 24.6 14.8 20.0 19.2 C 15.5 23.6 8.0 23.6 3.4 19.2 C -1.1 14.8 -1.1 7.7 3.4 3.3 C 8.0 -1.1 15.5 -1.1 20.0 3.3 Z M 20.0 3.3 " fill="none" stroke="#85878C" stroke-width="2.00" transform="matrix(1.00, 0.00, 0.00, -1.00, 235.4, 448.2)"></path><path d="M 20.0 3.3 C 24.6 7.7 24.6 14.8 20.0 19.2 C 15.5 23.6 8.0 23.6 3.4 19.2 C -1.1 14.8 -1.1 7.7 3.4 3.3 C 8.0 -1.1 15.5 -1.1 20.0 3.3 Z M 20.0 3.3 " fill="none" stroke="#85878C" stroke-width="2.00" transform="matrix(1.00, 0.00, 0.00, -1.00, 220.0, 463.3)"></path><path d="M 20.0 3.3 C 24.6 7.7 24.6 14.8 20.0 19.2 C 15.5 23.6 8.0 23.6 3.4 19.2 C -1.1 14.8 -1.1 7.7 3.4 3.3 C 8.0 -1.1 15.5 -1.1 20.0 3.3 Z M 20.0 3.3 " fill="none" stroke="#85878C" stroke-width="2.00" transform="matrix(1.00, 0.00, 0.00, -1.00, 263.3, 458.2)"></path><path d="M 20.0 3.3 C 24.6 7.7 24.6 14.8 20.0 19.2 C 15.5 23.6 8.0 23.6 3.4 19.2 C -1.1 14.8 -1.1 7.7 3.4 3.3 C 8.0 -1.1 15.5 -1.1 20.0 3.3 Z M 20.0 3.3 " fill="none" stroke="#85878C" stroke-width="2.00" transform="matrix(1.00, 0.00, 0.00, -1.00, 297.1, 472.1)"></path><path d="M 20.0 3.3 C 24.6 7.7 24.6 14.8 20.0 19.2 C 15.5 23.6 8.0 23.6 3.4 19.2 C -1.1 14.8 -1.1 7.7 3.4 3.3 C 8.0 -1.1 15.5 -1.1 20.0 3.3 Z M 20.0 3.3 " fill="none" stroke="#85878C" stroke-width="2.00" transform="matrix(1.00, 0.00, 0.00, -1.00, 169.7, 505.1)"></path><path d="M 20.0 3.3 C 24.6 7.7 24.6 14.8 20.0 19.2 C 15.5 23.6 8.0 23.6 3.4 19.2 C -1.1 14.8 -1.1 7.7 3.4 3.3 C 8.0 -1.1 15.5 -1.1 20.0 3.3 Z M 20.0 3.3 " fill="none" stroke="#85878C" stroke-width="2.00" transform="matrix(1.00, 0.00, 0.00, -1.00, 163.1, 462.3)"></path><path d="M 20.0 3.3 C 24.6 7.7 24.6 14.8 20.0 19.2 C 15.5 23.6 8.0 23.6 3.4 19.2 C -1.1 14.8 -1.1 7.7 3.4 3.3 C 8.0 -1.1 15.5 -1.1 20.0 3.3 Z M 20.0 3.3 " fill="none" stroke="#85878C" stroke-width="2.00" transform="matrix(1.00, 0.00, 0.00, -1.00, 210.1, 515.9)"></path><path d="M 20.0 3.3 C 24.6 7.7 24.6 14.8 20.0 19.2 C 15.5 23.6 8.0 23.6 3.4 19.2 C -1.1 14.8 -1.1 7.7 3.4 3.3 C 8.0 -1.1 15.5 -1.1 20.0 3.3 Z M 20.0 3.3 " fill="none" stroke="#85878C" stroke-width="2.00" transform="matrix(1.00, 0.00, 0.00, -1.00, 209.2, 484.6)"></path><path d="M 20.0 3.3 C 24.6 7.7 24.6 14.8 20.0 19.2 C 15.5 23.6 8.0 23.6 3.4 19.2 C -1.1 14.8 -1.1 7.7 3.4 3.3 C 8.0 -1.1 15.5 -1.1 20.0 3.3 Z M 20.0 3.3 " fill="none" stroke="#85878C" stroke-width="2.00" transform="matrix(1.00, 0.00, 0.00, -1.00, 255.3, 510.9)"></path><path d="M 20.0 3.3 C 24.6 7.7 24.6 14.8 20.0 19.2 C 15.5 23.6 8.0 23.6 3.4 19.2 C -1.1 14.8 -1.1 7.7 3.4 3.3 C 8.0 -1.1 15.5 -1.1 20.0 3.3 Z M 20.0 3.3 " fill="none" stroke="#85878C" stroke-width="2.00" transform="matrix(1.00, 0.00, 0.00, -1.00, 203.7, 453.3)"></path><path d="M 20.0 3.3 C 24.6 7.7 24.6 14.8 20.0 19.2 C 15.5 23.6 8.0 23.6 3.4 19.2 C -1.1 14.8 -1.1 7.7 3.4 3.3 C 8.0 -1.1 15.5 -1.1 20.0 3.3 Z M 20.0 3.3 " fill="none" stroke="#85878C" stroke-width="2.00" transform="matrix(1.00, 0.00, 0.00, -1.00, 255.3, 468.2)"></path><path d="M 20.0 3.3 C 24.6 7.7 24.6 14.8 20.0 19.2 C 15.5 23.6 8.0 23.6 3.4 19.2 C -1.1 14.8 -1.1 7.7 3.4 3.3 C 8.0 -1.1 15.5 -1.1 20.0 3.3 Z M 20.0 3.3 " fill="none" stroke="#85878C" stroke-width="2.00" transform="matrix(1.00, 0.00, 0.00, -1.00, 179.2, 514.6)"></path><path d="M 20.0 3.3 C 24.6 7.7 24.6 14.8 20.0 19.2 C 15.5 23.6 8.0 23.6 3.4 19.2 C -1.1 14.8 -1.1 7.7 3.4 3.3 C 8.0 -1.1 15.5 -1.1 20.0 3.3 Z M 20.0 3.3 " fill="none" stroke="#85878C" stroke-width="2.00" transform="matrix(1.00, 0.00, 0.00, -1.00, 220.8, 432.5)"></path><path d="M 20.0 3.3 C 24.6 7.7 24.6 14.8 20.0 19.2 C 15.5 23.6 8.0 23.6 3.4 19.2 C -1.1 14.8 -1.1 7.7 3.4 3.3 C 8.0 -1.1 15.5 -1.1 20.0 3.3 Z M 20.0 3.3 " fill="none" stroke="#85878C" stroke-width="2.00" transform="matrix(1.00, 0.00, 0.00, -1.00, 235.0, 527.3)"></path><path d="M 20.0 3.3 C 24.6 7.7 24.6 14.8 20.0 19.2 C 15.5 23.6 8.0 23.6 3.4 19.2 C -1.1 14.8 -1.1 7.7 3.4 3.3 C 8.0 -1.1 15.5 -1.1 20.0 3.3 Z M 20.0 3.3 " fill="none" stroke="#85878C" stroke-width="2.00" transform="matrix(1.00, 0.00, 0.00, -1.00, 230.1, 495.9)"></path><path d="M 20.0 3.3 C 24.6 7.7 24.6 14.8 20.0 19.2 C 15.5 23.6 8.0 23.6 3.4 19.2 C -1.1 14.8 -1.1 7.7 3.4 3.3 C 8.0 -1.1 15.5 -1.1 20.0 3.3 Z M 20.0 3.3 " fill="none" stroke="#85878C" stroke-width="2.00" transform="matrix(1.00, 0.00, 0.00, -1.00, 229.2, 464.6)"></path><path d="M 20.0 3.3 C 24.6 7.7 24.6 14.8 20.0 19.2 C 15.5 23.6 8.0 23.6 3.4 19.2 C -1.1 14.8 -1.1 7.7 3.4 3.3 C 8.0 -1.1 15.5 -1.1 20.0 3.3 Z M 20.0 3.3 " fill="none" stroke="#85878C" stroke-width="2.00" transform="matrix(1.00, 0.00, 0.00, -1.00, 275.3, 490.9)"></path><path d="M 20.0 3.3 C 24.6 7.7 24.6 14.8 20.0 19.2 C 15.5 23.6 8.0 23.6 3.4 19.2 C -1.1 14.8 -1.1 7.7 3.4 3.3 C 8.0 -1.1 15.5 -1.1 20.0 3.3 Z M 20.0 3.3 " fill="none" stroke="#85878C" stroke-width="2.00" transform="matrix(1.00, 0.00, 0.00, -1.00, 273.3, 448.2)"></path><path d="M 20.0 3.3 C 24.6 7.7 24.6 14.8 20.0 19.2 C 15.5 23.6 8.0 23.6 3.4 19.2 C -1.1 14.8 -1.1 7.7 3.4 3.3 C 8.0 -1.1 15.5 -1.1 20.0 3.3 Z M 20.0 3.3 " fill="none" stroke="#85878C" stroke-width="2.00" transform="matrix(1.00, 0.00, 0.00, -1.00, 307.1, 462.1)"></path><path d="M 20.0 3.3 C 24.6 7.7 24.6 14.8 20.0 19.2 C 15.5 23.6 8.0 23.6 3.4 19.2 C -1.1 14.8 -1.1 7.7 3.4 3.3 C 8.0 -1.1 15.5 -1.1 20.0 3.3 Z M 20.0 3.3 " fill="none" stroke="#85878C" stroke-width="2.00" transform="matrix(1.00, 0.00, 0.00, -1.00, 159.4, 439.5)"></path><path d="M 20.0 3.3 C 24.6 7.7 24.6 14.8 20.0 19.2 C 15.5 23.6 8.0 23.6 3.4 19.2 C -1.1 14.8 -1.1 7.7 3.4 3.3 C 8.0 -1.1 15.5 -1.1 20.0 3.3 Z M 20.0 3.3 " fill="none" stroke="#85878C" stroke-width="2.00" transform="matrix(1.00, 0.00, 0.00, -1.00, 152.8, 396.8)"></path><path d="M 20.0 3.3 C 24.6 7.7 24.6 14.8 20.0 19.2 C 15.5 23.6 8.0 23.6 3.4 19.2 C -1.1 14.8 -1.1 7.7 3.4 3.3 C 8.0 -1.1 15.5 -1.1 20.0 3.3 Z M 20.0 3.3 " fill="none" stroke="#85878C" stroke-width="2.00" transform="matrix(1.00, 0.00, 0.00, -1.00, 199.7, 450.4)"></path><path d="M 20.0 3.3 C 24.6 7.7 24.6 14.8 20.0 19.2 C 15.5 23.6 8.0 23.6 3.4 19.2 C -1.1 14.8 -1.1 7.7 3.4 3.3 C 8.0 -1.1 15.5 -1.1 20.0 3.3 Z M 20.0 3.3 " fill="none" stroke="#85878C" stroke-width="2.00" transform="matrix(1.00, 0.00, 0.00, -1.00, 198.9, 419.0)"></path><path d="M 20.0 3.3 C 24.6 7.7 24.6 14.8 20.0 19.2 C 15.5 23.6 8.0 23.6 3.4 19.2 C -1.1 14.8 -1.1 7.7 3.4 3.3 C 8.0 -1.1 15.5 -1.1 20.0 3.3 Z M 20.0 3.3 " fill="none" stroke="#85878C" stroke-width="2.00" transform="matrix(1.00, 0.00, 0.00, -1.00, 179.8, 413.1)"></path><path d="M 20.0 3.3 C 24.6 7.7 24.6 14.8 20.0 19.2 C 15.5 23.6 8.0 23.6 3.4 19.2 C -1.1 14.8 -1.1 7.7 3.4 3.3 C 8.0 -1.1 15.5 -1.1 20.0 3.3 Z M 20.0 3.3 " fill="none" stroke="#85878C" stroke-width="2.00" transform="matrix(1.00, 0.00, 0.00, -1.00, 193.4, 387.7)"></path><path d="M 20.0 3.3 C 24.6 7.7 24.6 14.8 20.0 19.2 C 15.5 23.6 8.0 23.6 3.4 19.2 C -1.1 14.8 -1.1 7.7 3.4 3.3 C 8.0 -1.1 15.5 -1.1 20.0 3.3 Z M 20.0 3.3 " fill="none" stroke="#85878C" stroke-width="2.00" transform="matrix(1.00, 0.00, 0.00, -1.00, 245.0, 402.6)"></path><path d="M 20.0 3.3 C 24.6 7.7 24.6 14.8 20.0 19.2 C 15.5 23.6 8.0 23.6 3.4 19.2 C -1.1 14.8 -1.1 7.7 3.4 3.3 C 8.0 -1.1 15.5 -1.1 20.0 3.3 Z M 20.0 3.3 " fill="none" stroke="#85878C" stroke-width="2.00" transform="matrix(1.00, 0.00, 0.00, -1.00, 168.9, 449.0)"></path><path d="M 20.0 3.3 C 24.6 7.7 24.6 14.8 20.0 19.2 C 15.5 23.6 8.0 23.6 3.4 19.2 C -1.1 14.8 -1.1 7.7 3.4 3.3 C 8.0 -1.1 15.5 -1.1 20.0 3.3 Z M 20.0 3.3 " fill="none" stroke="#85878C" stroke-width="2.00" transform="matrix(1.00, 0.00, 0.00, -1.00, 140.2, 413.2)"></path><path d="M 20.0 3.3 C 24.6 7.7 24.6 14.8 20.0 19.2 C 15.5 23.6 8.0 23.6 3.4 19.2 C -1.1 14.8 -1.1 7.7 3.4 3.3 C 8.0 -1.1 15.5 -1.1 20.0 3.3 Z M 20.0 3.3 " fill="none" stroke="#85878C" stroke-width="2.00" transform="matrix(1.00, 0.00, 0.00, -1.00, 224.6, 461.7)"></path><path d="M 20.0 3.3 C 24.6 7.7 24.6 14.8 20.0 19.2 C 15.5 23.6 8.0 23.6 3.4 19.2 C -1.1 14.8 -1.1 7.7 3.4 3.3 C 8.0 -1.1 15.5 -1.1 20.0 3.3 Z M 20.0 3.3 " fill="none" stroke="#85878C" stroke-width="2.00" transform="matrix(1.00, 0.00, 0.00, -1.00, 176.6, 375.7)"></path><path d="M 20.0 3.3 C 24.6 7.7 24.6 14.8 20.0 19.2 C 15.5 23.6 8.0 23.6 3.4 19.2 C -1.1 14.8 -1.1 7.7 3.4 3.3 C 8.0 -1.1 15.5 -1.1 20.0 3.3 Z M 20.0 3.3 " fill="none" stroke="#85878C" stroke-width="2.00" transform="matrix(1.00, 0.00, 0.00, -1.00, 235.1, 372.6)"></path><path d="M 20.0 3.3 C 24.6 7.7 24.6 14.8 20.0 19.2 C 15.5 23.6 8.0 23.6 3.4 19.2 C -1.1 14.8 -1.1 7.7 3.4 3.3 C 8.0 -1.1 15.5 -1.1 20.0 3.3 Z M 20.0 3.3 " fill="none" stroke="#85878C" stroke-width="2.00" transform="matrix(1.00, 0.00, 0.00, -1.00, 219.6, 387.7)"></path><path d="M 20.0 3.3 C 24.6 7.7 24.6 14.8 20.0 19.2 C 15.5 23.6 8.0 23.6 3.4 19.2 C -1.1 14.8 -1.1 7.7 3.4 3.3 C 8.0 -1.1 15.5 -1.1 20.0 3.3 Z M 20.0 3.3 " fill="none" stroke="#85878C" stroke-width="2.00" transform="matrix(1.00, 0.00, 0.00, -1.00, 263.0, 382.6)"></path><path d="M 20.0 3.3 C 24.6 7.7 24.6 14.8 20.0 19.2 C 15.5 23.6 8.0 23.6 3.4 19.2 C -1.1 14.8 -1.1 7.7 3.4 3.3 C 8.0 -1.1 15.5 -1.1 20.0 3.3 Z M 20.0 3.3 " fill="none" stroke="#85878C" stroke-width="2.00" transform="matrix(1.00, 0.00, 0.00, -1.00, 306.8, 438.7)"></path><path d="M 20.0 3.3 C 24.6 7.7 24.6 14.8 20.0 19.2 C 15.5 23.6 8.0 23.6 3.4 19.2 C -1.1 14.8 -1.1 7.7 3.4 3.3 C 8.0 -1.1 15.5 -1.1 20.0 3.3 Z M 20.0 3.3 " fill="none" stroke="#85878C" stroke-width="2.00" transform="matrix(1.00, 0.00, 0.00, -1.00, 169.4, 429.5)"></path><path d="M 20.0 3.3 C 24.6 7.7 24.6 14.8 20.0 19.2 C 15.5 23.6 8.0 23.6 3.4 19.2 C -1.1 14.8 -1.1 7.7 3.4 3.3 C 8.0 -1.1 15.5 -1.1 20.0 3.3 Z M 20.0 3.3 " fill="none" stroke="#85878C" stroke-width="2.00" transform="matrix(1.00, 0.00, 0.00, -1.00, 162.8, 386.8)"></path><path d="M 20.0 3.3 C 24.6 7.7 24.6 14.8 20.0 19.2 C 15.5 23.6 8.0 23.6 3.4 19.2 C -1.1 14.8 -1.1 7.7 3.4 3.3 C 8.0 -1.1 15.5 -1.1 20.0 3.3 Z M 20.0 3.3 " fill="none" stroke="#85878C" stroke-width="2.00" transform="matrix(1.00, 0.00, 0.00, -1.00, 209.7, 440.4)"></path><path d="M 20.0 3.3 C 24.6 7.7 24.6 14.8 20.0 19.2 C 15.5 23.6 8.0 23.6 3.4 19.2 C -1.1 14.8 -1.1 7.7 3.4 3.3 C 8.0 -1.1 15.5 -1.1 20.0 3.3 Z M 20.0 3.3 " fill="none" stroke="#85878C" stroke-width="2.00" transform="matrix(1.00, 0.00, 0.00, -1.00, 208.9, 409.0)"></path><path d="M 20.0 3.3 C 24.6 7.7 24.6 14.8 20.0 19.2 C 15.5 23.6 8.0 23.6 3.4 19.2 C -1.1 14.8 -1.1 7.7 3.4 3.3 C 8.0 -1.1 15.5 -1.1 20.0 3.3 Z M 20.0 3.3 " fill="none" stroke="#85878C" stroke-width="2.00" transform="matrix(1.00, 0.00, 0.00, -1.00, 255.0, 435.4)"></path><path d="M 20.0 3.3 C 24.6 7.7 24.6 14.8 20.0 19.2 C 15.5 23.6 8.0 23.6 3.4 19.2 C -1.1 14.8 -1.1 7.7 3.4 3.3 C 8.0 -1.1 15.5 -1.1 20.0 3.3 Z M 20.0 3.3 " fill="none" stroke="#85878C" stroke-width="2.00" transform="matrix(1.00, 0.00, 0.00, -1.00, 203.4, 377.7)"></path><path d="M 20.0 3.3 C 24.6 7.7 24.6 14.8 20.0 19.2 C 15.5 23.6 8.0 23.6 3.4 19.2 C -1.1 14.8 -1.1 7.7 3.4 3.3 C 8.0 -1.1 15.5 -1.1 20.0 3.3 Z M 20.0 3.3 " fill="none" stroke="#85878C" stroke-width="2.00" transform="matrix(1.00, 0.00, 0.00, -1.00, 255.0, 392.6)"></path><path d="M 20.0 3.3 C 24.6 7.7 24.6 14.8 20.0 19.2 C 15.5 23.6 8.0 23.6 3.4 19.2 C -1.1 14.8 -1.1 7.7 3.4 3.3 C 8.0 -1.1 15.5 -1.1 20.0 3.3 Z M 20.0 3.3 " fill="none" stroke="#85878C" stroke-width="2.00" transform="matrix(1.00, 0.00, 0.00, -1.00, 138.9, 442.7)"></path><path d="M 20.0 3.3 C 24.6 7.7 24.6 14.8 20.0 19.2 C 15.5 23.6 8.0 23.6 3.4 19.2 C -1.1 14.8 -1.1 7.7 3.4 3.3 C 8.0 -1.1 15.5 -1.1 20.0 3.3 Z M 20.0 3.3 " fill="none" stroke="#85878C" stroke-width="2.00" transform="matrix(1.00, 0.00, 0.00, -1.00, 220.5, 356.9)"></path><path d="M 20.0 3.3 C 24.6 7.7 24.6 14.8 20.0 19.2 C 15.5 23.6 8.0 23.6 3.4 19.2 C -1.1 14.8 -1.1 7.7 3.4 3.3 C 8.0 -1.1 15.5 -1.1 20.0 3.3 Z M 20.0 3.3 " fill="none" stroke="#85878C" stroke-width="2.00" transform="matrix(1.00, 0.00, 0.00, -1.00, 234.6, 451.7)"></path><path d="M 20.0 3.3 C 24.6 7.7 24.6 14.8 20.0 19.2 C 15.5 23.6 8.0 23.6 3.4 19.2 C -1.1 14.8 -1.1 7.7 3.4 3.3 C 8.0 -1.1 15.5 -1.1 20.0 3.3 Z M 20.0 3.3 " fill="none" stroke="#85878C" stroke-width="2.00" transform="matrix(1.00, 0.00, 0.00, -1.00, 229.7, 420.4)"></path><path d="M 20.0 3.3 C 24.6 7.7 24.6 14.8 20.0 19.2 C 15.5 23.6 8.0 23.6 3.4 19.2 C -1.1 14.8 -1.1 7.7 3.4 3.3 C 8.0 -1.1 15.5 -1.1 20.0 3.3 Z M 20.0 3.3 " fill="none" stroke="#85878C" stroke-width="2.00" transform="matrix(1.00, 0.00, 0.00, -1.00, 228.9, 389.0)"></path><path d="M 20.0 3.3 C 24.6 7.7 24.6 14.8 20.0 19.2 C 15.5 23.6 8.0 23.6 3.4 19.2 C -1.1 14.8 -1.1 7.7 3.4 3.3 C 8.0 -1.1 15.5 -1.1 20.0 3.3 Z M 20.0 3.3 " fill="none" stroke="#85878C" stroke-width="2.00" transform="matrix(1.00, 0.00, 0.00, -1.00, 275.0, 415.4)"></path><path d="M 20.0 3.3 C 24.6 7.7 24.6 14.8 20.0 19.2 C 15.5 23.6 8.0 23.6 3.4 19.2 C -1.1 14.8 -1.1 7.7 3.4 3.3 C 8.0 -1.1 15.5 -1.1 20.0 3.3 Z M 20.0 3.3 " fill="none" stroke="#85878C" stroke-width="2.00" transform="matrix(1.00, 0.00, 0.00, -1.00, 273.0, 372.6)"></path><path d="M 20.0 3.3 C 24.6 7.7 24.6 14.8 20.0 19.2 C 15.5 23.6 8.0 23.6 3.4 19.2 C -1.1 14.8 -1.1 7.7 3.4 3.3 C 8.0 -1.1 15.5 -1.1 20.0 3.3 Z M 20.0 3.3 " fill="none" stroke="#85878C" stroke-width="2.00" transform="matrix(1.00, 0.00, 0.00, -1.00, 306.8, 386.5)"></path><text xml:space="preserve" font-family="Helvetica-Light" font-size="36.0" fill="#000000" transform="matrix(1.00, 0.00, -0.00, -1.00, 137.0, 270.0)">P</text><text xml:space="preserve" font-family="Helvetica-Light" font-size="36.0" fill="#000000" transform="matrix(1.00, 0.00, -0.00, -1.00, 159.0, 270.0)">o</text><text xml:space="preserve" font-family="Helvetica-Light" font-size="36.0" fill="#000000" transform="matrix(1.00, 0.00, -0.00, -1.00, 179.0, 270.0)">p</text><text xml:space="preserve" font-family="Helvetica-Light" font-size="36.0" fill="#000000" transform="matrix(1.00, 0.00, -0.00, -1.00, 201.0, 270.0)">u</text><text xml:space="preserve" font-family="Helvetica-Light" font-size="36.0" fill="#000000" transform="matrix(1.00, 0.00, -0.00, -1.00, 221.0, 270.0)">l</text><text xml:space="preserve" font-family="Helvetica-Light" font-size="36.0" fill="#000000" transform="matrix(1.00, 0.00, -0.00, -1.00, 229.0, 270.0)">a</text><text xml:space="preserve" font-family="Helvetica-Light" font-size="36.0" fill="#000000" transform="matrix(1.00, 0.00, -0.00, -1.00, 249.0, 270.0)">t</text><text xml:space="preserve" font-family="Helvetica-Light" font-size="36.0" fill="#000000" transform="matrix(1.00, 0.00, -0.00, -1.00, 259.0, 270.0)">i</text><text xml:space="preserve" font-family="Helvetica-Light" font-size="36.0" fill="#000000" transform="matrix(1.00, 0.00, -0.00, -1.00, 267.0, 270.0)">o</text><text xml:space="preserve" font-family="Helvetica-Light" font-size="36.0" fill="#000000" transform="matrix(1.00, 0.00, -0.00, -1.00, 287.0, 270.0)">n</text><text xml:space="preserve" font-family="Helvetica-Light" font-size="36.0" fill="#000000" transform="matrix(1.00, 0.00, -0.00, -1.00, 565.0, 527.0)">W</text><text xml:space="preserve" font-family="Helvetica-Light" font-size="36.0" fill="#000000" transform="matrix(1.00, 0.00, -0.00, -1.00, 596.4, 527.0)">e</text><text xml:space="preserve" font-family="Helvetica-Light" font-size="36.0" fill="#000000" transform="matrix(1.00, 0.00, -0.00, -1.00, 616.4, 527.0)"> </text><text xml:space="preserve" font-family="Helvetica-Light" font-size="36.0" fill="#000000" transform="matrix(1.00, 0.00, -0.00, -1.00, 626.4, 527.0)">a</text><text xml:space="preserve" font-family="Helvetica-Light" font-size="36.0" fill="#000000" transform="matrix(1.00, 0.00, -0.00, -1.00, 646.4, 527.0)">r</text><text xml:space="preserve" font-family="Helvetica-Light" font-size="36.0" fill="#000000" transform="matrix(1.00, 0.00, -0.00, -1.00, 657.7, 527.0)">e</text><text xml:space="preserve" font-family="Helvetica-Light" font-size="36.0" fill="#000000" transform="matrix(1.00, 0.00, -0.00, -1.00, 677.8, 527.0)"> </text><text xml:space="preserve" font-family="Helvetica-Light" font-size="36.0" fill="#000000" transform="matrix(1.00, 0.00, -0.00, -1.00, 687.8, 527.0)">u</text><text xml:space="preserve" font-family="Helvetica-Light" font-size="36.0" fill="#000000" transform="matrix(1.00, 0.00, -0.00, -1.00, 707.8, 527.0)">s</text><text xml:space="preserve" font-family="Helvetica-Light" font-size="36.0" fill="#000000" transform="matrix(1.00, 0.00, -0.00, -1.00, 725.8, 527.0)">u</text><text xml:space="preserve" font-family="Helvetica-Light" font-size="36.0" fill="#000000" transform="matrix(1.00, 0.00, -0.00, -1.00, 745.8, 527.0)">a</text><text xml:space="preserve" font-family="Helvetica-Light" font-size="36.0" fill="#000000" transform="matrix(1.00, 0.00, -0.00, -1.00, 765.8, 527.0)">l</text><text xml:space="preserve" font-family="Helvetica-Light" font-size="36.0" fill="#000000" transform="matrix(1.00, 0.00, -0.00, -1.00, 773.8, 527.0)">l</text><text xml:space="preserve" font-family="Helvetica-Light" font-size="36.0" fill="#000000" transform="matrix(1.00, 0.00, -0.00, -1.00, 781.8, 527.0)">y</text><text xml:space="preserve" font-family="Helvetica-Light" font-size="36.0" fill="#000000" transform="matrix(1.00, 0.00, -0.00, -1.00, 799.8, 527.0)"> </text><text xml:space="preserve" font-family="Helvetica-Light" font-size="36.0" fill="#000000" transform="matrix(1.00, 0.00, -0.00, -1.00, 495.0, 484.0)">i</text><text xml:space="preserve" font-family="Helvetica-Light" font-size="36.0" fill="#000000" transform="matrix(1.00, 0.00, -0.00, -1.00, 503.0, 484.0)">n</text><text xml:space="preserve" font-family="Helvetica-Light" font-size="36.0" fill="#000000" transform="matrix(1.00, 0.00, -0.00, -1.00, 523.0, 484.0)">t</text><text xml:space="preserve" font-family="Helvetica-Light" font-size="36.0" fill="#000000" transform="matrix(1.00, 0.00, -0.00, -1.00, 533.0, 484.0)">e</text><text xml:space="preserve" font-family="Helvetica-Light" font-size="36.0" fill="#000000" transform="matrix(1.00, 0.00, -0.00, -1.00, 553.0, 484.0)">r</text><text xml:space="preserve" font-family="Helvetica-Light" font-size="36.0" fill="#000000" transform="matrix(1.00, 0.00, -0.00, -1.00, 564.4, 484.0)">e</text><text xml:space="preserve" font-family="Helvetica-Light" font-size="36.0" fill="#000000" transform="matrix(1.00, 0.00, -0.00, -1.00, 584.4, 484.0)">s</text><text xml:space="preserve" font-family="Helvetica-Light" font-size="36.0" fill="#000000" transform="matrix(1.00, 0.00, -0.00, -1.00, 602.4, 484.0)">t</text><text xml:space="preserve" font-family="Helvetica-Light" font-size="36.0" fill="#000000" transform="matrix(1.00, 0.00, -0.00, -1.00, 612.4, 484.0)">e</text><text xml:space="preserve" font-family="Helvetica-Light" font-size="36.0" fill="#000000" transform="matrix(1.00, 0.00, -0.00, -1.00, 632.4, 484.0)">d</text><text xml:space="preserve" font-family="Helvetica-Light" font-size="36.0" fill="#000000" transform="matrix(1.00, 0.00, -0.00, -1.00, 654.4, 484.0)"> </text><text xml:space="preserve" font-family="Helvetica-Light" font-size="36.0" fill="#000000" transform="matrix(1.00, 0.00, -0.00, -1.00, 664.4, 484.0)">i</text><text xml:space="preserve" font-family="Helvetica-Light" font-size="36.0" fill="#000000" transform="matrix(1.00, 0.00, -0.00, -1.00, 672.4, 484.0)">n</text><text xml:space="preserve" font-family="Helvetica-Light" font-size="36.0" fill="#000000" transform="matrix(1.00, 0.00, -0.00, -1.00, 692.4, 484.0)"> </text><text xml:space="preserve" font-family="Helvetica-Light" font-size="36.0" fill="#000000" transform="matrix(1.00, 0.00, -0.00, -1.00, 702.4, 484.0)">s</text><text xml:space="preserve" font-family="Helvetica-Light" font-size="36.0" fill="#000000" transform="matrix(1.00, 0.00, -0.00, -1.00, 720.4, 484.0)">t</text><text xml:space="preserve" font-family="Helvetica-Light" font-size="36.0" fill="#000000" transform="matrix(1.00, 0.00, -0.00, -1.00, 730.4, 484.0)">u</text><text xml:space="preserve" font-family="Helvetica-Light" font-size="36.0" fill="#000000" transform="matrix(1.00, 0.00, -0.00, -1.00, 750.5, 484.0)">d</text><text xml:space="preserve" font-family="Helvetica-Light" font-size="36.0" fill="#000000" transform="matrix(1.00, 0.00, -0.00, -1.00, 772.5, 484.0)">y</text><text xml:space="preserve" font-family="Helvetica-Light" font-size="36.0" fill="#000000" transform="matrix(1.00, 0.00, -0.00, -1.00, 790.5, 484.0)">i</text><text xml:space="preserve" font-family="Helvetica-Light" font-size="36.0" fill="#000000" transform="matrix(1.00, 0.00, -0.00, -1.00, 798.4, 484.0)">n</text><text xml:space="preserve" font-family="Helvetica-Light" font-size="36.0" fill="#000000" transform="matrix(1.00, 0.00, -0.00, -1.00, 818.5, 484.0)">g</text><text xml:space="preserve" font-family="Helvetica-Light" font-size="36.0" fill="#000000" transform="matrix(1.00, 0.00, -0.00, -1.00, 840.5, 484.0)"> </text><text xml:space="preserve" font-family="Helvetica-Light" font-size="36.0" fill="#000000" transform="matrix(1.00, 0.00, -0.00, -1.00, 850.5, 484.0)">a</text><text xml:space="preserve" font-family="Helvetica-Light" font-size="36.0" fill="#000000" transform="matrix(1.00, 0.00, -0.00, -1.00, 870.5, 484.0)"> </text><text xml:space="preserve" font-family="Helvetica-Light" font-size="36.0" fill="#000000" transform="matrix(1.00, 0.00, -0.00, -1.00, 513.0, 441.0)">c</text><text xml:space="preserve" font-family="Helvetica-Light" font-size="36.0" fill="#000000" transform="matrix(1.00, 0.00, -0.00, -1.00, 533.0, 441.0)">o</text><text xml:space="preserve" font-family="Helvetica-Light" font-size="36.0" fill="#000000" transform="matrix(1.00, 0.00, -0.00, -1.00, 553.0, 441.0)">l</text><text xml:space="preserve" font-family="Helvetica-Light" font-size="36.0" fill="#000000" transform="matrix(1.00, 0.00, -0.00, -1.00, 561.0, 441.0)">l</text><text xml:space="preserve" font-family="Helvetica-Light" font-size="36.0" fill="#000000" transform="matrix(1.00, 0.00, -0.00, -1.00, 569.0, 441.0)">e</text><text xml:space="preserve" font-family="Helvetica-Light" font-size="36.0" fill="#000000" transform="matrix(1.00, 0.00, -0.00, -1.00, 589.0, 441.0)">c</text><text xml:space="preserve" font-family="Helvetica-Light" font-size="36.0" fill="#000000" transform="matrix(1.00, 0.00, -0.00, -1.00, 609.0, 441.0)">t</text><text xml:space="preserve" font-family="Helvetica-Light" font-size="36.0" fill="#000000" transform="matrix(1.00, 0.00, -0.00, -1.00, 619.1, 441.0)">i</text><text xml:space="preserve" font-family="Helvetica-Light" font-size="36.0" fill="#000000" transform="matrix(1.00, 0.00, -0.00, -1.00, 627.0, 441.0)">o</text><text xml:space="preserve" font-family="Helvetica-Light" font-size="36.0" fill="#000000" transform="matrix(1.00, 0.00, -0.00, -1.00, 647.1, 441.0)">n</text><text xml:space="preserve" font-family="Helvetica-Light" font-size="36.0" fill="#000000" transform="matrix(1.00, 0.00, -0.00, -1.00, 667.1, 441.0)"> </text><text xml:space="preserve" font-family="Helvetica-Light" font-size="36.0" fill="#000000" transform="matrix(1.00, 0.00, -0.00, -1.00, 677.1, 441.0)">o</text><text xml:space="preserve" font-family="Helvetica-Light" font-size="36.0" fill="#000000" transform="matrix(1.00, 0.00, -0.00, -1.00, 697.1, 441.0)">f</text><text xml:space="preserve" font-family="Helvetica-Light" font-size="36.0" fill="#000000" transform="matrix(1.00, 0.00, -0.00, -1.00, 707.1, 441.0)"> </text><text xml:space="preserve" font-family="Helvetica-Light" font-size="36.0" fill="#000000" transform="matrix(1.00, 0.00, -0.00, -1.00, 717.1, 441.0)">e</text><text xml:space="preserve" font-family="Helvetica-Light" font-size="36.0" fill="#000000" transform="matrix(1.00, 0.00, -0.00, -1.00, 737.1, 441.0)">n</text><text xml:space="preserve" font-family="Helvetica-Light" font-size="36.0" fill="#000000" transform="matrix(1.00, 0.00, -0.00, -1.00, 757.2, 441.0)">t</text><text xml:space="preserve" font-family="Helvetica-Light" font-size="36.0" fill="#000000" transform="matrix(1.00, 0.00, -0.00, -1.00, 767.2, 441.0)">i</text><text xml:space="preserve" font-family="Helvetica-Light" font-size="36.0" fill="#000000" transform="matrix(1.00, 0.00, -0.00, -1.00, 775.2, 441.0)">t</text><text xml:space="preserve" font-family="Helvetica-Light" font-size="36.0" fill="#000000" transform="matrix(1.00, 0.00, -0.00, -1.00, 785.2, 441.0)">i</text><text xml:space="preserve" font-family="Helvetica-Light" font-size="36.0" fill="#000000" transform="matrix(1.00, 0.00, -0.00, -1.00, 793.2, 441.0)">e</text><text xml:space="preserve" font-family="Helvetica-Light" font-size="36.0" fill="#000000" transform="matrix(1.00, 0.00, -0.00, -1.00, 813.2, 441.0)">s</text><text xml:space="preserve" font-family="Helvetica-Light" font-size="36.0" fill="#000000" transform="matrix(1.00, 0.00, -0.00, -1.00, 831.2, 441.0)"> </text><text xml:space="preserve" font-family="Helvetica-Light" font-size="36.0" fill="#000000" transform="matrix(1.00, 0.00, -0.00, -1.00, 841.2, 441.0)">-</text><text xml:space="preserve" font-family="Helvetica-Light" font-size="36.0" fill="#000000" transform="matrix(1.00, 0.00, -0.00, -1.00, 853.2, 441.0)"> </text><text xml:space="preserve" font-family="Helvetica-Light" font-size="36.0" fill="#000000" transform="matrix(1.00, 0.00, -0.00, -1.00, 512.0, 398.0)">c</text><text xml:space="preserve" font-family="Helvetica-Light" font-size="36.0" fill="#000000" transform="matrix(1.00, 0.00, -0.00, -1.00, 532.0, 398.0)">u</text><text xml:space="preserve" font-family="Helvetica-Light" font-size="36.0" fill="#000000" transform="matrix(1.00, 0.00, -0.00, -1.00, 552.0, 398.0)">s</text><text xml:space="preserve" font-family="Helvetica-Light" font-size="36.0" fill="#000000" transform="matrix(1.00, 0.00, -0.00, -1.00, 570.0, 398.0)">t</text><text xml:space="preserve" font-family="Helvetica-Light" font-size="36.0" fill="#000000" transform="matrix(1.00, 0.00, -0.00, -1.00, 580.0, 398.0)">o</text><text xml:space="preserve" font-family="Helvetica-Light" font-size="36.0" fill="#000000" transform="matrix(1.00, 0.00, -0.00, -1.00, 600.1, 398.0)">m</text><text xml:space="preserve" font-family="Helvetica-Light" font-size="36.0" fill="#000000" transform="matrix(1.00, 0.00, -0.00, -1.00, 630.0, 398.0)">e</text><text xml:space="preserve" font-family="Helvetica-Light" font-size="36.0" fill="#000000" transform="matrix(1.00, 0.00, -0.00, -1.00, 650.1, 398.0)">r</text><text xml:space="preserve" font-family="Helvetica-Light" font-size="36.0" fill="#000000" transform="matrix(1.00, 0.00, -0.00, -1.00, 662.0, 398.0)">s</text><text xml:space="preserve" font-family="Helvetica-Light" font-size="36.0" fill="#000000" transform="matrix(1.00, 0.00, -0.00, -1.00, 680.0, 398.0)">,</text><text xml:space="preserve" font-family="Helvetica-Light" font-size="36.0" fill="#000000" transform="matrix(1.00, 0.00, -0.00, -1.00, 690.1, 398.0)"> </text><text xml:space="preserve" font-family="Helvetica-Light" font-size="36.0" fill="#000000" transform="matrix(1.00, 0.00, -0.00, -1.00, 700.1, 398.0)">p</text><text xml:space="preserve" font-family="Helvetica-Light" font-size="36.0" fill="#000000" transform="matrix(1.00, 0.00, -0.00, -1.00, 722.1, 398.0)">r</text><text xml:space="preserve" font-family="Helvetica-Light" font-size="36.0" fill="#000000" transform="matrix(1.00, 0.00, -0.00, -1.00, 733.4, 398.0)">o</text><text xml:space="preserve" font-family="Helvetica-Light" font-size="36.0" fill="#000000" transform="matrix(1.00, 0.00, -0.00, -1.00, 753.4, 398.0)">d</text><text xml:space="preserve" font-family="Helvetica-Light" font-size="36.0" fill="#000000" transform="matrix(1.00, 0.00, -0.00, -1.00, 775.4, 398.0)">u</text><text xml:space="preserve" font-family="Helvetica-Light" font-size="36.0" fill="#000000" transform="matrix(1.00, 0.00, -0.00, -1.00, 795.4, 398.0)">c</text><text xml:space="preserve" font-family="Helvetica-Light" font-size="36.0" fill="#000000" transform="matrix(1.00, 0.00, -0.00, -1.00, 815.4, 398.0)">t</text><text xml:space="preserve" font-family="Helvetica-Light" font-size="36.0" fill="#000000" transform="matrix(1.00, 0.00, -0.00, -1.00, 825.5, 398.0)">s</text><text xml:space="preserve" font-family="Helvetica-Light" font-size="36.0" fill="#000000" transform="matrix(1.00, 0.00, -0.00, -1.00, 843.5, 398.0)">,</text><text xml:space="preserve" font-family="Helvetica-Light" font-size="36.0" fill="#000000" transform="matrix(1.00, 0.00, -0.00, -1.00, 853.5, 398.0)"> </text><text xml:space="preserve" font-family="Helvetica-Light" font-size="36.0" fill="#000000" transform="matrix(1.00, 0.00, -0.00, -1.00, 512.0, 355.0)">v</text><text xml:space="preserve" font-family="Helvetica-Light" font-size="36.0" fill="#000000" transform="matrix(1.00, 0.00, -0.00, -1.00, 530.0, 355.0)">o</text><text xml:space="preserve" font-family="Helvetica-Light" font-size="36.0" fill="#000000" transform="matrix(1.00, 0.00, -0.00, -1.00, 550.0, 355.0)">t</text><text xml:space="preserve" font-family="Helvetica-Light" font-size="36.0" fill="#000000" transform="matrix(1.00, 0.00, -0.00, -1.00, 560.0, 355.0)">e</text><text xml:space="preserve" font-family="Helvetica-Light" font-size="36.0" fill="#000000" transform="matrix(1.00, 0.00, -0.00, -1.00, 580.0, 355.0)">r</text><text xml:space="preserve" font-family="Helvetica-Light" font-size="36.0" fill="#000000" transform="matrix(1.00, 0.00, -0.00, -1.00, 592.0, 355.0)">s</text><text xml:space="preserve" font-family="Helvetica-Light" font-size="36.0" fill="#000000" transform="matrix(1.00, 0.00, -0.00, -1.00, 610.0, 355.0)">,</text><text xml:space="preserve" font-family="Helvetica-Light" font-size="36.0" fill="#000000" transform="matrix(1.00, 0.00, -0.00, -1.00, 620.0, 355.0)"> </text><text xml:space="preserve" font-family="Helvetica-Light" font-size="36.0" fill="#000000" transform="matrix(1.00, 0.00, -0.00, -1.00, 630.0, 355.0)">e</text><text xml:space="preserve" font-family="Helvetica-Light" font-size="36.0" fill="#000000" transform="matrix(1.00, 0.00, -0.00, -1.00, 650.1, 355.0)">t</text><text xml:space="preserve" font-family="Helvetica-Light" font-size="36.0" fill="#000000" transform="matrix(1.00, 0.00, -0.00, -1.00, 660.1, 355.0)">c</text><text xml:space="preserve" font-family="Helvetica-Light" font-size="36.0" fill="#000000" transform="matrix(1.00, 0.00, -0.00, -1.00, 680.1, 355.0)">…</text><text xml:space="preserve" font-family="Helvetica-Light" font-size="36.0" fill="#000000" transform="matrix(1.00, 0.00, -0.00, -1.00, 716.1, 355.0)"> </text><text xml:space="preserve" font-family="Helvetica-Light" font-size="36.0" fill="#000000" transform="matrix(1.00, 0.00, -0.00, -1.00, 726.1, 355.0)"> </text><text xml:space="preserve" font-family="Helvetica-Light" font-size="36.0" fill="#000000" transform="matrix(1.00, 0.00, -0.00, -1.00, 736.1, 355.0)">W</text><text xml:space="preserve" font-family="Helvetica-Light" font-size="36.0" fill="#000000" transform="matrix(1.00, 0.00, -0.00, -1.00, 767.5, 355.0)">e</text><text xml:space="preserve" font-family="Helvetica-Light" font-size="36.0" fill="#000000" transform="matrix(1.00, 0.00, -0.00, -1.00, 787.5, 355.0)"> </text><text xml:space="preserve" font-family="Helvetica-Light" font-size="36.0" fill="#000000" transform="matrix(1.00, 0.00, -0.00, -1.00, 797.5, 355.0)">c</text><text xml:space="preserve" font-family="Helvetica-Light" font-size="36.0" fill="#000000" transform="matrix(1.00, 0.00, -0.00, -1.00, 817.5, 355.0)">a</text><text xml:space="preserve" font-family="Helvetica-Light" font-size="36.0" fill="#000000" transform="matrix(1.00, 0.00, -0.00, -1.00, 837.5, 355.0)">l</text><text xml:space="preserve" font-family="Helvetica-Light" font-size="36.0" fill="#000000" transform="matrix(1.00, 0.00, -0.00, -1.00, 845.5, 355.0)">l</text><text xml:space="preserve" font-family="Helvetica-Light" font-size="36.0" fill="#000000" transform="matrix(1.00, 0.00, -0.00, -1.00, 853.5, 355.0)"> </text><text xml:space="preserve" font-family="Helvetica-Light" font-size="36.0" fill="#000000" transform="matrix(1.00, 0.00, -0.00, -1.00, 573.0, 312.0)">t</text><text xml:space="preserve" font-family="Helvetica-Light" font-size="36.0" fill="#000000" transform="matrix(1.00, 0.00, -0.00, -1.00, 583.0, 312.0)">h</text><text xml:space="preserve" font-family="Helvetica-Light" font-size="36.0" fill="#000000" transform="matrix(1.00, 0.00, -0.00, -1.00, 603.0, 312.0)">i</text><text xml:space="preserve" font-family="Helvetica-Light" font-size="36.0" fill="#000000" transform="matrix(1.00, 0.00, -0.00, -1.00, 611.0, 312.0)">s</text><text xml:space="preserve" font-family="Helvetica-Light" font-size="36.0" fill="#000000" transform="matrix(1.00, 0.00, -0.00, -1.00, 629.0, 312.0)"> </text><text xml:space="preserve" font-family="Helvetica-Light" font-size="36.0" fill="#000000" transform="matrix(1.00, 0.00, -0.00, -1.00, 639.0, 312.0)">c</text><text xml:space="preserve" font-family="Helvetica-Light" font-size="36.0" fill="#000000" transform="matrix(1.00, 0.00, -0.00, -1.00, 659.0, 312.0)">o</text><text xml:space="preserve" font-family="Helvetica-Light" font-size="36.0" fill="#000000" transform="matrix(1.00, 0.00, -0.00, -1.00, 679.1, 312.0)">l</text><text xml:space="preserve" font-family="Helvetica-Light" font-size="36.0" fill="#000000" transform="matrix(1.00, 0.00, -0.00, -1.00, 687.0, 312.0)">l</text><text xml:space="preserve" font-family="Helvetica-Light" font-size="36.0" fill="#000000" transform="matrix(1.00, 0.00, -0.00, -1.00, 695.0, 312.0)">e</text><text xml:space="preserve" font-family="Helvetica-Light" font-size="36.0" fill="#000000" transform="matrix(1.00, 0.00, -0.00, -1.00, 715.1, 312.0)">c</text><text xml:space="preserve" font-family="Helvetica-Light" font-size="36.0" fill="#000000" transform="matrix(1.00, 0.00, -0.00, -1.00, 735.1, 312.0)">t</text><text xml:space="preserve" font-family="Helvetica-Light" font-size="36.0" fill="#000000" transform="matrix(1.00, 0.00, -0.00, -1.00, 745.1, 312.0)">i</text><text xml:space="preserve" font-family="Helvetica-Light" font-size="36.0" fill="#000000" transform="matrix(1.00, 0.00, -0.00, -1.00, 753.1, 312.0)">o</text><text xml:space="preserve" font-family="Helvetica-Light" font-size="36.0" fill="#000000" transform="matrix(1.00, 0.00, -0.00, -1.00, 773.1, 312.0)">n</text><text xml:space="preserve" font-family="Helvetica-Light" font-size="36.0" fill="#000000" transform="matrix(1.00, 0.00, -0.00, -1.00, 793.1, 312.0)"> </text><text xml:space="preserve" font-family="Helvetica-Light" font-size="36.0" fill="#000000" transform="matrix(1.00, 0.00, -0.00, -1.00, 590.0, 269.0)">‘</text><text xml:space="preserve" font-family="Helvetica-Light" font-size="36.0" fill="#000000" transform="matrix(1.00, 0.00, -0.00, -1.00, 598.0, 269.0)">p</text><text xml:space="preserve" font-family="Helvetica-Light" font-size="36.0" fill="#000000" transform="matrix(1.00, 0.00, -0.00, -1.00, 620.0, 269.0)">o</text><text xml:space="preserve" font-family="Helvetica-Light" font-size="36.0" fill="#000000" transform="matrix(1.00, 0.00, -0.00, -1.00, 640.0, 269.0)">p</text><text xml:space="preserve" font-family="Helvetica-Light" font-size="36.0" fill="#000000" transform="matrix(1.00, 0.00, -0.00, -1.00, 662.0, 269.0)">u</text><text xml:space="preserve" font-family="Helvetica-Light" font-size="36.0" fill="#000000" transform="matrix(1.00, 0.00, -0.00, -1.00, 682.0, 269.0)">l</text><text xml:space="preserve" font-family="Helvetica-Light" font-size="36.0" fill="#000000" transform="matrix(1.00, 0.00, -0.00, -1.00, 690.0, 269.0)">a</text><text xml:space="preserve" font-family="Helvetica-Light" font-size="36.0" fill="#000000" transform="matrix(1.00, 0.00, -0.00, -1.00, 710.0, 269.0)">t</text><text xml:space="preserve" font-family="Helvetica-Light" font-size="36.0" fill="#000000" transform="matrix(1.00, 0.00, -0.00, -1.00, 720.0, 269.0)">i</text><text xml:space="preserve" font-family="Helvetica-Light" font-size="36.0" fill="#000000" transform="matrix(1.00, 0.00, -0.00, -1.00, 728.0, 269.0)">o</text><text xml:space="preserve" font-family="Helvetica-Light" font-size="36.0" fill="#000000" transform="matrix(1.00, 0.00, -0.00, -1.00, 748.0, 269.0)">n</text><text xml:space="preserve" font-family="Helvetica-Light" font-size="36.0" fill="#000000" transform="matrix(1.00, 0.00, -0.00, -1.00, 768.1, 269.0)">’</text><text xml:space="preserve" font-family="Helvetica-Light" font-size="36.0" fill="#000000" transform="matrix(1.00, 0.00, -0.00, -1.00, 776.0, 269.0)"> </text></g></svg>