<?xml version="1.0" encoding="UTF-8" standalone="no"?><svg xmlns="http://www.w3.org/2000/svg" xmlns:xlink="http://www.w3.org/1999/xlink" clip-rule="evenodd" stroke-miterlimit="4.00" viewBox="0 0 819 35"><desc>SVG generated by Keynote</desc><defs></defs><g transform="matrix(1.00, 0.00, -0.00, -1.00, 0.0, 35.0)"><image xlink:href="../../80D652E6-030D-45D7-9245-397BF52C8666/assets/525DFB3AF27C91A2505A88334267C82D.png" width="18.00" height="22.00" transform="matrix(0.70, 0.00, -0.00, -0.68, 0.0, 25.2)"></image><text xml:space="preserve" font-family="Helvetica-Light" font-size="33.5" fill="#000000" transform="matrix(1.00, 0.00, -0.00, -1.00, 33.0, 9.0)">H</text><text xml:space="preserve" font-family="Helvetica-Light" font-size="33.5" fill="#000000" transform="matrix(1.00, 0.00, -0.00, -1.00, 57.2, 9.0)">o</text><text xml:space="preserve" font-family="Helvetica-Light" font-size="33.5" fill="#000000" transform="matrix(1.00, 0.00, -0.00, -1.00, 75.8, 9.0)">w</text><text xml:space="preserve" font-family="Helvetica-Light" font-size="33.5" fill="#000000" transform="matrix(1.00, 0.00, -0.00, -1.00, 100.0, 9.0)"> </text><text xml:space="preserve" font-family="Helvetica-Light" font-size="33.5" fill="#000000" transform="matrix(1.00, 0.00, -0.00, -1.00, 109.3, 9.0)">d</text><text xml:space="preserve" font-family="Helvetica-Light" font-size="33.5" fill="#000000" transform="matrix(1.00, 0.00, -0.00, -1.00, 129.7, 9.0)">o</text><text xml:space="preserve" font-family="Helvetica-Light" font-size="33.5" fill="#000000" transform="matrix(1.00, 0.00, -0.00, -1.00, 148.3, 9.0)">e</text><text xml:space="preserve" font-family="Helvetica-Light" font-size="33.5" fill="#000000" transform="matrix(1.00, 0.00, -0.00, -1.00, 167.0, 9.0)">s</text><text xml:space="preserve" font-family="Helvetica-Light" font-size="33.5" fill="#000000" transform="matrix(1.00, 0.00, -0.00, -1.00, 183.7, 9.0)"> </text><text xml:space="preserve" font-family="Helvetica-Light" font-size="33.5" fill="#000000" transform="matrix(1.00, 0.00, -0.00, -1.00, 193.0, 9.0)">N</text><text xml:space="preserve" font-family="Helvetica-Light" font-size="33.5" fill="#000000" transform="matrix(1.00, 0.00, -0.00, -1.00, 217.2, 9.0)">e</text><text xml:space="preserve" font-family="Helvetica-Light" font-size="33.5" fill="#000000" transform="matrix(1.00, 0.00, -0.00, -1.00, 235.8, 9.0)">t</text><text xml:space="preserve" font-family="Helvetica-Light" font-size="33.5" fill="#000000" transform="matrix(1.00, 0.00, -0.00, -1.00, 245.1, 9.0)">ﬂ</text><text xml:space="preserve" font-family="Helvetica-Light" font-size="33.5" fill="#000000" transform="matrix(1.00, 0.00, -0.00, -1.00, 261.8, 9.0)">i</text><text xml:space="preserve" font-family="Helvetica-Light" font-size="33.5" fill="#000000" transform="matrix(1.00, 0.00, -0.00, -1.00, 269.3, 9.0)">x</text><text xml:space="preserve" font-family="Helvetica-Light" font-size="33.5" fill="#000000" transform="matrix(1.00, 0.00, -0.00, -1.00, 286.0, 9.0)"> </text><text xml:space="preserve" font-family="Helvetica-Light" font-size="33.5" fill="#000000" transform="matrix(1.00, 0.00, -0.00, -1.00, 295.3, 9.0)">k</text><text xml:space="preserve" font-family="Helvetica-Light" font-size="33.5" fill="#000000" transform="matrix(1.00, 0.00, -0.00, -1.00, 312.1, 9.0)">n</text><text xml:space="preserve" font-family="Helvetica-Light" font-size="33.5" fill="#000000" transform="matrix(1.00, 0.00, -0.00, -1.00, 330.7, 9.0)">o</text><text xml:space="preserve" font-family="Helvetica-Light" font-size="33.5" fill="#000000" transform="matrix(1.00, 0.00, -0.00, -1.00, 349.3, 9.0)">w</text><text xml:space="preserve" font-family="Helvetica-Light" font-size="33.5" fill="#000000" transform="matrix(1.00, 0.00, -0.00, -1.00, 373.5, 9.0)"> </text><text xml:space="preserve" font-family="Helvetica-Light" font-size="33.5" fill="#000000" transform="matrix(1.00, 0.00, -0.00, -1.00, 382.8, 9.0)">w</text><text xml:space="preserve" font-family="Helvetica-Light" font-size="33.5" fill="#000000" transform="matrix(1.00, 0.00, -0.00, -1.00, 406.9, 9.0)">h</text><text xml:space="preserve" font-family="Helvetica-Light" font-size="33.5" fill="#000000" transform="matrix(1.00, 0.00, -0.00, -1.00, 425.6, 9.0)">a</text><text xml:space="preserve" font-family="Helvetica-Light" font-size="33.5" fill="#000000" transform="matrix(1.00, 0.00, -0.00, -1.00, 444.2, 9.0)">t</text><text xml:space="preserve" font-family="Helvetica-Light" font-size="33.5" fill="#000000" transform="matrix(1.00, 0.00, -0.00, -1.00, 453.5, 9.0)"> </text><text xml:space="preserve" font-family="Helvetica-Light" font-size="33.5" fill="#000000" transform="matrix(1.00, 0.00, -0.00, -1.00, 462.8, 9.0)">k</text><text xml:space="preserve" font-family="Helvetica-Light" font-size="33.5" fill="#000000" transform="matrix(1.00, 0.00, -0.00, -1.00, 479.5, 9.0)">i</text><text xml:space="preserve" font-family="Helvetica-Light" font-size="33.5" fill="#000000" transform="matrix(1.00, 0.00, -0.00, -1.00, 487.0, 9.0)">n</text><text xml:space="preserve" font-family="Helvetica-Light" font-size="33.5" fill="#000000" transform="matrix(1.00, 0.00, -0.00, -1.00, 505.6, 9.0)">d</text><text xml:space="preserve" font-family="Helvetica-Light" font-size="33.5" fill="#000000" transform="matrix(1.00, 0.00, -0.00, -1.00, 526.0, 9.0)"> </text><text xml:space="preserve" font-family="Helvetica-Light" font-size="33.5" fill="#000000" transform="matrix(1.00, 0.00, -0.00, -1.00, 535.3, 9.0)">o</text><text xml:space="preserve" font-family="Helvetica-Light" font-size="33.5" fill="#000000" transform="matrix(1.00, 0.00, -0.00, -1.00, 553.9, 9.0)">f</text><text xml:space="preserve" font-family="Helvetica-Light" font-size="33.5" fill="#000000" transform="matrix(1.00, 0.00, -0.00, -1.00, 563.3, 9.0)"> </text><text xml:space="preserve" font-family="Helvetica-Light" font-size="33.5" fill="#000000" transform="matrix(1.00, 0.00, -0.00, -1.00, 572.6, 9.0)">m</text><text xml:space="preserve" font-family="Helvetica-Light" font-size="33.5" fill="#000000" transform="matrix(1.00, 0.00, -0.00, -1.00, 600.5, 9.0)">o</text><text xml:space="preserve" font-family="Helvetica-Light" font-size="33.5" fill="#000000" transform="matrix(1.00, 0.00, -0.00, -1.00, 619.1, 9.0)">v</text><text xml:space="preserve" font-family="Helvetica-Light" font-size="33.5" fill="#000000" transform="matrix(1.00, 0.00, -0.00, -1.00, 635.8, 9.0)">i</text><text xml:space="preserve" font-family="Helvetica-Light" font-size="33.5" fill="#000000" transform="matrix(1.00, 0.00, -0.00, -1.00, 643.2, 9.0)">e</text><text xml:space="preserve" font-family="Helvetica-Light" font-size="33.5" fill="#000000" transform="matrix(1.00, 0.00, -0.00, -1.00, 661.9, 9.0)">s</text><text xml:space="preserve" font-family="Helvetica-Light" font-size="33.5" fill="#000000" transform="matrix(1.00, 0.00, -0.00, -1.00, 678.6, 9.0)"> </text><text xml:space="preserve" font-family="Helvetica-Light" font-size="33.5" fill="#000000" transform="matrix(1.00, 0.00, -0.00, -1.00, 687.9, 9.0)">y</text><text xml:space="preserve" font-family="Helvetica-Light" font-size="33.5" fill="#000000" transform="matrix(1.00, 0.00, -0.00, -1.00, 704.6, 9.0)">o</text><text xml:space="preserve" font-family="Helvetica-Light" font-size="33.5" fill="#000000" transform="matrix(1.00, 0.00, -0.00, -1.00, 723.3, 9.0)">u</text><text xml:space="preserve" font-family="Helvetica-Light" font-size="33.5" fill="#000000" transform="matrix(1.00, 0.00, -0.00, -1.00, 741.9, 9.0)"> </text><text xml:space="preserve" font-family="Helvetica-Light" font-size="33.5" fill="#000000" transform="matrix(1.00, 0.00, -0.00, -1.00, 751.2, 9.0)">l</text><text xml:space="preserve" font-family="Helvetica-Light" font-size="33.5" fill="#000000" transform="matrix(1.00, 0.00, -0.00, -1.00, 758.6, 9.0)">i</text><text xml:space="preserve" font-family="Helvetica-Light" font-size="33.5" fill="#000000" transform="matrix(1.00, 0.00, -0.00, -1.00, 766.0, 9.0)">k</text><text xml:space="preserve" font-family="Helvetica-Light" font-size="33.5" fill="#000000" transform="matrix(1.00, 0.00, -0.00, -1.00, 782.8, 9.0)">e</text><text xml:space="preserve" font-family="Helvetica-Light" font-size="33.5" fill="#000000" transform="matrix(1.00, 0.00, -0.00, -1.00, 801.4, 9.0)">?</text><text xml:space="preserve" font-family="Helvetica-Light" font-size="33.5" fill="#000000" transform="matrix(1.00, 0.00, -0.00, -1.00, 818.1, 9.0)"> </text></g></svg>