<?xml version="1.0" encoding="UTF-8" standalone="no"?><svg xmlns="http://www.w3.org/2000/svg" xmlns:xlink="http://www.w3.org/1999/xlink" clip-rule="evenodd" stroke-miterlimit="4.00" viewBox="0 0 826 117"><desc>SVG generated by Keynote</desc><defs></defs><g transform="matrix(1.00, 0.00, -0.00, -1.00, 0.0, 117.0)"><image xlink:href="../../80D652E6-030D-45D7-9245-397BF52C8666/assets/525DFB3AF27C91A2505A88334267C82D.png" width="18.00" height="22.00" transform="matrix(0.70, 0.00, -0.00, -0.68, 0.0, 107.2)"></image><text xml:space="preserve" font-family="Helvetica-Light" font-size="33.5" fill="#000000" transform="matrix(1.00, 0.00, -0.00, -1.00, 33.0, 91.0)">H</text><text xml:space="preserve" font-family="Helvetica-Light" font-size="33.5" fill="#000000" transform="matrix(1.00, 0.00, -0.00, -1.00, 57.2, 91.0)">o</text><text xml:space="preserve" font-family="Helvetica-Light" font-size="33.5" fill="#000000" transform="matrix(1.00, 0.00, -0.00, -1.00, 75.8, 91.0)">w</text><text xml:space="preserve" font-family="Helvetica-Light" font-size="33.5" fill="#000000" transform="matrix(1.00, 0.00, -0.00, -1.00, 100.0, 91.0)"> </text><text xml:space="preserve" font-family="Helvetica-Light" font-size="33.5" fill="#000000" transform="matrix(1.00, 0.00, -0.00, -1.00, 109.3, 91.0)">c</text><text xml:space="preserve" font-family="Helvetica-Light" font-size="33.5" fill="#000000" transform="matrix(1.00, 0.00, -0.00, -1.00, 127.9, 91.0)">a</text><text xml:space="preserve" font-family="Helvetica-Light" font-size="33.5" fill="#000000" transform="matrix(1.00, 0.00, -0.00, -1.00, 146.5, 91.0)">n</text><text xml:space="preserve" font-family="Helvetica-Light" font-size="33.5" fill="#000000" transform="matrix(1.00, 0.00, -0.00, -1.00, 165.1, 91.0)"> </text><text xml:space="preserve" font-family="Helvetica-Light" font-size="33.5" fill="#000000" transform="matrix(1.00, 0.00, -0.00, -1.00, 174.4, 91.0)">w</text><text xml:space="preserve" font-family="Helvetica-Light" font-size="33.5" fill="#000000" transform="matrix(1.00, 0.00, -0.00, -1.00, 198.6, 91.0)">e</text><text xml:space="preserve" font-family="Helvetica-Light" font-size="33.5" fill="#000000" transform="matrix(1.00, 0.00, -0.00, -1.00, 217.2, 91.0)"> </text><text xml:space="preserve" font-family="Helvetica-Light" font-size="33.5" fill="#000000" transform="matrix(1.00, 0.00, -0.00, -1.00, 226.5, 91.0)">ï¬</text><text xml:space="preserve" font-family="Helvetica-Light" font-size="33.5" fill="#000000" transform="matrix(1.00, 0.00, -0.00, -1.00, 243.3, 91.0)">g</text><text xml:space="preserve" font-family="Helvetica-Light" font-size="33.5" fill="#000000" transform="matrix(1.00, 0.00, -0.00, -1.00, 263.7, 91.0)">u</text><text xml:space="preserve" font-family="Helvetica-Light" font-size="33.5" fill="#000000" transform="matrix(1.00, 0.00, -0.00, -1.00, 282.3, 91.0)">r</text><text xml:space="preserve" font-family="Helvetica-Light" font-size="33.5" fill="#000000" transform="matrix(1.00, 0.00, -0.00, -1.00, 292.9, 91.0)">e</text><text xml:space="preserve" font-family="Helvetica-Light" font-size="33.5" fill="#000000" transform="matrix(1.00, 0.00, -0.00, -1.00, 311.5, 91.0)"> </text><text xml:space="preserve" font-family="Helvetica-Light" font-size="33.5" fill="#000000" transform="matrix(1.00, 0.00, -0.00, -1.00, 320.8, 91.0)">o</text><text xml:space="preserve" font-family="Helvetica-Light" font-size="33.5" fill="#000000" transform="matrix(1.00, 0.00, -0.00, -1.00, 339.4, 91.0)">u</text><text xml:space="preserve" font-family="Helvetica-Light" font-size="33.5" fill="#000000" transform="matrix(1.00, 0.00, -0.00, -1.00, 358.0, 91.0)">t</text><text xml:space="preserve" font-family="Helvetica-Light" font-size="33.5" fill="#000000" transform="matrix(1.00, 0.00, -0.00, -1.00, 367.3, 91.0)"> </text><text xml:space="preserve" font-family="Helvetica-Light" font-size="33.5" fill="#000000" transform="matrix(1.00, 0.00, -0.00, -1.00, 376.6, 91.0)">w</text><text xml:space="preserve" font-family="Helvetica-Light" font-size="33.5" fill="#000000" transform="matrix(1.00, 0.00, -0.00, -1.00, 400.8, 91.0)">h</text><text xml:space="preserve" font-family="Helvetica-Light" font-size="33.5" fill="#000000" transform="matrix(1.00, 0.00, -0.00, -1.00, 419.4, 91.0)">a</text><text xml:space="preserve" font-family="Helvetica-Light" font-size="33.5" fill="#000000" transform="matrix(1.00, 0.00, -0.00, -1.00, 438.0, 91.0)">t</text><text xml:space="preserve" font-family="Helvetica-Light" font-size="33.5" fill="#000000" transform="matrix(1.00, 0.00, -0.00, -1.00, 447.3, 91.0)"> </text><text xml:space="preserve" font-family="Helvetica-Light" font-size="33.5" fill="#000000" transform="matrix(1.00, 0.00, -0.00, -1.00, 456.7, 91.0)">s</text><text xml:space="preserve" font-family="Helvetica-Light" font-size="33.5" fill="#000000" transform="matrix(1.00, 0.00, -0.00, -1.00, 473.4, 91.0)">u</text><text xml:space="preserve" font-family="Helvetica-Light" font-size="33.5" fill="#000000" transform="matrix(1.00, 0.00, -0.00, -1.00, 492.0, 91.0)">b</text><text xml:space="preserve" font-family="Helvetica-Light" font-size="33.5" fill="#000000" transform="matrix(1.00, 0.00, -0.00, -1.00, 512.5, 91.0)">s</text><text xml:space="preserve" font-family="Helvetica-Light" font-size="33.5" fill="#000000" transform="matrix(1.00, 0.00, -0.00, -1.00, 529.2, 91.0)">t</text><text xml:space="preserve" font-family="Helvetica-Light" font-size="33.5" fill="#000000" transform="matrix(1.00, 0.00, -0.00, -1.00, 538.5, 91.0)">a</text><text xml:space="preserve" font-family="Helvetica-Light" font-size="33.5" fill="#000000" transform="matrix(1.00, 0.00, -0.00, -1.00, 557.1, 91.0)">n</text><text xml:space="preserve" font-family="Helvetica-Light" font-size="33.5" fill="#000000" transform="matrix(1.00, 0.00, -0.00, -1.00, 575.7, 91.0)">c</text><text xml:space="preserve" font-family="Helvetica-Light" font-size="33.5" fill="#000000" transform="matrix(1.00, 0.00, -0.00, -1.00, 594.4, 91.0)">e</text><text xml:space="preserve" font-family="Helvetica-Light" font-size="33.5" fill="#000000" transform="matrix(1.00, 0.00, -0.00, -1.00, 613.0, 91.0)">s</text><text xml:space="preserve" font-family="Helvetica-Light" font-size="33.5" fill="#000000" transform="matrix(1.00, 0.00, -0.00, -1.00, 629.7, 91.0)"> </text><text xml:space="preserve" font-family="Helvetica-Light" font-size="33.5" fill="#000000" transform="matrix(1.00, 0.00, -0.00, -1.00, 639.0, 91.0)">o</text><text xml:space="preserve" font-family="Helvetica-Light" font-size="33.5" fill="#000000" transform="matrix(1.00, 0.00, -0.00, -1.00, 657.6, 91.0)">r</text><text xml:space="preserve" font-family="Helvetica-Light" font-size="33.5" fill="#000000" transform="matrix(1.00, 0.00, -0.00, -1.00, 668.8, 91.0)"> </text><text xml:space="preserve" font-family="Helvetica-Light" font-size="33.5" fill="#000000" transform="matrix(1.00, 0.00, -0.00, -1.00, 678.1, 91.0)">b</text><text xml:space="preserve" font-family="Helvetica-Light" font-size="33.5" fill="#000000" transform="matrix(1.00, 0.00, -0.00, -1.00, 698.5, 91.0)">e</text><text xml:space="preserve" font-family="Helvetica-Light" font-size="33.5" fill="#000000" transform="matrix(1.00, 0.00, -0.00, -1.00, 717.2, 91.0)">h</text><text xml:space="preserve" font-family="Helvetica-Light" font-size="33.5" fill="#000000" transform="matrix(1.00, 0.00, -0.00, -1.00, 735.8, 91.0)">a</text><text xml:space="preserve" font-family="Helvetica-Light" font-size="33.5" fill="#000000" transform="matrix(1.00, 0.00, -0.00, -1.00, 754.4, 91.0)">v</text><text xml:space="preserve" font-family="Helvetica-Light" font-size="33.5" fill="#000000" transform="matrix(1.00, 0.00, -0.00, -1.00, 771.1, 91.0)">i</text><text xml:space="preserve" font-family="Helvetica-Light" font-size="33.5" fill="#000000" transform="matrix(1.00, 0.00, -0.00, -1.00, 778.6, 91.0)">o</text><text xml:space="preserve" font-family="Helvetica-Light" font-size="33.5" fill="#000000" transform="matrix(1.00, 0.00, -0.00, -1.00, 797.2, 91.0)">r</text><text xml:space="preserve" font-family="Helvetica-Light" font-size="33.5" fill="#000000" transform="matrix(1.00, 0.00, -0.00, -1.00, 808.3, 91.0)">s</text><text xml:space="preserve" font-family="Helvetica-Light" font-size="33.5" fill="#000000" transform="matrix(1.00, 0.00, -0.00, -1.00, 825.1, 91.0)"> </text><text xml:space="preserve" font-family="Helvetica-Light" font-size="33.5" fill="#000000" transform="matrix(1.00, 0.00, -0.00, -1.00, 33.0, 50.0)">c</text><text xml:space="preserve" font-family="Helvetica-Light" font-size="33.5" fill="#000000" transform="matrix(1.00, 0.00, -0.00, -1.00, 51.6, 50.0)">a</text><text xml:space="preserve" font-family="Helvetica-Light" font-size="33.5" fill="#000000" transform="matrix(1.00, 0.00, -0.00, -1.00, 70.2, 50.0)">u</text><text xml:space="preserve" font-family="Helvetica-Light" font-size="33.5" fill="#000000" transform="matrix(1.00, 0.00, -0.00, -1.00, 88.8, 50.0)">s</text><text xml:space="preserve" font-family="Helvetica-Light" font-size="33.5" fill="#000000" transform="matrix(1.00, 0.00, -0.00, -1.00, 105.6, 50.0)">e</text><text xml:space="preserve" font-family="Helvetica-Light" font-size="33.5" fill="#000000" transform="matrix(1.00, 0.00, -0.00, -1.00, 124.2, 50.0)"> </text><text xml:space="preserve" font-family="Helvetica-Light" font-size="33.5" fill="#000000" transform="matrix(1.00, 0.00, -0.00, -1.00, 133.5, 50.0)">c</text><text xml:space="preserve" font-family="Helvetica-Light" font-size="33.5" fill="#000000" transform="matrix(1.00, 0.00, -0.00, -1.00, 152.1, 50.0)">a</text><text xml:space="preserve" font-family="Helvetica-Light" font-size="33.5" fill="#000000" transform="matrix(1.00, 0.00, -0.00, -1.00, 170.7, 50.0)">n</text><text xml:space="preserve" font-family="Helvetica-Light" font-size="33.5" fill="#000000" transform="matrix(1.00, 0.00, -0.00, -1.00, 189.4, 50.0)">c</text><text xml:space="preserve" font-family="Helvetica-Light" font-size="33.5" fill="#000000" transform="matrix(1.00, 0.00, -0.00, -1.00, 208.0, 50.0)">e</text><text xml:space="preserve" font-family="Helvetica-Light" font-size="33.5" fill="#000000" transform="matrix(1.00, 0.00, -0.00, -1.00, 226.6, 50.0)">r</text><text xml:space="preserve" font-family="Helvetica-Light" font-size="33.5" fill="#000000" transform="matrix(1.00, 0.00, -0.00, -1.00, 234.7, 50.0)">,</text><text xml:space="preserve" font-family="Helvetica-Light" font-size="33.5" fill="#000000" transform="matrix(1.00, 0.00, -0.00, -1.00, 244.0, 50.0)"> </text><text xml:space="preserve" font-family="Helvetica-Light" font-size="33.5" fill="#000000" transform="matrix(1.00, 0.00, -0.00, -1.00, 253.3, 50.0)">g</text><text xml:space="preserve" font-family="Helvetica-Light" font-size="33.5" fill="#000000" transform="matrix(1.00, 0.00, -0.00, -1.00, 273.7, 50.0)">i</text><text xml:space="preserve" font-family="Helvetica-Light" font-size="33.5" fill="#000000" transform="matrix(1.00, 0.00, -0.00, -1.00, 281.2, 50.0)">v</text><text xml:space="preserve" font-family="Helvetica-Light" font-size="33.5" fill="#000000" transform="matrix(1.00, 0.00, -0.00, -1.00, 297.9, 50.0)">e</text><text xml:space="preserve" font-family="Helvetica-Light" font-size="33.5" fill="#000000" transform="matrix(1.00, 0.00, -0.00, -1.00, 316.5, 50.0)">n</text><text xml:space="preserve" font-family="Helvetica-Light" font-size="33.5" fill="#000000" transform="matrix(1.00, 0.00, -0.00, -1.00, 335.1, 50.0)"> </text><text xml:space="preserve" font-family="Helvetica-Light" font-size="33.5" fill="#000000" transform="matrix(1.00, 0.00, -0.00, -1.00, 344.4, 50.0)">t</text><text xml:space="preserve" font-family="Helvetica-Light" font-size="33.5" fill="#000000" transform="matrix(1.00, 0.00, -0.00, -1.00, 353.7, 50.0)">h</text><text xml:space="preserve" font-family="Helvetica-Light" font-size="33.5" fill="#000000" transform="matrix(1.00, 0.00, -0.00, -1.00, 372.4, 50.0)">a</text><text xml:space="preserve" font-family="Helvetica-Light" font-size="33.5" fill="#000000" transform="matrix(1.00, 0.00, -0.00, -1.00, 391.0, 50.0)">t</text><text xml:space="preserve" font-family="Helvetica-Light" font-size="33.5" fill="#000000" transform="matrix(1.00, 0.00, -0.00, -1.00, 400.3, 50.0)"> </text><text xml:space="preserve" font-family="Helvetica-Light" font-size="33.5" fill="#000000" transform="matrix(1.00, 0.00, -0.00, -1.00, 409.6, 50.0)">w</text><text xml:space="preserve" font-family="Helvetica-Light" font-size="33.5" fill="#000000" transform="matrix(1.00, 0.00, -0.00, -1.00, 433.8, 50.0)">e</text><text xml:space="preserve" font-family="Helvetica-Light" font-size="33.5" fill="#000000" transform="matrix(1.00, 0.00, -0.00, -1.00, 452.4, 50.0)"> </text><text xml:space="preserve" font-family="Helvetica-Light" font-size="33.5" fill="#000000" transform="matrix(1.00, 0.00, -0.00, -1.00, 461.7, 50.0)">c</text><text xml:space="preserve" font-family="Helvetica-Light" font-size="33.5" fill="#000000" transform="matrix(1.00, 0.00, -0.00, -1.00, 480.3, 50.0)">a</text><text xml:space="preserve" font-family="Helvetica-Light" font-size="33.5" fill="#000000" transform="matrix(1.00, 0.00, -0.00, -1.00, 498.9, 50.0)">n</text><text xml:space="preserve" font-family="Helvetica-Light" font-size="33.5" fill="#000000" transform="matrix(1.00, 0.00, -0.00, -1.00, 517.5, 50.0)">n</text><text xml:space="preserve" font-family="Helvetica-Light" font-size="33.5" fill="#000000" transform="matrix(1.00, 0.00, -0.00, -1.00, 536.1, 50.0)">o</text><text xml:space="preserve" font-family="Helvetica-Light" font-size="33.5" fill="#000000" transform="matrix(1.00, 0.00, -0.00, -1.00, 554.8, 50.0)">t</text><text xml:space="preserve" font-family="Helvetica-Light" font-size="33.5" fill="#000000" transform="matrix(1.00, 0.00, -0.00, -1.00, 564.1, 50.0)"> </text><text xml:space="preserve" font-family="Helvetica-Light" font-size="33.5" fill="#000000" transform="matrix(1.00, 0.00, -0.00, -1.00, 573.4, 50.0)">c</text><text xml:space="preserve" font-family="Helvetica-Light" font-size="33.5" fill="#000000" transform="matrix(1.00, 0.00, -0.00, -1.00, 592.0, 50.0)">o</text><text xml:space="preserve" font-family="Helvetica-Light" font-size="33.5" fill="#000000" transform="matrix(1.00, 0.00, -0.00, -1.00, 610.6, 50.0)">n</text><text xml:space="preserve" font-family="Helvetica-Light" font-size="33.5" fill="#000000" transform="matrix(1.00, 0.00, -0.00, -1.00, 629.2, 50.0)">d</text><text xml:space="preserve" font-family="Helvetica-Light" font-size="33.5" fill="#000000" transform="matrix(1.00, 0.00, -0.00, -1.00, 649.7, 50.0)">u</text><text xml:space="preserve" font-family="Helvetica-Light" font-size="33.5" fill="#000000" transform="matrix(1.00, 0.00, -0.00, -1.00, 668.3, 50.0)">c</text><text xml:space="preserve" font-family="Helvetica-Light" font-size="33.5" fill="#000000" transform="matrix(1.00, 0.00, -0.00, -1.00, 686.9, 50.0)">t</text><text xml:space="preserve" font-family="Helvetica-Light" font-size="33.5" fill="#000000" transform="matrix(1.00, 0.00, -0.00, -1.00, 696.2, 50.0)"> </text><text xml:space="preserve" font-family="Helvetica-Light" font-size="33.5" fill="#000000" transform="matrix(1.00, 0.00, -0.00, -1.00, 705.5, 50.0)">c</text><text xml:space="preserve" font-family="Helvetica-Light" font-size="33.5" fill="#000000" transform="matrix(1.00, 0.00, -0.00, -1.00, 724.1, 50.0)">a</text><text xml:space="preserve" font-family="Helvetica-Light" font-size="33.5" fill="#000000" transform="matrix(1.00, 0.00, -0.00, -1.00, 742.7, 50.0)">n</text><text xml:space="preserve" font-family="Helvetica-Light" font-size="33.5" fill="#000000" transform="matrix(1.00, 0.00, -0.00, -1.00, 761.4, 50.0)">c</text><text xml:space="preserve" font-family="Helvetica-Light" font-size="33.5" fill="#000000" transform="matrix(1.00, 0.00, -0.00, -1.00, 780.0, 50.0)">e</text><text xml:space="preserve" font-family="Helvetica-Light" font-size="33.5" fill="#000000" transform="matrix(1.00, 0.00, -0.00, -1.00, 798.6, 50.0)">r</text><text xml:space="preserve" font-family="Helvetica-Light" font-size="33.5" fill="#000000" transform="matrix(1.00, 0.00, -0.00, -1.00, 807.9, 50.0)">-</text><text xml:space="preserve" font-family="Helvetica-Light" font-size="33.5" fill="#000000" transform="matrix(1.00, 0.00, -0.00, -1.00, 33.0, 9.0)">c</text><text xml:space="preserve" font-family="Helvetica-Light" font-size="33.5" fill="#000000" transform="matrix(1.00, 0.00, -0.00, -1.00, 51.6, 9.0)">a</text><text xml:space="preserve" font-family="Helvetica-Light" font-size="33.5" fill="#000000" transform="matrix(1.00, 0.00, -0.00, -1.00, 70.2, 9.0)">u</text><text xml:space="preserve" font-family="Helvetica-Light" font-size="33.5" fill="#000000" transform="matrix(1.00, 0.00, -0.00, -1.00, 88.8, 9.0)">s</text><text xml:space="preserve" font-family="Helvetica-Light" font-size="33.5" fill="#000000" transform="matrix(1.00, 0.00, -0.00, -1.00, 105.6, 9.0)">i</text><text xml:space="preserve" font-family="Helvetica-Light" font-size="33.5" fill="#000000" transform="matrix(1.00, 0.00, -0.00, -1.00, 113.0, 9.0)">n</text><text xml:space="preserve" font-family="Helvetica-Light" font-size="33.5" fill="#000000" transform="matrix(1.00, 0.00, -0.00, -1.00, 131.6, 9.0)">g</text><text xml:space="preserve" font-family="Helvetica-Light" font-size="33.5" fill="#000000" transform="matrix(1.00, 0.00, -0.00, -1.00, 152.1, 9.0)"> </text><text xml:space="preserve" font-family="Helvetica-Light" font-size="33.5" fill="#000000" transform="matrix(1.00, 0.00, -0.00, -1.00, 161.4, 9.0)">e</text><text xml:space="preserve" font-family="Helvetica-Light" font-size="33.5" fill="#000000" transform="matrix(1.00, 0.00, -0.00, -1.00, 180.0, 9.0)">x</text><text xml:space="preserve" font-family="Helvetica-Light" font-size="33.5" fill="#000000" transform="matrix(1.00, 0.00, -0.00, -1.00, 196.8, 9.0)">p</text><text xml:space="preserve" font-family="Helvetica-Light" font-size="33.5" fill="#000000" transform="matrix(1.00, 0.00, -0.00, -1.00, 217.2, 9.0)">e</text><text xml:space="preserve" font-family="Helvetica-Light" font-size="33.5" fill="#000000" transform="matrix(1.00, 0.00, -0.00, -1.00, 235.8, 9.0)">r</text><text xml:space="preserve" font-family="Helvetica-Light" font-size="33.5" fill="#000000" transform="matrix(1.00, 0.00, -0.00, -1.00, 247.0, 9.0)">i</text><text xml:space="preserve" font-family="Helvetica-Light" font-size="33.5" fill="#000000" transform="matrix(1.00, 0.00, -0.00, -1.00, 254.4, 9.0)">m</text><text xml:space="preserve" font-family="Helvetica-Light" font-size="33.5" fill="#000000" transform="matrix(1.00, 0.00, -0.00, -1.00, 282.3, 9.0)">e</text><text xml:space="preserve" font-family="Helvetica-Light" font-size="33.5" fill="#000000" transform="matrix(1.00, 0.00, -0.00, -1.00, 300.9, 9.0)">n</text><text xml:space="preserve" font-family="Helvetica-Light" font-size="33.5" fill="#000000" transform="matrix(1.00, 0.00, -0.00, -1.00, 319.5, 9.0)">t</text><text xml:space="preserve" font-family="Helvetica-Light" font-size="33.5" fill="#000000" transform="matrix(1.00, 0.00, -0.00, -1.00, 328.8, 9.0)">s</text><text xml:space="preserve" font-family="Helvetica-Light" font-size="33.5" fill="#000000" transform="matrix(1.00, 0.00, -0.00, -1.00, 345.6, 9.0)"> </text><text xml:space="preserve" font-family="Helvetica-Light" font-size="33.5" fill="#000000" transform="matrix(1.00, 0.00, -0.00, -1.00, 354.9, 9.0)">o</text><text xml:space="preserve" font-family="Helvetica-Light" font-size="33.5" fill="#000000" transform="matrix(1.00, 0.00, -0.00, -1.00, 373.5, 9.0)">n</text><text xml:space="preserve" font-family="Helvetica-Light" font-size="33.5" fill="#000000" transform="matrix(1.00, 0.00, -0.00, -1.00, 392.1, 9.0)"> </text><text xml:space="preserve" font-family="Helvetica-Light" font-size="33.5" fill="#000000" transform="matrix(1.00, 0.00, -0.00, -1.00, 401.4, 9.0)">h</text><text xml:space="preserve" font-family="Helvetica-Light" font-size="33.5" fill="#000000" transform="matrix(1.00, 0.00, -0.00, -1.00, 420.0, 9.0)">u</text><text xml:space="preserve" font-family="Helvetica-Light" font-size="33.5" fill="#000000" transform="matrix(1.00, 0.00, -0.00, -1.00, 438.6, 9.0)">m</text><text xml:space="preserve" font-family="Helvetica-Light" font-size="33.5" fill="#000000" transform="matrix(1.00, 0.00, -0.00, -1.00, 466.5, 9.0)">a</text><text xml:space="preserve" font-family="Helvetica-Light" font-size="33.5" fill="#000000" transform="matrix(1.00, 0.00, -0.00, -1.00, 485.1, 9.0)">n</text><text xml:space="preserve" font-family="Helvetica-Light" font-size="33.5" fill="#000000" transform="matrix(1.00, 0.00, -0.00, -1.00, 503.8, 9.0)">s</text><text xml:space="preserve" font-family="Helvetica-Light" font-size="33.5" fill="#000000" transform="matrix(1.00, 0.00, -0.00, -1.00, 520.5, 9.0)">?</text><text xml:space="preserve" font-family="Helvetica-Light" font-size="33.5" fill="#000000" transform="matrix(1.00, 0.00, -0.00, -1.00, 537.2, 9.0)"> </text></g></svg>