<?xml version="1.0" encoding="UTF-8" standalone="no"?><svg xmlns="http://www.w3.org/2000/svg" xmlns:xlink="http://www.w3.org/1999/xlink" clip-rule="evenodd" stroke-miterlimit="4.00" viewBox="0 0 33 35"><desc>SVG generated by Keynote</desc><defs></defs><g transform="matrix(1.00, 0.00, -0.00, -1.00, 0.0, 35.0)"><image xlink:href="../../1C04A9DF-18C7-4A3E-8791-F72F3247F06B/assets/4903A95322DA4B0062A12D6C40FF6752.png" width="29.00" height="29.00" transform="matrix(1.02, 0.00, -0.00, -0.98, 1.6, 29.7)" opacity="0.50"></image><g><clipPath id="clip-62"><path d="M 24.7 25.4 C 29.3 21.0 29.3 13.8 24.7 9.4 C 20.1 5.0 12.7 5.0 8.1 9.4 C 3.5 13.8 3.5 21.0 8.1 25.4 C 12.7 29.8 20.1 29.8 24.7 25.4 Z M 24.7 25.4 "></path></clipPath><g clip-path="url(#clip-62)"><image xlink:href="../../1C04A9DF-18C7-4A3E-8791-F72F3247F06B/assets/D5BAA0E7A80E113D25EB92D00157B4C8.jpeg" width="300.00" height="300.00" transform="matrix(1.00, 0.00, -0.00, -1.00, 4.6, 28.7)"></image><path d="M 4.6 28.7 L 28.1 28.7 L 28.1 6.1 L 4.6 6.1 Z M 4.6 28.7 " fill="#FF2A05" fill-opacity="0.50"></path></g></g></g></svg>