<?xml version="1.0" encoding="UTF-8" standalone="no"?><svg xmlns="http://www.w3.org/2000/svg" xmlns:xlink="http://www.w3.org/1999/xlink" clip-rule="evenodd" stroke-miterlimit="4.00" viewBox="0 0 32 35"><desc>SVG generated by Keynote</desc><defs></defs><g transform="matrix(1.00, 0.00, -0.00, -1.00, 0.0, 35.0)"><image xlink:href="../../1C04A9DF-18C7-4A3E-8791-F72F3247F06B/assets/4903A95322DA4B0062A12D6C40FF6752.png" width="29.00" height="29.00" transform="matrix(1.02, 0.00, -0.00, -0.98, 1.2, 29.6)" opacity="0.50"></image><g><clipPath id="clip-61"><path d="M 24.3 25.3 C 28.8 20.9 28.8 13.8 24.3 9.4 C 19.7 5.0 12.2 5.0 7.7 9.4 C 3.1 13.8 3.1 20.9 7.7 25.3 C 12.2 29.7 19.7 29.7 24.3 25.3 Z M 24.3 25.3 "></path></clipPath><g clip-path="url(#clip-61)"><image xlink:href="../../1C04A9DF-18C7-4A3E-8791-F72F3247F06B/assets/D5BAA0E7A80E113D25EB92D00157B4C8.jpeg" width="300.00" height="300.00" transform="matrix(1.00, 0.00, -0.00, -1.00, 4.2, 28.6)"></image><path d="M 4.2 28.6 L 27.7 28.6 L 27.7 6.1 L 4.2 6.1 Z M 4.2 28.6 " fill="#FF2A05" fill-opacity="0.50"></path></g></g></g></svg>